solid Ball Detent Housing.stl
  facet normal 0 0 1
    outer loop
      vertex 120.25 112.5 10
      vertex 113.16 115.44 10
      vertex 112.75 115.4 10
    endloop
  endfacet
  facet normal 0 0 1
    outer loop
      vertex 113.16 115.44 10
      vertex 120.25 112.5 10
      vertex 113.554 115.56 10
    endloop
  endfacet
  facet normal 0 0 1
    outer loop
      vertex 113.554 115.56 10
      vertex 120.25 112.5 10
      vertex 113.917 115.754 10
    endloop
  endfacet
  facet normal 0 0 1
    outer loop
      vertex 113.917 115.754 10
      vertex 120.25 112.5 10
      vertex 114.235 116.015 10
    endloop
  endfacet
  facet normal 0 0 1
    outer loop
      vertex 114.235 116.015 10
      vertex 120.25 112.5 10
      vertex 120.25 122.5 10
    endloop
  endfacet
  facet normal 0 0 1
    outer loop
      vertex 114.235 116.015 10
      vertex 120.25 122.5 10
      vertex 114.496 116.333 10
    endloop
  endfacet
  facet normal 0 0 1
    outer loop
      vertex 114.496 116.333 10
      vertex 120.25 122.5 10
      vertex 114.69 116.696 10
    endloop
  endfacet
  facet normal 0 0 1
    outer loop
      vertex 114.69 116.696 10
      vertex 120.25 122.5 10
      vertex 114.81 117.09 10
    endloop
  endfacet
  facet normal 0 0 1
    outer loop
      vertex 114.81 117.09 10
      vertex 120.25 122.5 10
      vertex 114.85 117.5 10
    endloop
  endfacet
  facet normal 0 0 1
    outer loop
      vertex 114.85 117.5 10
      vertex 120.25 122.5 10
      vertex 114.81 117.91 10
    endloop
  endfacet
  facet normal 0 0 1
    outer loop
      vertex 114.81 117.91 10
      vertex 120.25 122.5 10
      vertex 114.69 118.304 10
    endloop
  endfacet
  facet normal 0 0 1
    outer loop
      vertex 114.69 118.304 10
      vertex 120.25 122.5 10
      vertex 114.496 118.667 10
    endloop
  endfacet
  facet normal 0 0 1
    outer loop
      vertex 114.496 118.667 10
      vertex 120.25 122.5 10
      vertex 114.235 118.985 10
    endloop
  endfacet
  facet normal 0 0 1
    outer loop
      vertex 114.235 118.985 10
      vertex 120.25 122.5 10
      vertex 113.917 119.246 10
    endloop
  endfacet
  facet normal 0 0 1
    outer loop
      vertex 113.917 119.246 10
      vertex 120.25 122.5 10
      vertex 113.554 119.44 10
    endloop
  endfacet
  facet normal 0 0 1
    outer loop
      vertex 113.554 119.44 10
      vertex 120.25 122.5 10
      vertex 113.16 119.56 10
    endloop
  endfacet
  facet normal 0 0 1
    outer loop
      vertex 113.16 119.56 10
      vertex 120.25 122.5 10
      vertex 112.75 119.6 10
    endloop
  endfacet
  facet normal 1.64503e-06 1.52587e-06 1
    outer loop
      vertex 105.25 112.5 10
      vertex 111.265 116.015 10
      vertex 105.25 122.5 10
    endloop
  endfacet
  facet normal 1.48165e-06 1.80545e-06 1
    outer loop
      vertex 111.265 116.015 10
      vertex 105.25 112.5 10
      vertex 111.583 115.754 10
    endloop
  endfacet
  facet normal 1.22844e-06 2.29828e-06 1
    outer loop
      vertex 111.583 115.754 10
      vertex 105.25 112.5 10
      vertex 111.946 115.56 10
    endloop
  endfacet
  facet normal 1.01723e-06 2.76051e-06 1
    outer loop
      vertex 111.946 115.56 10
      vertex 105.25 112.5 10
      vertex 120.25 112.5 10
    endloop
  endfacet
  facet normal 0 0 1
    outer loop
      vertex 111.946 115.56 10
      vertex 120.25 112.5 10
      vertex 112.34 115.44 10
    endloop
  endfacet
  facet normal 0 0 1
    outer loop
      vertex 112.34 115.44 10
      vertex 120.25 112.5 10
      vertex 112.75 115.4 10
    endloop
  endfacet
  facet normal 0 0 1
    outer loop
      vertex 105.25 122.5 10
      vertex 111.265 116.015 10
      vertex 111.004 116.333 10
    endloop
  endfacet
  facet normal 0 0 1
    outer loop
      vertex 105.25 122.5 10
      vertex 111.004 116.333 10
      vertex 110.81 116.696 10
    endloop
  endfacet
  facet normal 0 0 1
    outer loop
      vertex 105.25 122.5 10
      vertex 110.81 116.696 10
      vertex 110.69 117.09 10
    endloop
  endfacet
  facet normal 0 0 1
    outer loop
      vertex 105.25 122.5 10
      vertex 110.69 117.09 10
      vertex 110.65 117.5 10
    endloop
  endfacet
  facet normal 0 0 1
    outer loop
      vertex 105.25 122.5 10
      vertex 110.65 117.5 10
      vertex 110.69 117.91 10
    endloop
  endfacet
  facet normal 0 0 1
    outer loop
      vertex 105.25 122.5 10
      vertex 110.69 117.91 10
      vertex 110.81 118.304 10
    endloop
  endfacet
  facet normal 0 0 1
    outer loop
      vertex 105.25 122.5 10
      vertex 110.81 118.304 10
      vertex 111.004 118.667 10
    endloop
  endfacet
  facet normal 0 0 1
    outer loop
      vertex 105.25 122.5 10
      vertex 111.004 118.667 10
      vertex 111.265 118.985 10
    endloop
  endfacet
  facet normal 0 0 1
    outer loop
      vertex 105.25 122.5 10
      vertex 111.265 118.985 10
      vertex 111.583 119.246 10
    endloop
  endfacet
  facet normal 0 0 1
    outer loop
      vertex 105.25 122.5 10
      vertex 111.583 119.246 10
      vertex 111.946 119.44 10
    endloop
  endfacet
  facet normal 0 0 1
    outer loop
      vertex 105.25 122.5 10
      vertex 111.946 119.44 10
      vertex 112.34 119.56 10
    endloop
  endfacet
  facet normal 0 0 1
    outer loop
      vertex 105.25 122.5 10
      vertex 112.34 119.56 10
      vertex 112.75 119.6 10
    endloop
  endfacet
  facet normal 0 0 1
    outer loop
      vertex 105.25 122.5 10
      vertex 112.75 119.6 10
      vertex 120.25 122.5 10
    endloop
  endfacet
  facet normal -7.82481e-07 -3.30248e-06 -1
    outer loop
      vertex 105.25 112.5 3.05176e-05
      vertex 112.34 115.44 1.52588e-05
      vertex 124.75 112.5 1.52588e-05
    endloop
  endfacet
  facet normal -9.09182e-07 -2.99696e-06 -1
    outer loop
      vertex 112.34 115.44 1.52588e-05
      vertex 105.25 112.5 3.05176e-05
      vertex 111.946 115.56 1.52588e-05
    endloop
  endfacet
  facet normal -1.22844e-06 -2.29828e-06 -1
    outer loop
      vertex 111.946 115.56 1.52588e-05
      vertex 105.25 112.5 3.05176e-05
      vertex 111.583 115.754 1.52588e-05
    endloop
  endfacet
  facet normal -1.48164e-06 -1.80545e-06 -1
    outer loop
      vertex 111.583 115.754 1.52588e-05
      vertex 105.25 112.5 3.05176e-05
      vertex 111.265 116.015 1.52588e-05
    endloop
  endfacet
  facet normal -7.53338e-07 -3.05174e-06 -1
    outer loop
      vertex 111.265 116.015 1.52588e-05
      vertex 105.25 112.5 3.05176e-05
      vertex 105.25 122.5 0
    endloop
  endfacet
  facet normal 0 0 -1
    outer loop
      vertex 124.75 112.5 1.52588e-05
      vertex 112.34 115.44 1.52588e-05
      vertex 125.726 112.596 1.52588e-05
    endloop
  endfacet
  facet normal 0 0 -1
    outer loop
      vertex 125.726 112.596 1.52588e-05
      vertex 112.34 115.44 1.52588e-05
      vertex 126.664 112.881 1.52588e-05
    endloop
  endfacet
  facet normal 0 0 -1
    outer loop
      vertex 126.664 112.881 1.52588e-05
      vertex 112.34 115.44 1.52588e-05
      vertex 127.528 113.343 1.52588e-05
    endloop
  endfacet
  facet normal 0 0 -1
    outer loop
      vertex 127.528 113.343 1.52588e-05
      vertex 112.34 115.44 1.52588e-05
      vertex 112.75 115.4 1.52588e-05
    endloop
  endfacet
  facet normal 0 0 -1
    outer loop
      vertex 127.528 113.343 1.52588e-05
      vertex 112.75 115.4 1.52588e-05
      vertex 128.286 113.965 1.52588e-05
    endloop
  endfacet
  facet normal 0 0 -1
    outer loop
      vertex 128.286 113.965 1.52588e-05
      vertex 112.75 115.4 1.52588e-05
      vertex 128.907 114.722 1.52588e-05
    endloop
  endfacet
  facet normal 2.20183e-05 1.80705e-05 -1
    outer loop
      vertex 111.265 116.015 1.52588e-05
      vertex 105.25 122.5 0
      vertex 111.004 116.333 1.52588e-05
    endloop
  endfacet
  facet normal 6.20817e-06 3.31835e-06 -1
    outer loop
      vertex 111.004 116.333 1.52588e-05
      vertex 105.25 122.5 0
      vertex 110.81 116.696 1.52588e-05
    endloop
  endfacet
  facet normal 4.01612e-06 1.21832e-06 -1
    outer loop
      vertex 110.81 116.696 1.52588e-05
      vertex 105.25 122.5 0
      vertex 110.69 117.09 1.52588e-05
    endloop
  endfacet
  facet normal 3.10912e-06 3.06171e-07 -1
    outer loop
      vertex 110.69 117.09 1.52588e-05
      vertex 105.25 122.5 0
      vertex 110.65 117.5 1.52588e-05
    endloop
  endfacet
  facet normal 2.58953e-06 -2.55005e-07 -1
    outer loop
      vertex 110.65 117.5 1.52588e-05
      vertex 105.25 122.5 0
      vertex 110.69 117.91 1.52588e-05
    endloop
  endfacet
  facet normal 2.23311e-06 -6.77434e-07 -1
    outer loop
      vertex 110.69 117.91 1.52588e-05
      vertex 105.25 122.5 0
      vertex 110.81 118.304 1.52588e-05
    endloop
  endfacet
  facet normal 1.95551e-06 -1.04525e-06 -1
    outer loop
      vertex 110.81 118.304 1.52588e-05
      vertex 105.25 122.5 0
      vertex 111.004 118.667 1.52588e-05
    endloop
  endfacet
  facet normal 1.71447e-06 -1.40707e-06 -1
    outer loop
      vertex 111.004 118.667 1.52588e-05
      vertex 105.25 122.5 0
      vertex 111.265 118.985 1.52588e-05
    endloop
  endfacet
  facet normal -1.84604e-05 -3.59317e-05 -1
    outer loop
      vertex 111.265 118.985 1.52588e-05
      vertex 105.25 122.5 0
      vertex 111.583 119.246 0
    endloop
  endfacet
  facet normal 0 0 -1
    outer loop
      vertex 111.583 119.246 0
      vertex 105.25 122.5 0
      vertex 111.946 119.44 0
    endloop
  endfacet
  facet normal 0 0 -1
    outer loop
      vertex 111.946 119.44 0
      vertex 105.25 122.5 0
      vertex 112.34 119.56 0
    endloop
  endfacet
  facet normal 0 0 -1
    outer loop
      vertex 112.34 119.56 0
      vertex 105.25 122.5 0
      vertex 112.75 119.6 0
    endloop
  endfacet
  facet normal 8.51943e-07 2.20335e-06 -1
    outer loop
      vertex 112.75 119.6 0
      vertex 105.25 122.5 0
      vertex 128.907 120.278 1.52588e-05
    endloop
  endfacet
  facet normal 6.98858e-07 5.73549e-07 -1
    outer loop
      vertex 128.907 120.278 1.52588e-05
      vertex 105.25 122.5 0
      vertex 128.286 121.036 1.52588e-05
    endloop
  endfacet
  facet normal 7.18016e-07 8.74913e-07 -1
    outer loop
      vertex 128.286 121.036 1.52588e-05
      vertex 105.25 122.5 0
      vertex 127.528 121.657 1.52588e-05
    endloop
  endfacet
  facet normal 7.3708e-07 1.37894e-06 -1
    outer loop
      vertex 127.528 121.657 1.52588e-05
      vertex 105.25 122.5 0
      vertex 126.664 122.119 1.52588e-05
    endloop
  endfacet
  facet normal 7.56922e-07 2.4953e-06 -1
    outer loop
      vertex 126.664 122.119 1.52588e-05
      vertex 105.25 122.5 0
      vertex 125.726 122.404 1.52588e-05
    endloop
  endfacet
  facet normal 7.82486e-07 7.9446e-06 -1
    outer loop
      vertex 125.726 122.404 1.52588e-05
      vertex 105.25 122.5 0
      vertex 124.75 122.5 1.52588e-05
    endloop
  endfacet
  facet normal 0 0 -1
    outer loop
      vertex 112.75 115.4 1.52588e-05
      vertex 129.37 115.587 1.52588e-05
      vertex 128.907 114.722 1.52588e-05
    endloop
  endfacet
  facet normal 0 0 -1
    outer loop
      vertex 129.37 115.587 1.52588e-05
      vertex 112.75 115.4 1.52588e-05
      vertex 113.16 115.44 1.52588e-05
    endloop
  endfacet
  facet normal 0 0 -1
    outer loop
      vertex 129.37 115.587 1.52588e-05
      vertex 113.16 115.44 1.52588e-05
      vertex 113.554 115.56 1.52588e-05
    endloop
  endfacet
  facet normal 0 0 -1
    outer loop
      vertex 129.37 115.587 1.52588e-05
      vertex 113.554 115.56 1.52588e-05
      vertex 113.917 115.754 1.52588e-05
    endloop
  endfacet
  facet normal 0 0 -1
    outer loop
      vertex 129.37 115.587 1.52588e-05
      vertex 113.917 115.754 1.52588e-05
      vertex 129.654 116.525 1.52588e-05
    endloop
  endfacet
  facet normal 0 0 -1
    outer loop
      vertex 129.654 116.525 1.52588e-05
      vertex 113.917 115.754 1.52588e-05
      vertex 114.235 116.015 1.52588e-05
    endloop
  endfacet
  facet normal 0 0 -1
    outer loop
      vertex 129.654 116.525 1.52588e-05
      vertex 114.235 116.015 1.52588e-05
      vertex 114.496 116.333 1.52588e-05
    endloop
  endfacet
  facet normal 0 0 -1
    outer loop
      vertex 129.654 116.525 1.52588e-05
      vertex 114.496 116.333 1.52588e-05
      vertex 114.69 116.696 1.52588e-05
    endloop
  endfacet
  facet normal 0 0 -1
    outer loop
      vertex 129.654 116.525 1.52588e-05
      vertex 114.69 116.696 1.52588e-05
      vertex 129.75 117.5 1.52588e-05
    endloop
  endfacet
  facet normal 0 0 -1
    outer loop
      vertex 129.75 117.5 1.52588e-05
      vertex 114.69 116.696 1.52588e-05
      vertex 114.81 117.09 1.52588e-05
    endloop
  endfacet
  facet normal 0 0 -1
    outer loop
      vertex 129.75 117.5 1.52588e-05
      vertex 114.81 117.09 1.52588e-05
      vertex 114.85 117.5 1.52588e-05
    endloop
  endfacet
  facet normal 0 0 -1
    outer loop
      vertex 129.75 117.5 1.52588e-05
      vertex 114.85 117.5 1.52588e-05
      vertex 114.81 117.91 1.52588e-05
    endloop
  endfacet
  facet normal 0 0 -1
    outer loop
      vertex 129.75 117.5 1.52588e-05
      vertex 114.81 117.91 1.52588e-05
      vertex 129.654 118.475 1.52588e-05
    endloop
  endfacet
  facet normal 1.45936e-06 -3.82905e-05 -1
    outer loop
      vertex 129.654 118.475 1.52588e-05
      vertex 114.81 117.91 1.52588e-05
      vertex 114.69 118.304 0
    endloop
  endfacet
  facet normal 1.01349e-06 5.41722e-07 -1
    outer loop
      vertex 129.654 118.475 1.52588e-05
      vertex 114.69 118.304 0
      vertex 114.496 118.667 0
    endloop
  endfacet
  facet normal 1.01052e-06 3.06556e-07 -1
    outer loop
      vertex 129.654 118.475 1.52588e-05
      vertex 114.496 118.667 0
      vertex 129.37 119.413 1.52588e-05
    endloop
  endfacet
  facet normal 9.85312e-07 8.08648e-07 -1
    outer loop
      vertex 129.37 119.413 1.52588e-05
      vertex 114.496 118.667 0
      vertex 114.235 118.985 0
    endloop
  endfacet
  facet normal 9.74584e-07 1.18757e-06 -1
    outer loop
      vertex 129.37 119.413 1.52588e-05
      vertex 114.235 118.985 0
      vertex 113.917 119.246 0
    endloop
  endfacet
  facet normal 9.67838e-07 1.81057e-06 -1
    outer loop
      vertex 129.37 119.413 1.52588e-05
      vertex 113.917 119.246 0
      vertex 113.554 119.44 0
    endloop
  endfacet
  facet normal 9.6565e-07 5.16136e-07 -1
    outer loop
      vertex 129.37 119.413 1.52588e-05
      vertex 113.554 119.44 0
      vertex 128.907 120.278 1.52588e-05
    endloop
  endfacet
  facet normal 8.4231e-07 2.77677e-06 -1
    outer loop
      vertex 128.907 120.278 1.52588e-05
      vertex 113.554 119.44 0
      vertex 113.16 119.56 0
    endloop
  endfacet
  facet normal 6.62276e-07 6.72434e-06 -1
    outer loop
      vertex 128.907 120.278 1.52588e-05
      vertex 113.16 119.56 0
      vertex 112.75 119.6 0
    endloop
  endfacet
  facet normal -1 4.65659e-12 3.05176e-06
    outer loop
      vertex 105.25 122.5 10
      vertex 105.25 112.5 3.05176e-05
      vertex 105.25 112.5 10
    endloop
  endfacet
  facet normal -1 9.31317e-12 3.05175e-06
    outer loop
      vertex 105.25 112.5 3.05176e-05
      vertex 105.25 122.5 10
      vertex 105.25 122.5 0
    endloop
  endfacet
  facet normal -8.31397e-07 1 -1.52587e-06
    outer loop
      vertex 105.25 122.5 10
      vertex 124.75 122.5 1.52588e-05
      vertex 105.25 122.5 0
    endloop
  endfacet
  facet normal 7.30774e-09 1 1.09618e-07
    outer loop
      vertex 124.75 122.5 1.52588e-05
      vertex 105.25 122.5 10
      vertex 120.25 122.5 9.00002
    endloop
  endfacet
  facet normal 0 1 0
    outer loop
      vertex 120.25 122.5 9.00002
      vertex 105.25 122.5 10
      vertex 120.25 122.5 10
    endloop
  endfacet
  facet normal 0 1 1.05964e-07
    outer loop
      vertex 124.75 122.5 1.52588e-05
      vertex 120.25 122.5 9.00002
      vertex 124.75 122.5 9.00002
    endloop
  endfacet
  facet normal 3.4234e-06 -1 1.52587e-06
    outer loop
      vertex 124.75 112.5 1.52588e-05
      vertex 105.25 112.5 10
      vertex 105.25 112.5 3.05176e-05
    endloop
  endfacet
  facet normal 3.40541e-06 -1 1.49078e-06
    outer loop
      vertex 105.25 112.5 10
      vertex 124.75 112.5 1.52588e-05
      vertex 120.25 112.5 9.00002
    endloop
  endfacet
  facet normal 0 -1 -2.11928e-07
    outer loop
      vertex 120.25 112.5 9.00002
      vertex 124.75 112.5 1.52588e-05
      vertex 124.75 112.5 9.00002
    endloop
  endfacet
  facet normal 3.30602e-06 -1 0
    outer loop
      vertex 120.25 112.5 10
      vertex 105.25 112.5 10
      vertex 120.25 112.5 9.00002
    endloop
  endfacet
  facet normal 0.995185 -0.0980129 0
    outer loop
      vertex 129.654 116.525 1.52588e-05
      vertex 129.75 117.5 9.00002
      vertex 129.654 116.525 9.00002
    endloop
  endfacet
  facet normal 0.995185 -0.0980128 -2.07716e-08
    outer loop
      vertex 129.75 117.5 9.00002
      vertex 129.654 116.525 1.52588e-05
      vertex 129.75 117.5 1.52588e-05
    endloop
  endfacet
  facet normal 0.956936 -0.2903 -6.15226e-08
    outer loop
      vertex 129.37 115.587 1.52588e-05
      vertex 129.654 116.525 9.00002
      vertex 129.37 115.587 9.00002
    endloop
  endfacet
  facet normal 0.956935 -0.290301 0
    outer loop
      vertex 129.654 116.525 9.00002
      vertex 129.37 115.587 1.52588e-05
      vertex 129.654 116.525 1.52588e-05
    endloop
  endfacet
  facet normal 0.881927 -0.471386 -9.98998e-08
    outer loop
      vertex 128.907 114.722 1.52588e-05
      vertex 129.37 115.587 9.00002
      vertex 128.907 114.722 9.00002
    endloop
  endfacet
  facet normal 0.881927 -0.471386 -9.98998e-08
    outer loop
      vertex 129.37 115.587 9.00002
      vertex 128.907 114.722 1.52588e-05
      vertex 129.37 115.587 1.52588e-05
    endloop
  endfacet
  facet normal 0.773004 -0.634401 -1.34447e-07
    outer loop
      vertex 128.286 113.965 1.52588e-05
      vertex 128.907 114.722 9.00002
      vertex 128.286 113.965 9.00002
    endloop
  endfacet
  facet normal 0.773004 -0.634401 -1.34447e-07
    outer loop
      vertex 128.907 114.722 9.00002
      vertex 128.286 113.965 1.52588e-05
      vertex 128.907 114.722 1.52588e-05
    endloop
  endfacet
  facet normal 0.63439 -0.773013 -1.63823e-07
    outer loop
      vertex 127.528 113.343 1.52588e-05
      vertex 128.286 113.965 9.00002
      vertex 127.528 113.343 9.00002
    endloop
  endfacet
  facet normal 0.63439 -0.773013 -1.63823e-07
    outer loop
      vertex 128.286 113.965 9.00002
      vertex 127.528 113.343 1.52588e-05
      vertex 128.286 113.965 1.52588e-05
    endloop
  endfacet
  facet normal 0.471407 -0.881916 -1.86902e-07
    outer loop
      vertex 126.664 112.881 1.52588e-05
      vertex 127.528 113.343 9.00002
      vertex 126.664 112.881 9.00002
    endloop
  endfacet
  facet normal 0.471407 -0.881916 -1.86902e-07
    outer loop
      vertex 127.528 113.343 9.00002
      vertex 126.664 112.881 1.52588e-05
      vertex 127.528 113.343 1.52588e-05
    endloop
  endfacet
  facet normal 0.290278 -0.956942 -2.02803e-07
    outer loop
      vertex 125.726 112.596 1.52588e-05
      vertex 126.664 112.881 9.00002
      vertex 125.726 112.596 9.00002
    endloop
  endfacet
  facet normal 0.290278 -0.956942 -2.02803e-07
    outer loop
      vertex 126.664 112.881 9.00002
      vertex 125.726 112.596 1.52588e-05
      vertex 126.664 112.881 1.52588e-05
    endloop
  endfacet
  facet normal 0.0980185 -0.995185 -2.10907e-07
    outer loop
      vertex 124.75 112.5 1.52588e-05
      vertex 125.726 112.596 9.00002
      vertex 124.75 112.5 9.00002
    endloop
  endfacet
  facet normal 0.0980185 -0.995185 -2.10907e-07
    outer loop
      vertex 125.726 112.596 9.00002
      vertex 124.75 112.5 1.52588e-05
      vertex 125.726 112.596 1.52588e-05
    endloop
  endfacet
  facet normal 0.0980185 0.995185 1.05576e-07
    outer loop
      vertex 125.726 122.404 9.00002
      vertex 124.75 122.5 1.52588e-05
      vertex 124.75 122.5 9.00002
    endloop
  endfacet
  facet normal 0.0980185 0.995185 1.05576e-07
    outer loop
      vertex 124.75 122.5 1.52588e-05
      vertex 125.726 122.404 9.00002
      vertex 125.726 122.404 1.52588e-05
    endloop
  endfacet
  facet normal 0.290278 0.956942 1.01348e-07
    outer loop
      vertex 126.664 122.119 9.00002
      vertex 125.726 122.404 1.52588e-05
      vertex 125.726 122.404 9.00002
    endloop
  endfacet
  facet normal 0.290278 0.956942 1.01348e-07
    outer loop
      vertex 125.726 122.404 1.52588e-05
      vertex 126.664 122.119 9.00002
      vertex 126.664 122.119 1.52588e-05
    endloop
  endfacet
  facet normal 0.471407 0.881916 9.4596e-08
    outer loop
      vertex 127.528 121.657 9.00002
      vertex 126.664 122.119 1.52588e-05
      vertex 126.664 122.119 9.00002
    endloop
  endfacet
  facet normal 0.471407 0.881916 9.4596e-08
    outer loop
      vertex 126.664 122.119 1.52588e-05
      vertex 127.528 121.657 9.00002
      vertex 127.528 121.657 1.52588e-05
    endloop
  endfacet
  facet normal 0.63439 0.773013 8.10801e-08
    outer loop
      vertex 128.286 121.036 9.00002
      vertex 127.528 121.657 1.52588e-05
      vertex 127.528 121.657 9.00002
    endloop
  endfacet
  facet normal 0.63439 0.773013 8.10801e-08
    outer loop
      vertex 127.528 121.657 1.52588e-05
      vertex 128.286 121.036 9.00002
      vertex 128.286 121.036 1.52588e-05
    endloop
  endfacet
  facet normal 0.773004 0.634401 6.72235e-08
    outer loop
      vertex 128.907 120.278 1.52588e-05
      vertex 128.286 121.036 9.00002
      vertex 128.907 120.278 9.00002
    endloop
  endfacet
  facet normal 0.773004 0.634401 6.72235e-08
    outer loop
      vertex 128.286 121.036 9.00002
      vertex 128.907 120.278 1.52588e-05
      vertex 128.286 121.036 1.52588e-05
    endloop
  endfacet
  facet normal 0.881927 0.471386 4.99499e-08
    outer loop
      vertex 129.37 119.413 1.52588e-05
      vertex 128.907 120.278 9.00002
      vertex 129.37 119.413 9.00002
    endloop
  endfacet
  facet normal 0.881927 0.471386 4.99499e-08
    outer loop
      vertex 128.907 120.278 9.00002
      vertex 129.37 119.413 1.52588e-05
      vertex 128.907 120.278 1.52588e-05
    endloop
  endfacet
  facet normal 0.956935 0.290301 0
    outer loop
      vertex 129.654 118.475 1.52588e-05
      vertex 129.37 119.413 9.00002
      vertex 129.654 118.475 9.00002
    endloop
  endfacet
  facet normal 0.956936 0.2903 3.07613e-08
    outer loop
      vertex 129.37 119.413 9.00002
      vertex 129.654 118.475 1.52588e-05
      vertex 129.37 119.413 1.52588e-05
    endloop
  endfacet
  facet normal 0.995185 0.0980128 2.07716e-08
    outer loop
      vertex 129.75 117.5 1.52588e-05
      vertex 129.654 118.475 9.00002
      vertex 129.75 117.5 9.00002
    endloop
  endfacet
  facet normal 0.995185 0.0980129 0
    outer loop
      vertex 129.654 118.475 9.00002
      vertex 129.75 117.5 1.52588e-05
      vertex 129.654 118.475 1.52588e-05
    endloop
  endfacet
  facet normal -0.995186 -0.0980013 1.49764e-07
    outer loop
      vertex 114.81 117.91 10
      vertex 114.85 117.5 1.52588e-05
      vertex 114.85 117.5 10
    endloop
  endfacet
  facet normal -0.995186 -0.0980013 1.49764e-07
    outer loop
      vertex 114.85 117.5 1.52588e-05
      vertex 114.81 117.91 10
      vertex 114.81 117.91 1.52588e-05
    endloop
  endfacet
  facet normal -0.995186 0.0980008 -1.49311e-07
    outer loop
      vertex 114.85 117.5 10
      vertex 114.81 117.09 1.52588e-05
      vertex 114.81 117.09 10
    endloop
  endfacet
  facet normal -0.995186 0.0980008 -1.49311e-07
    outer loop
      vertex 114.81 117.09 1.52588e-05
      vertex 114.85 117.5 10
      vertex 114.85 117.5 1.52588e-05
    endloop
  endfacet
  facet normal -0.956937 0.290295 -4.43408e-07
    outer loop
      vertex 114.81 117.09 10
      vertex 114.69 116.696 1.52588e-05
      vertex 114.69 116.696 10
    endloop
  endfacet
  facet normal -0.956937 0.290295 -4.43408e-07
    outer loop
      vertex 114.69 116.696 1.52588e-05
      vertex 114.81 117.09 10
      vertex 114.81 117.09 1.52588e-05
    endloop
  endfacet
  facet normal -0.881921 0.471398 -7.18504e-07
    outer loop
      vertex 114.69 116.696 10
      vertex 114.496 116.333 1.52588e-05
      vertex 114.496 116.333 10
    endloop
  endfacet
  facet normal -0.881921 0.471398 -7.18504e-07
    outer loop
      vertex 114.496 116.333 1.52588e-05
      vertex 114.69 116.696 10
      vertex 114.69 116.696 1.52588e-05
    endloop
  endfacet
  facet normal -0.773001 0.634405 -9.68252e-07
    outer loop
      vertex 114.496 116.333 10
      vertex 114.235 116.015 1.52588e-05
      vertex 114.235 116.015 10
    endloop
  endfacet
  facet normal -0.773001 0.634405 -9.68252e-07
    outer loop
      vertex 114.235 116.015 1.52588e-05
      vertex 114.496 116.333 10
      vertex 114.496 116.333 1.52588e-05
    endloop
  endfacet
  facet normal -0.634381 0.773021 7.56439e-07
    outer loop
      vertex 113.917 115.754 10
      vertex 114.235 116.015 1.52588e-05
      vertex 113.917 115.754 1.52588e-05
    endloop
  endfacet
  facet normal -0.634417 0.772991 -1.17949e-06
    outer loop
      vertex 114.235 116.015 1.52588e-05
      vertex 113.917 115.754 10
      vertex 114.235 116.015 10
    endloop
  endfacet
  facet normal -0.471423 0.881907 -1.34568e-06
    outer loop
      vertex 113.554 115.56 10
      vertex 113.917 115.754 1.52588e-05
      vertex 113.554 115.56 1.52588e-05
    endloop
  endfacet
  facet normal -0.471392 0.881924 9.2866e-08
    outer loop
      vertex 113.917 115.754 1.52588e-05
      vertex 113.554 115.56 10
      vertex 113.917 115.754 10
    endloop
  endfacet
  facet normal -0.290283 0.956941 -1.46018e-06
    outer loop
      vertex 113.16 115.44 10
      vertex 113.554 115.56 1.52588e-05
      vertex 113.16 115.44 1.52588e-05
    endloop
  endfacet
  facet normal -0.290283 0.956941 -1.46018e-06
    outer loop
      vertex 113.554 115.56 1.52588e-05
      vertex 113.16 115.44 10
      vertex 113.554 115.56 10
    endloop
  endfacet
  facet normal -0.0980128 0.995185 -1.51853e-06
    outer loop
      vertex 112.75 115.4 10
      vertex 113.16 115.44 1.52588e-05
      vertex 112.75 115.4 1.52588e-05
    endloop
  endfacet
  facet normal -0.0980128 0.995185 -1.51853e-06
    outer loop
      vertex 113.16 115.44 1.52588e-05
      vertex 112.75 115.4 10
      vertex 113.16 115.44 10
    endloop
  endfacet
  facet normal 0.0980128 0.995185 -1.81764e-06
    outer loop
      vertex 112.34 115.44 10
      vertex 112.75 115.4 1.52588e-05
      vertex 112.34 115.44 1.52588e-05
    endloop
  endfacet
  facet normal 0.09802 0.995184 -1.51853e-06
    outer loop
      vertex 112.75 115.4 1.52588e-05
      vertex 112.34 115.44 10
      vertex 112.75 115.4 10
    endloop
  endfacet
  facet normal 0.290303 0.956935 -1.46017e-06
    outer loop
      vertex 111.946 115.56 10
      vertex 112.34 115.44 1.52588e-05
      vertex 111.946 115.56 1.52588e-05
    endloop
  endfacet
  facet normal 0.290283 0.956941 -2.34605e-06
    outer loop
      vertex 112.34 115.44 1.52588e-05
      vertex 111.946 115.56 10
      vertex 112.34 115.44 10
    endloop
  endfacet
  facet normal 0.471392 0.881924 -1.34571e-06
    outer loop
      vertex 111.583 115.754 10
      vertex 111.946 115.56 1.52588e-05
      vertex 111.583 115.754 1.52588e-05
    endloop
  endfacet
  facet normal 0.471392 0.881924 -1.34571e-06
    outer loop
      vertex 111.946 115.56 1.52588e-05
      vertex 111.583 115.754 10
      vertex 111.946 115.56 10
    endloop
  endfacet
  facet normal 0.634381 0.773021 -1.17954e-06
    outer loop
      vertex 111.265 116.015 10
      vertex 111.583 115.754 1.52588e-05
      vertex 111.265 116.015 1.52588e-05
    endloop
  endfacet
  facet normal 0.634381 0.773021 -1.17954e-06
    outer loop
      vertex 111.583 115.754 1.52588e-05
      vertex 111.265 116.015 10
      vertex 111.583 115.754 10
    endloop
  endfacet
  facet normal 0.773001 0.634405 -9.68026e-07
    outer loop
      vertex 111.265 116.015 1.52588e-05
      vertex 111.004 116.333 10
      vertex 111.265 116.015 10
    endloop
  endfacet
  facet normal 0.773001 0.634405 -9.68026e-07
    outer loop
      vertex 111.004 116.333 10
      vertex 111.265 116.015 1.52588e-05
      vertex 111.004 116.333 1.52588e-05
    endloop
  endfacet
  facet normal 0.881951 0.47134 -7.19208e-07
    outer loop
      vertex 111.004 116.333 1.52588e-05
      vertex 110.81 116.696 10
      vertex 111.004 116.333 10
    endloop
  endfacet
  facet normal 0.881921 0.471398 -3.4107e-06
    outer loop
      vertex 110.81 116.696 10
      vertex 111.004 116.333 1.52588e-05
      vertex 110.81 116.696 1.52588e-05
    endloop
  endfacet
  facet normal 0.956937 0.290295 -3.3633e-06
    outer loop
      vertex 110.81 116.696 1.52588e-05
      vertex 110.69 117.09 10
      vertex 110.81 116.696 10
    endloop
  endfacet
  facet normal 0.956937 0.290295 -3.3633e-06
    outer loop
      vertex 110.69 117.09 10
      vertex 110.81 116.696 1.52588e-05
      vertex 110.69 117.09 1.52588e-05
    endloop
  endfacet
  facet normal 0.995179 0.0980742 -3.1867e-06
    outer loop
      vertex 110.69 117.09 1.52588e-05
      vertex 110.65 117.5 10
      vertex 110.69 117.09 10
    endloop
  endfacet
  facet normal 0.995186 0.0980008 -1.49537e-07
    outer loop
      vertex 110.65 117.5 10
      vertex 110.69 117.09 1.52588e-05
      vertex 110.65 117.5 1.52588e-05
    endloop
  endfacet
  facet normal 0.995179 -0.0980747 1.4965e-07
    outer loop
      vertex 110.65 117.5 1.52588e-05
      vertex 110.69 117.91 10
      vertex 110.65 117.5 10
    endloop
  endfacet
  facet normal 0.995186 -0.0980013 -2.88753e-06
    outer loop
      vertex 110.69 117.91 10
      vertex 110.65 117.5 1.52588e-05
      vertex 110.69 117.91 1.52588e-05
    endloop
  endfacet
  facet normal 0.956937 -0.290295 -2.47739e-06
    outer loop
      vertex 110.69 117.91 1.52588e-05
      vertex 110.81 118.304 10
      vertex 110.69 117.91 10
    endloop
  endfacet
  facet normal 0.956937 -0.290295 -2.47739e-06
    outer loop
      vertex 110.81 118.304 10
      vertex 110.69 117.91 1.52588e-05
      vertex 110.81 118.304 1.52588e-05
    endloop
  endfacet
  facet normal 0.881951 -0.47134 -1.97229e-06
    outer loop
      vertex 110.81 118.304 1.52588e-05
      vertex 111.004 118.667 10
      vertex 110.81 118.304 10
    endloop
  endfacet
  facet normal 0.881921 -0.471398 7.19296e-07
    outer loop
      vertex 111.004 118.667 10
      vertex 110.81 118.304 1.52588e-05
      vertex 111.004 118.667 1.52588e-05
    endloop
  endfacet
  facet normal 0.773002 -0.634404 9.68024e-07
    outer loop
      vertex 111.004 118.667 1.52588e-05
      vertex 111.265 118.985 10
      vertex 111.004 118.667 10
    endloop
  endfacet
  facet normal 0.773002 -0.634404 9.68024e-07
    outer loop
      vertex 111.265 118.985 10
      vertex 111.004 118.667 1.52588e-05
      vertex 111.265 118.985 1.52588e-05
    endloop
  endfacet
  facet normal 0.634381 -0.773021 1.17999e-06
    outer loop
      vertex 111.583 119.246 0
      vertex 111.265 118.985 10
      vertex 111.265 118.985 1.52588e-05
    endloop
  endfacet
  facet normal 0.634381 -0.773021 1.17999e-06
    outer loop
      vertex 111.265 118.985 10
      vertex 111.583 119.246 0
      vertex 111.583 119.246 10
    endloop
  endfacet
  facet normal 0.471392 -0.881924 1.3465e-06
    outer loop
      vertex 111.946 119.44 0
      vertex 111.583 119.246 10
      vertex 111.583 119.246 0
    endloop
  endfacet
  facet normal 0.471392 -0.881924 1.3465e-06
    outer loop
      vertex 111.583 119.246 10
      vertex 111.946 119.44 0
      vertex 111.946 119.44 10
    endloop
  endfacet
  facet normal 0.290301 -0.956935 1.46062e-06
    outer loop
      vertex 112.34 119.56 0
      vertex 111.946 119.44 10
      vertex 111.946 119.44 0
    endloop
  endfacet
  facet normal 0.290281 -0.956942 5.74614e-07
    outer loop
      vertex 111.946 119.44 10
      vertex 112.34 119.56 0
      vertex 112.34 119.56 10
    endloop
  endfacet
  facet normal 0.0980151 -0.995185 1.21935e-06
    outer loop
      vertex 112.75 119.6 0
      vertex 112.34 119.56 10
      vertex 112.34 119.56 0
    endloop
  endfacet
  facet normal 0.0980223 -0.995184 1.51853e-06
    outer loop
      vertex 112.34 119.56 10
      vertex 112.75 119.6 0
      vertex 112.75 119.6 10
    endloop
  endfacet
  facet normal -0.0980151 -0.995185 1.51887e-06
    outer loop
      vertex 113.16 119.56 0
      vertex 112.75 119.6 10
      vertex 112.75 119.6 0
    endloop
  endfacet
  facet normal -0.0980151 -0.995185 1.51887e-06
    outer loop
      vertex 112.75 119.6 10
      vertex 113.16 119.56 0
      vertex 113.16 119.56 10
    endloop
  endfacet
  facet normal -0.290281 -0.956942 1.45961e-06
    outer loop
      vertex 113.554 119.44 0
      vertex 113.16 119.56 10
      vertex 113.16 119.56 0
    endloop
  endfacet
  facet normal -0.290281 -0.956942 1.45961e-06
    outer loop
      vertex 113.16 119.56 10
      vertex 113.554 119.44 0
      vertex 113.554 119.44 10
    endloop
  endfacet
  facet normal -0.471423 -0.881907 1.34478e-06
    outer loop
      vertex 113.917 119.246 0
      vertex 113.554 119.44 10
      vertex 113.554 119.44 0
    endloop
  endfacet
  facet normal -0.471392 -0.881924 2.78349e-06
    outer loop
      vertex 113.554 119.44 10
      vertex 113.917 119.246 0
      vertex 113.917 119.246 10
    endloop
  endfacet
  facet normal -0.634381 -0.773021 3.11647e-06
    outer loop
      vertex 114.235 118.985 0
      vertex 113.917 119.246 10
      vertex 113.917 119.246 0
    endloop
  endfacet
  facet normal -0.634417 -0.772991 1.18005e-06
    outer loop
      vertex 113.917 119.246 10
      vertex 114.235 118.985 0
      vertex 114.235 118.985 10
    endloop
  endfacet
  facet normal -0.773002 -0.634404 9.68249e-07
    outer loop
      vertex 114.235 118.985 10
      vertex 114.496 118.667 0
      vertex 114.496 118.667 10
    endloop
  endfacet
  facet normal -0.773002 -0.634404 9.68249e-07
    outer loop
      vertex 114.496 118.667 0
      vertex 114.235 118.985 10
      vertex 114.235 118.985 0
    endloop
  endfacet
  facet normal -0.881921 -0.471398 7.18503e-07
    outer loop
      vertex 114.496 118.667 10
      vertex 114.69 118.304 0
      vertex 114.69 118.304 10
    endloop
  endfacet
  facet normal -0.881921 -0.471398 7.18503e-07
    outer loop
      vertex 114.69 118.304 0
      vertex 114.496 118.667 10
      vertex 114.496 118.667 0
    endloop
  endfacet
  facet normal -0.956937 -0.290295 4.43408e-07
    outer loop
      vertex 114.69 118.304 10
      vertex 114.81 117.91 1.52588e-05
      vertex 114.81 117.91 10
    endloop
  endfacet
  facet normal -0.956937 -0.290295 4.43407e-07
    outer loop
      vertex 114.81 117.91 1.52588e-05
      vertex 114.69 118.304 10
      vertex 114.69 118.304 0
    endloop
  endfacet
  facet normal 1 0 0
    outer loop
      vertex 120.25 112.5 9.00002
      vertex 120.25 122.5 10
      vertex 120.25 112.5 10
    endloop
  endfacet
  facet normal 1 0 0
    outer loop
      vertex 120.25 122.5 10
      vertex 120.25 112.5 9.00002
      vertex 120.25 122.5 9.00002
    endloop
  endfacet
  facet normal 0 0 1
    outer loop
      vertex 128.907 114.722 9.00002
      vertex 124.75 114.45 9.00002
      vertex 128.286 113.965 9.00002
    endloop
  endfacet
  facet normal 0 0 1
    outer loop
      vertex 124.75 114.45 9.00002
      vertex 128.907 114.722 9.00002
      vertex 125.345 114.509 9.00002
    endloop
  endfacet
  facet normal 0 0 1
    outer loop
      vertex 125.345 114.509 9.00002
      vertex 128.907 114.722 9.00002
      vertex 125.917 114.682 9.00002
    endloop
  endfacet
  facet normal 0 0 1
    outer loop
      vertex 125.917 114.682 9.00002
      vertex 128.907 114.722 9.00002
      vertex 126.445 114.964 9.00002
    endloop
  endfacet
  facet normal 0 0 1
    outer loop
      vertex 126.445 114.964 9.00002
      vertex 128.907 114.722 9.00002
      vertex 129.37 115.587 9.00002
    endloop
  endfacet
  facet normal 0 0 1
    outer loop
      vertex 126.445 114.964 9.00002
      vertex 129.37 115.587 9.00002
      vertex 126.907 115.343 9.00002
    endloop
  endfacet
  facet normal 0 0 1
    outer loop
      vertex 126.907 115.343 9.00002
      vertex 129.37 115.587 9.00002
      vertex 127.286 115.806 9.00002
    endloop
  endfacet
  facet normal 0 0 1
    outer loop
      vertex 127.286 115.806 9.00002
      vertex 129.37 115.587 9.00002
      vertex 129.654 116.525 9.00002
    endloop
  endfacet
  facet normal 0 0 1
    outer loop
      vertex 127.286 115.806 9.00002
      vertex 129.654 116.525 9.00002
      vertex 127.568 116.333 9.00002
    endloop
  endfacet
  facet normal 0 0 1
    outer loop
      vertex 127.568 116.333 9.00002
      vertex 129.654 116.525 9.00002
      vertex 127.742 116.905 9.00002
    endloop
  endfacet
  facet normal 0 0 1
    outer loop
      vertex 127.742 116.905 9.00002
      vertex 129.654 116.525 9.00002
      vertex 129.75 117.5 9.00002
    endloop
  endfacet
  facet normal 0 0 1
    outer loop
      vertex 127.742 116.905 9.00002
      vertex 129.75 117.5 9.00002
      vertex 127.8 117.5 9.00002
    endloop
  endfacet
  facet normal 0 0 1
    outer loop
      vertex 127.8 117.5 9.00002
      vertex 129.75 117.5 9.00002
      vertex 129.654 118.475 9.00002
    endloop
  endfacet
  facet normal 0 0 1
    outer loop
      vertex 127.8 117.5 9.00002
      vertex 129.654 118.475 9.00002
      vertex 127.742 118.095 9.00002
    endloop
  endfacet
  facet normal 0 0 1
    outer loop
      vertex 127.742 118.095 9.00002
      vertex 129.654 118.475 9.00002
      vertex 127.568 118.667 9.00002
    endloop
  endfacet
  facet normal 0 0 1
    outer loop
      vertex 127.568 118.667 9.00002
      vertex 129.654 118.475 9.00002
      vertex 129.37 119.413 9.00002
    endloop
  endfacet
  facet normal 0 0 1
    outer loop
      vertex 127.568 118.667 9.00002
      vertex 129.37 119.413 9.00002
      vertex 127.286 119.195 9.00002
    endloop
  endfacet
  facet normal 0 0 1
    outer loop
      vertex 127.286 119.195 9.00002
      vertex 129.37 119.413 9.00002
      vertex 126.907 119.657 9.00002
    endloop
  endfacet
  facet normal 0 0 1
    outer loop
      vertex 126.907 119.657 9.00002
      vertex 129.37 119.413 9.00002
      vertex 128.907 120.278 9.00002
    endloop
  endfacet
  facet normal 0 0 1
    outer loop
      vertex 126.907 119.657 9.00002
      vertex 128.907 120.278 9.00002
      vertex 126.445 120.036 9.00002
    endloop
  endfacet
  facet normal 0 0 1
    outer loop
      vertex 126.445 120.036 9.00002
      vertex 128.907 120.278 9.00002
      vertex 125.917 120.318 9.00002
    endloop
  endfacet
  facet normal 0 0 1
    outer loop
      vertex 125.917 120.318 9.00002
      vertex 128.907 120.278 9.00002
      vertex 128.286 121.036 9.00002
    endloop
  endfacet
  facet normal 0 0 1
    outer loop
      vertex 125.917 120.318 9.00002
      vertex 128.286 121.036 9.00002
      vertex 125.345 120.491 9.00002
    endloop
  endfacet
  facet normal 0 0 1
    outer loop
      vertex 125.345 120.491 9.00002
      vertex 128.286 121.036 9.00002
      vertex 124.75 120.55 9.00002
    endloop
  endfacet
  facet normal 0 0 1
    outer loop
      vertex 125.726 112.596 9.00002
      vertex 120.25 112.5 9.00002
      vertex 124.75 112.5 9.00002
    endloop
  endfacet
  facet normal 0 0 1
    outer loop
      vertex 120.25 112.5 9.00002
      vertex 125.726 112.596 9.00002
      vertex 122.593 115.343 9.00002
    endloop
  endfacet
  facet normal 0 0 1
    outer loop
      vertex 120.25 112.5 9.00002
      vertex 122.593 115.343 9.00002
      vertex 122.214 115.806 9.00002
    endloop
  endfacet
  facet normal 0 0 1
    outer loop
      vertex 120.25 112.5 9.00002
      vertex 122.214 115.806 9.00002
      vertex 121.932 116.333 9.00002
    endloop
  endfacet
  facet normal 0 0 1
    outer loop
      vertex 120.25 112.5 9.00002
      vertex 121.932 116.333 9.00002
      vertex 121.759 116.905 9.00002
    endloop
  endfacet
  facet normal 0 0 1
    outer loop
      vertex 120.25 112.5 9.00002
      vertex 121.759 116.905 9.00002
      vertex 120.25 122.5 9.00002
    endloop
  endfacet
  facet normal 0 0 1
    outer loop
      vertex 122.593 115.343 9.00002
      vertex 125.726 112.596 9.00002
      vertex 123.056 114.964 9.00002
    endloop
  endfacet
  facet normal 0 0 1
    outer loop
      vertex 123.056 114.964 9.00002
      vertex 125.726 112.596 9.00002
      vertex 126.664 112.881 9.00002
    endloop
  endfacet
  facet normal 0 0 1
    outer loop
      vertex 123.056 114.964 9.00002
      vertex 126.664 112.881 9.00002
      vertex 123.583 114.682 9.00002
    endloop
  endfacet
  facet normal 0 0 1
    outer loop
      vertex 123.583 114.682 9.00002
      vertex 126.664 112.881 9.00002
      vertex 127.528 113.343 9.00002
    endloop
  endfacet
  facet normal 0 0 1
    outer loop
      vertex 123.583 114.682 9.00002
      vertex 127.528 113.343 9.00002
      vertex 124.155 114.509 9.00002
    endloop
  endfacet
  facet normal 0 0 1
    outer loop
      vertex 124.155 114.509 9.00002
      vertex 127.528 113.343 9.00002
      vertex 128.286 113.965 9.00002
    endloop
  endfacet
  facet normal 0 0 1
    outer loop
      vertex 124.155 114.509 9.00002
      vertex 128.286 113.965 9.00002
      vertex 124.75 114.45 9.00002
    endloop
  endfacet
  facet normal 0 0 1
    outer loop
      vertex 120.25 122.5 9.00002
      vertex 121.759 116.905 9.00002
      vertex 121.7 117.5 9.00002
    endloop
  endfacet
  facet normal 0 0 1
    outer loop
      vertex 120.25 122.5 9.00002
      vertex 121.7 117.5 9.00002
      vertex 121.759 118.095 9.00002
    endloop
  endfacet
  facet normal 0 0 1
    outer loop
      vertex 120.25 122.5 9.00002
      vertex 121.759 118.095 9.00002
      vertex 121.932 118.667 9.00002
    endloop
  endfacet
  facet normal 0 0 1
    outer loop
      vertex 120.25 122.5 9.00002
      vertex 121.932 118.667 9.00002
      vertex 122.214 119.195 9.00002
    endloop
  endfacet
  facet normal 0 0 1
    outer loop
      vertex 120.25 122.5 9.00002
      vertex 122.214 119.195 9.00002
      vertex 122.593 119.657 9.00002
    endloop
  endfacet
  facet normal 0 0 1
    outer loop
      vertex 120.25 122.5 9.00002
      vertex 122.593 119.657 9.00002
      vertex 123.056 120.036 9.00002
    endloop
  endfacet
  facet normal 0 0 1
    outer loop
      vertex 120.25 122.5 9.00002
      vertex 123.056 120.036 9.00002
      vertex 123.583 120.318 9.00002
    endloop
  endfacet
  facet normal 0 0 1
    outer loop
      vertex 120.25 122.5 9.00002
      vertex 123.583 120.318 9.00002
      vertex 124.155 120.491 9.00002
    endloop
  endfacet
  facet normal 0 0 1
    outer loop
      vertex 120.25 122.5 9.00002
      vertex 124.155 120.491 9.00002
      vertex 124.75 120.55 9.00002
    endloop
  endfacet
  facet normal 0 0 1
    outer loop
      vertex 120.25 122.5 9.00002
      vertex 124.75 120.55 9.00002
      vertex 128.286 121.036 9.00002
    endloop
  endfacet
  facet normal 0 0 1
    outer loop
      vertex 120.25 122.5 9.00002
      vertex 128.286 121.036 9.00002
      vertex 127.528 121.657 9.00002
    endloop
  endfacet
  facet normal 0 0 1
    outer loop
      vertex 120.25 122.5 9.00002
      vertex 127.528 121.657 9.00002
      vertex 126.664 122.119 9.00002
    endloop
  endfacet
  facet normal 0 0 1
    outer loop
      vertex 120.25 122.5 9.00002
      vertex 126.664 122.119 9.00002
      vertex 125.726 122.404 9.00002
    endloop
  endfacet
  facet normal 0 0 1
    outer loop
      vertex 120.25 122.5 9.00002
      vertex 125.726 122.404 9.00002
      vertex 124.75 122.5 9.00002
    endloop
  endfacet
  facet normal 0 0 1
    outer loop
      vertex 125.345 114.509 2.00002
      vertex 124.155 114.509 2.00002
      vertex 124.75 114.45 2.00002
    endloop
  endfacet
  facet normal 0 0 1
    outer loop
      vertex 124.155 114.509 2.00002
      vertex 125.345 114.509 2.00002
      vertex 125.917 114.682 2.00002
    endloop
  endfacet
  facet normal 0 0 1
    outer loop
      vertex 124.155 114.509 2.00002
      vertex 125.917 114.682 2.00002
      vertex 123.583 114.682 2.00002
    endloop
  endfacet
  facet normal 0 0 1
    outer loop
      vertex 123.583 114.682 2.00002
      vertex 125.917 114.682 2.00002
      vertex 123.056 114.964 2.00002
    endloop
  endfacet
  facet normal 0 0 1
    outer loop
      vertex 123.056 114.964 2.00002
      vertex 125.917 114.682 2.00002
      vertex 126.445 114.964 2.00002
    endloop
  endfacet
  facet normal 0 0 1
    outer loop
      vertex 123.056 114.964 2.00002
      vertex 126.445 114.964 2.00002
      vertex 126.907 115.343 2.00002
    endloop
  endfacet
  facet normal 0 0 1
    outer loop
      vertex 123.056 114.964 2.00002
      vertex 126.907 115.343 2.00002
      vertex 122.593 115.343 2.00002
    endloop
  endfacet
  facet normal 0 0 1
    outer loop
      vertex 122.593 115.343 2.00002
      vertex 126.907 115.343 2.00002
      vertex 127.286 115.806 2.00002
    endloop
  endfacet
  facet normal 0 0 1
    outer loop
      vertex 122.593 115.343 2.00002
      vertex 127.286 115.806 2.00002
      vertex 122.214 115.806 2.00002
    endloop
  endfacet
  facet normal 0 0 1
    outer loop
      vertex 122.214 115.806 2.00002
      vertex 127.286 115.806 2.00002
      vertex 127.568 116.333 2.00002
    endloop
  endfacet
  facet normal 0 0 1
    outer loop
      vertex 122.214 115.806 2.00002
      vertex 127.568 116.333 2.00002
      vertex 121.932 116.333 2.00002
    endloop
  endfacet
  facet normal 0 0 1
    outer loop
      vertex 121.932 116.333 2.00002
      vertex 127.568 116.333 2.00002
      vertex 127.742 116.905 2.00002
    endloop
  endfacet
  facet normal 0 0 1
    outer loop
      vertex 121.932 116.333 2.00002
      vertex 127.742 116.905 2.00002
      vertex 121.759 116.905 2.00002
    endloop
  endfacet
  facet normal 0 0 1
    outer loop
      vertex 121.759 116.905 2.00002
      vertex 127.742 116.905 2.00002
      vertex 127.8 117.5 2.00002
    endloop
  endfacet
  facet normal 0 0 1
    outer loop
      vertex 121.759 116.905 2.00002
      vertex 127.8 117.5 2.00002
      vertex 121.7 117.5 2.00002
    endloop
  endfacet
  facet normal 0 0 1
    outer loop
      vertex 121.7 117.5 2.00002
      vertex 127.8 117.5 2.00002
      vertex 127.742 118.095 2.00002
    endloop
  endfacet
  facet normal 0 0 1
    outer loop
      vertex 121.7 117.5 2.00002
      vertex 127.742 118.095 2.00002
      vertex 121.759 118.095 2.00002
    endloop
  endfacet
  facet normal 0 0 1
    outer loop
      vertex 121.759 118.095 2.00002
      vertex 127.742 118.095 2.00002
      vertex 127.568 118.667 2.00002
    endloop
  endfacet
  facet normal 0 0 1
    outer loop
      vertex 121.759 118.095 2.00002
      vertex 127.568 118.667 2.00002
      vertex 121.932 118.667 2.00002
    endloop
  endfacet
  facet normal 0 0 1
    outer loop
      vertex 121.932 118.667 2.00002
      vertex 127.568 118.667 2.00002
      vertex 122.214 119.195 2.00002
    endloop
  endfacet
  facet normal 0 0 1
    outer loop
      vertex 122.214 119.195 2.00002
      vertex 127.568 118.667 2.00002
      vertex 127.286 119.195 2.00002
    endloop
  endfacet
  facet normal 0 0 1
    outer loop
      vertex 122.214 119.195 2.00002
      vertex 127.286 119.195 2.00002
      vertex 126.907 119.657 2.00002
    endloop
  endfacet
  facet normal 0 0 1
    outer loop
      vertex 122.214 119.195 2.00002
      vertex 126.907 119.657 2.00002
      vertex 122.593 119.657 2.00002
    endloop
  endfacet
  facet normal 0 0 1
    outer loop
      vertex 122.593 119.657 2.00002
      vertex 126.907 119.657 2.00002
      vertex 126.445 120.036 2.00002
    endloop
  endfacet
  facet normal 0 0 1
    outer loop
      vertex 122.593 119.657 2.00002
      vertex 126.445 120.036 2.00002
      vertex 123.056 120.036 2.00002
    endloop
  endfacet
  facet normal 0 0 1
    outer loop
      vertex 123.056 120.036 2.00002
      vertex 126.445 120.036 2.00002
      vertex 125.917 120.318 2.00002
    endloop
  endfacet
  facet normal 0 0 1
    outer loop
      vertex 123.056 120.036 2.00002
      vertex 125.917 120.318 2.00002
      vertex 123.583 120.318 2.00002
    endloop
  endfacet
  facet normal 0 0 1
    outer loop
      vertex 123.583 120.318 2.00002
      vertex 125.917 120.318 2.00002
      vertex 125.345 120.491 2.00002
    endloop
  endfacet
  facet normal 0 0 1
    outer loop
      vertex 123.583 120.318 2.00002
      vertex 125.345 120.491 2.00002
      vertex 124.155 120.491 2.00002
    endloop
  endfacet
  facet normal 0 0 1
    outer loop
      vertex 124.155 120.491 2.00002
      vertex 125.345 120.491 2.00002
      vertex 124.75 120.55 2.00002
    endloop
  endfacet
  facet normal 0.471392 0.881924 0
    outer loop
      vertex 123.583 114.682 9.00002
      vertex 123.056 114.964 2.00002
      vertex 123.056 114.964 9.00002
    endloop
  endfacet
  facet normal 0.471392 0.881924 0
    outer loop
      vertex 123.056 114.964 2.00002
      vertex 123.583 114.682 9.00002
      vertex 123.583 114.682 2.00002
    endloop
  endfacet
  facet normal 0.29029 0.956939 0
    outer loop
      vertex 124.155 114.509 9.00002
      vertex 123.583 114.682 2.00002
      vertex 123.583 114.682 9.00002
    endloop
  endfacet
  facet normal 0.29029 0.956939 0
    outer loop
      vertex 123.583 114.682 2.00002
      vertex 124.155 114.509 9.00002
      vertex 124.155 114.509 2.00002
    endloop
  endfacet
  facet normal 0.0980166 0.995185 0
    outer loop
      vertex 124.75 114.45 9.00002
      vertex 124.155 114.509 2.00002
      vertex 124.155 114.509 9.00002
    endloop
  endfacet
  facet normal 0.0980166 0.995185 0
    outer loop
      vertex 124.155 114.509 2.00002
      vertex 124.75 114.45 9.00002
      vertex 124.75 114.45 2.00002
    endloop
  endfacet
  facet normal -0.0980166 0.995185 0
    outer loop
      vertex 125.345 114.509 9.00002
      vertex 124.75 114.45 2.00002
      vertex 124.75 114.45 9.00002
    endloop
  endfacet
  facet normal -0.0980166 0.995185 0
    outer loop
      vertex 124.75 114.45 2.00002
      vertex 125.345 114.509 9.00002
      vertex 125.345 114.509 2.00002
    endloop
  endfacet
  facet normal -0.29029 0.956939 0
    outer loop
      vertex 125.917 114.682 9.00002
      vertex 125.345 114.509 2.00002
      vertex 125.345 114.509 9.00002
    endloop
  endfacet
  facet normal -0.29029 0.956939 0
    outer loop
      vertex 125.345 114.509 2.00002
      vertex 125.917 114.682 9.00002
      vertex 125.917 114.682 2.00002
    endloop
  endfacet
  facet normal -0.471392 0.881924 0
    outer loop
      vertex 126.445 114.964 9.00002
      vertex 125.917 114.682 2.00002
      vertex 125.917 114.682 9.00002
    endloop
  endfacet
  facet normal -0.471392 0.881924 0
    outer loop
      vertex 125.917 114.682 2.00002
      vertex 126.445 114.964 9.00002
      vertex 126.445 114.964 2.00002
    endloop
  endfacet
  facet normal -0.634392 0.773012 0
    outer loop
      vertex 126.907 115.343 9.00002
      vertex 126.445 114.964 2.00002
      vertex 126.445 114.964 9.00002
    endloop
  endfacet
  facet normal -0.634392 0.773012 0
    outer loop
      vertex 126.445 114.964 2.00002
      vertex 126.907 115.343 9.00002
      vertex 126.907 115.343 2.00002
    endloop
  endfacet
  facet normal -0.773014 0.634389 0
    outer loop
      vertex 127.286 115.806 2.00002
      vertex 126.907 115.343 9.00002
      vertex 127.286 115.806 9.00002
    endloop
  endfacet
  facet normal -0.773014 0.634389 0
    outer loop
      vertex 126.907 115.343 9.00002
      vertex 127.286 115.806 2.00002
      vertex 126.907 115.343 2.00002
    endloop
  endfacet
  facet normal -0.881914 0.471411 0
    outer loop
      vertex 127.568 116.333 2.00002
      vertex 127.286 115.806 9.00002
      vertex 127.568 116.333 9.00002
    endloop
  endfacet
  facet normal -0.881914 0.471411 0
    outer loop
      vertex 127.286 115.806 9.00002
      vertex 127.568 116.333 2.00002
      vertex 127.286 115.806 2.00002
    endloop
  endfacet
  facet normal -0.956945 0.290271 0
    outer loop
      vertex 127.742 116.905 2.00002
      vertex 127.568 116.333 9.00002
      vertex 127.742 116.905 9.00002
    endloop
  endfacet
  facet normal -0.956945 0.290271 0
    outer loop
      vertex 127.568 116.333 9.00002
      vertex 127.742 116.905 2.00002
      vertex 127.568 116.333 2.00002
    endloop
  endfacet
  facet normal -0.995187 0.0979986 0
    outer loop
      vertex 127.8 117.5 2.00002
      vertex 127.742 116.905 9.00002
      vertex 127.8 117.5 9.00002
    endloop
  endfacet
  facet normal -0.995187 0.0979986 0
    outer loop
      vertex 127.742 116.905 9.00002
      vertex 127.8 117.5 2.00002
      vertex 127.742 116.905 2.00002
    endloop
  endfacet
  facet normal -0.995187 -0.0979986 0
    outer loop
      vertex 127.742 118.095 2.00002
      vertex 127.8 117.5 9.00002
      vertex 127.742 118.095 9.00002
    endloop
  endfacet
  facet normal -0.995187 -0.0979986 0
    outer loop
      vertex 127.8 117.5 9.00002
      vertex 127.742 118.095 2.00002
      vertex 127.8 117.5 2.00002
    endloop
  endfacet
  facet normal -0.956945 -0.290271 0
    outer loop
      vertex 127.568 118.667 2.00002
      vertex 127.742 118.095 9.00002
      vertex 127.568 118.667 9.00002
    endloop
  endfacet
  facet normal -0.956945 -0.290271 0
    outer loop
      vertex 127.742 118.095 9.00002
      vertex 127.568 118.667 2.00002
      vertex 127.742 118.095 2.00002
    endloop
  endfacet
  facet normal -0.881914 -0.47141 0
    outer loop
      vertex 127.286 119.195 2.00002
      vertex 127.568 118.667 9.00002
      vertex 127.286 119.195 9.00002
    endloop
  endfacet
  facet normal -0.881914 -0.47141 0
    outer loop
      vertex 127.568 118.667 9.00002
      vertex 127.286 119.195 2.00002
      vertex 127.568 118.667 2.00002
    endloop
  endfacet
  facet normal -0.773014 -0.634389 0
    outer loop
      vertex 126.907 119.657 2.00002
      vertex 127.286 119.195 9.00002
      vertex 126.907 119.657 9.00002
    endloop
  endfacet
  facet normal -0.773014 -0.634389 0
    outer loop
      vertex 127.286 119.195 9.00002
      vertex 126.907 119.657 2.00002
      vertex 127.286 119.195 2.00002
    endloop
  endfacet
  facet normal -0.634391 -0.773013 0
    outer loop
      vertex 126.907 119.657 2.00002
      vertex 126.445 120.036 9.00002
      vertex 126.445 120.036 2.00002
    endloop
  endfacet
  facet normal -0.634391 -0.773013 0
    outer loop
      vertex 126.445 120.036 9.00002
      vertex 126.907 119.657 2.00002
      vertex 126.907 119.657 9.00002
    endloop
  endfacet
  facet normal -0.471392 -0.881924 0
    outer loop
      vertex 126.445 120.036 2.00002
      vertex 125.917 120.318 9.00002
      vertex 125.917 120.318 2.00002
    endloop
  endfacet
  facet normal -0.471392 -0.881924 0
    outer loop
      vertex 125.917 120.318 9.00002
      vertex 126.445 120.036 2.00002
      vertex 126.445 120.036 9.00002
    endloop
  endfacet
  facet normal -0.290291 -0.956938 0
    outer loop
      vertex 125.917 120.318 2.00002
      vertex 125.345 120.491 9.00002
      vertex 125.345 120.491 2.00002
    endloop
  endfacet
  facet normal -0.290291 -0.956938 0
    outer loop
      vertex 125.345 120.491 9.00002
      vertex 125.917 120.318 2.00002
      vertex 125.917 120.318 9.00002
    endloop
  endfacet
  facet normal -0.0980166 -0.995185 0
    outer loop
      vertex 125.345 120.491 2.00002
      vertex 124.75 120.55 9.00002
      vertex 124.75 120.55 2.00002
    endloop
  endfacet
  facet normal -0.0980166 -0.995185 0
    outer loop
      vertex 124.75 120.55 9.00002
      vertex 125.345 120.491 2.00002
      vertex 125.345 120.491 9.00002
    endloop
  endfacet
  facet normal 0.0980166 -0.995185 0
    outer loop
      vertex 124.75 120.55 2.00002
      vertex 124.155 120.491 9.00002
      vertex 124.155 120.491 2.00002
    endloop
  endfacet
  facet normal 0.0980166 -0.995185 0
    outer loop
      vertex 124.155 120.491 9.00002
      vertex 124.75 120.55 2.00002
      vertex 124.75 120.55 9.00002
    endloop
  endfacet
  facet normal 0.290291 -0.956938 0
    outer loop
      vertex 124.155 120.491 2.00002
      vertex 123.583 120.318 9.00002
      vertex 123.583 120.318 2.00002
    endloop
  endfacet
  facet normal 0.290291 -0.956938 0
    outer loop
      vertex 123.583 120.318 9.00002
      vertex 124.155 120.491 2.00002
      vertex 124.155 120.491 9.00002
    endloop
  endfacet
  facet normal 0.471392 -0.881924 0
    outer loop
      vertex 123.583 120.318 2.00002
      vertex 123.056 120.036 9.00002
      vertex 123.056 120.036 2.00002
    endloop
  endfacet
  facet normal 0.471392 -0.881924 0
    outer loop
      vertex 123.056 120.036 9.00002
      vertex 123.583 120.318 2.00002
      vertex 123.583 120.318 9.00002
    endloop
  endfacet
  facet normal 0.634391 -0.773013 0
    outer loop
      vertex 123.056 120.036 2.00002
      vertex 122.593 119.657 9.00002
      vertex 122.593 119.657 2.00002
    endloop
  endfacet
  facet normal 0.634391 -0.773013 0
    outer loop
      vertex 122.593 119.657 9.00002
      vertex 123.056 120.036 2.00002
      vertex 123.056 120.036 9.00002
    endloop
  endfacet
  facet normal 0.773014 -0.634389 0
    outer loop
      vertex 122.214 119.195 2.00002
      vertex 122.593 119.657 9.00002
      vertex 122.214 119.195 9.00002
    endloop
  endfacet
  facet normal 0.773014 -0.634389 0
    outer loop
      vertex 122.593 119.657 9.00002
      vertex 122.214 119.195 2.00002
      vertex 122.593 119.657 2.00002
    endloop
  endfacet
  facet normal 0.881914 -0.47141 0
    outer loop
      vertex 121.932 118.667 2.00002
      vertex 122.214 119.195 9.00002
      vertex 121.932 118.667 9.00002
    endloop
  endfacet
  facet normal 0.881914 -0.47141 0
    outer loop
      vertex 122.214 119.195 9.00002
      vertex 121.932 118.667 2.00002
      vertex 122.214 119.195 2.00002
    endloop
  endfacet
  facet normal 0.956945 -0.290271 0
    outer loop
      vertex 121.759 118.095 2.00002
      vertex 121.932 118.667 9.00002
      vertex 121.759 118.095 9.00002
    endloop
  endfacet
  facet normal 0.956945 -0.290271 0
    outer loop
      vertex 121.932 118.667 9.00002
      vertex 121.759 118.095 2.00002
      vertex 121.932 118.667 2.00002
    endloop
  endfacet
  facet normal 0.995182 -0.0980491 0
    outer loop
      vertex 121.7 117.5 2.00002
      vertex 121.759 118.095 9.00002
      vertex 121.7 117.5 9.00002
    endloop
  endfacet
  facet normal 0.995182 -0.0980491 0
    outer loop
      vertex 121.759 118.095 9.00002
      vertex 121.7 117.5 2.00002
      vertex 121.759 118.095 2.00002
    endloop
  endfacet
  facet normal 0.995182 0.0980491 0
    outer loop
      vertex 121.759 116.905 2.00002
      vertex 121.7 117.5 9.00002
      vertex 121.759 116.905 9.00002
    endloop
  endfacet
  facet normal 0.995182 0.0980491 0
    outer loop
      vertex 121.7 117.5 9.00002
      vertex 121.759 116.905 2.00002
      vertex 121.7 117.5 2.00002
    endloop
  endfacet
  facet normal 0.956945 0.290271 0
    outer loop
      vertex 121.932 116.333 2.00002
      vertex 121.759 116.905 9.00002
      vertex 121.932 116.333 9.00002
    endloop
  endfacet
  facet normal 0.956945 0.290271 0
    outer loop
      vertex 121.759 116.905 9.00002
      vertex 121.932 116.333 2.00002
      vertex 121.759 116.905 2.00002
    endloop
  endfacet
  facet normal 0.881914 0.471411 0
    outer loop
      vertex 122.214 115.806 2.00002
      vertex 121.932 116.333 9.00002
      vertex 122.214 115.806 9.00002
    endloop
  endfacet
  facet normal 0.881914 0.471411 0
    outer loop
      vertex 121.932 116.333 9.00002
      vertex 122.214 115.806 2.00002
      vertex 121.932 116.333 2.00002
    endloop
  endfacet
  facet normal 0.773014 0.634389 0
    outer loop
      vertex 122.593 115.343 2.00002
      vertex 122.214 115.806 9.00002
      vertex 122.593 115.343 9.00002
    endloop
  endfacet
  facet normal 0.773014 0.634389 0
    outer loop
      vertex 122.214 115.806 9.00002
      vertex 122.593 115.343 2.00002
      vertex 122.214 115.806 2.00002
    endloop
  endfacet
  facet normal 0.634392 0.773012 0
    outer loop
      vertex 123.056 114.964 9.00002
      vertex 122.593 115.343 2.00002
      vertex 122.593 115.343 9.00002
    endloop
  endfacet
  facet normal 0.634392 0.773012 0
    outer loop
      vertex 122.593 115.343 2.00002
      vertex 123.056 114.964 9.00002
      vertex 123.056 114.964 2.00002
    endloop
  endfacet
endsolid Ball Detent Housing.stl
