solid Case Feeder Alternate
facet normal -0.8816701857491707 -7.635802536649064e-05 -0.47186616506216594
  outer loop
    vertex 188.3164063639498 14.522127475579714 234.9720787863315
    vertex 192.13240073746218 -23.106792404971984 227.84807858978246
    vertex 188.3214756178601 -23.10679240499754 234.97478496759123
  endloop
endfacet
facet normal -0.8816701857491707 -7.635802536649064e-05 -0.47186616506216594
  outer loop
    vertex 192.13240073746218 -23.106792404971984 227.84807858978246
    vertex 188.3164063639498 14.522127475579714 234.9720787863315
    vertex 192.13240062664514 14.522124423821891 227.84807842774998
  endloop
endfacet
facet normal 5.848253403030469e-08 0.999999999999994 -9.33446772365217e-08
  outer loop
    vertex 198.98276873842812 -20.47787592417829 230.17590404804298
    vertex 199.56803970447652 -20.477875958406415 230.17590404804304
    vertex 199.27540422145233 -20.477875943982742 230.14708196864785
  endloop
endfacet
facet normal 5.848253403030469e-08 0.999999999999994 -9.33446772365217e-08
  outer loop
    vertex 199.56803970447652 -20.477875958406415 230.17590404804304
    vertex 198.98276873842812 -20.47787592417829 230.17590404804298
    vertex 198.7013790729047 -20.477875899754135 230.2612626698809
  endloop
endfacet
facet normal 5.848253403030469e-08 0.999999999999994 -9.33446772365217e-08
  outer loop
    vertex 199.56803970447652 -20.477875958406415 230.17590404804304
    vertex 198.7013790729047 -20.477875899754135 230.2612626698809
    vertex 199.84942936999997 -20.477875966895024 230.26126266988095
  endloop
endfacet
facet normal 5.848253403030469e-08 0.999999999999994 -9.33446772365217e-08
  outer loop
    vertex 199.84942936999997 -20.477875966895024 230.26126266988095
    vertex 198.7013790729047 -20.477875899754135 230.2612626698809
    vertex 198.44204887192294 -20.477875871648884 230.39987755019405
  endloop
endfacet
facet normal 5.848253403030469e-08 0.999999999999994 -9.33446772365217e-08
  outer loop
    vertex 199.84942936999997 -20.477875966895024 230.26126266988095
    vertex 198.44204887192294 -20.477875871648884 230.39987755019405
    vertex 200.1087595709817 -20.47787596912235 230.39987755019405
  endloop
endfacet
facet normal 5.848253403030469e-08 0.999999999999994 -9.33446772365217e-08
  outer loop
    vertex 200.1087595709817 -20.47787596912235 230.39987755019405
    vertex 198.44204887192294 -20.477875871648884 230.39987755019405
    vertex 198.21474404967253 -20.477875840942612 230.58642179686802
  endloop
endfacet
facet normal 5.848253403030469e-08 0.999999999999994 -9.33446772365217e-08
  outer loop
    vertex 200.1087595709817 -20.47787596912235 230.39987755019405
    vertex 198.21474404967253 -20.477875840942612 230.58642179686802
    vertex 200.33606439323214 -20.4778759650028 230.58642179686802
  endloop
endfacet
facet normal 5.848253403030469e-08 0.999999999999994 -9.33446772365217e-08
  outer loop
    vertex 200.33606439323214 -20.4778759650028 230.58642179686802
    vertex 198.21474404967253 -20.477875840942612 230.58642179686802
    vertex 198.02819980299853 -20.477875808815334 230.81372661911843
  endloop
endfacet
facet normal 5.848253403030469e-08 0.999999999999994 -9.33446772365217e-08
  outer loop
    vertex 200.33606439323214 -20.4778759650028 230.58642179686802
    vertex 198.02819980299853 -20.477875808815334 230.81372661911843
    vertex 200.5226086399061 -20.477875954694685 230.81372661911846
  endloop
endfacet
facet normal 5.848253403030469e-08 0.999999999999994 -9.33446772365217e-08
  outer loop
    vertex 200.5226086399061 -20.477875954694685 230.81372661911846
    vertex 198.02819980299853 -20.477875808815334 230.81372661911843
    vertex 197.88958492268543 -20.47787577650169 231.0730568201002
  endloop
endfacet
facet normal 5.848253403030469e-08 0.999999999999994 -9.33446772365217e-08
  outer loop
    vertex 200.5226086399061 -20.477875954694685 230.81372661911846
    vertex 197.88958492268543 -20.47787577650169 231.0730568201002
    vertex 200.66122352021924 -20.47787593859414 231.0730568201002
  endloop
endfacet
facet normal 5.848253403030469e-08 0.999999999999994 -9.33446772365217e-08
  outer loop
    vertex 200.66122352021924 -20.47787593859414 231.0730568201002
    vertex 197.88958492268543 -20.47787577650169 231.0730568201002
    vertex 197.8042263008475 -20.477875745243477 231.35444648562364
  endloop
endfacet
facet normal 5.848253403030469e-08 0.999999999999994 -9.33446772365217e-08
  outer loop
    vertex 200.66122352021924 -20.47787593859414 231.0730568201002
    vertex 197.8042263008475 -20.477875745243477 231.35444648562364
    vertex 200.74658214205715 -20.4778759173199 231.35444648562364
  endloop
endfacet
facet normal 5.848253403030469e-08 0.999999999999994 -9.33446772365217e-08
  outer loop
    vertex 200.74658214205715 -20.4778759173199 231.35444648562364
    vertex 197.8042263008475 -20.477875745243477 231.35444648562364
    vertex 197.77540422145236 -20.477875716241922 231.64708196864783
  endloop
endfacet
facet normal 5.848253403030469e-08 0.999999999999994 -9.33446772365217e-08
  outer loop
    vertex 200.74658214205715 -20.4778759173199 231.35444648562364
    vertex 197.77540422145236 -20.477875716241922 231.64708196864783
    vertex 200.7754042214523 -20.477875891689525 231.64708196864783
  endloop
endfacet
facet normal 5.848253403030469e-08 0.999999999999994 -9.33446772365217e-08
  outer loop
    vertex 200.7754042214523 -20.477875891689525 231.64708196864783
    vertex 197.77540422145236 -20.477875716241922 231.64708196864783
    vertex 197.8042263008475 -20.477875690611548 231.939717451672
  endloop
endfacet
facet normal 5.848253403030469e-08 0.999999999999994 -9.33446772365217e-08
  outer loop
    vertex 200.7754042214523 -20.477875891689525 231.64708196864783
    vertex 197.8042263008475 -20.477875690611548 231.939717451672
    vertex 200.74658214205715 -20.47787586268797 231.939717451672
  endloop
endfacet
facet normal 5.848253403030469e-08 0.999999999999994 -9.33446772365217e-08
  outer loop
    vertex 200.74658214205715 -20.47787586268797 231.939717451672
    vertex 197.8042263008475 -20.477875690611548 231.939717451672
    vertex 197.88958492268543 -20.47787566933731 232.22110711719546
  endloop
endfacet
facet normal 5.848253403030469e-08 0.999999999999994 -9.33446772365217e-08
  outer loop
    vertex 200.74658214205715 -20.47787586268797 231.939717451672
    vertex 197.88958492268543 -20.47787566933731 232.22110711719546
    vertex 200.66122352021924 -20.477875831429756 232.22110711719546
  endloop
endfacet
facet normal 5.848253403030469e-08 0.999999999999994 -9.33446772365217e-08
  outer loop
    vertex 200.66122352021924 -20.477875831429756 232.22110711719546
    vertex 197.88958492268543 -20.47787566933731 232.22110711719546
    vertex 198.02819980299853 -20.47787565323676 232.4804373181772
  endloop
endfacet
facet normal 5.848253403030469e-08 0.999999999999994 -9.33446772365217e-08
  outer loop
    vertex 200.66122352021924 -20.477875831429756 232.22110711719546
    vertex 198.02819980299853 -20.47787565323676 232.4804373181772
    vertex 200.5226086399061 -20.477875799116113 232.48043731817725
  endloop
endfacet
facet normal 5.848253403030469e-08 0.999999999999994 -9.33446772365217e-08
  outer loop
    vertex 200.5226086399061 -20.477875799116113 232.48043731817725
    vertex 198.02819980299853 -20.47787565323676 232.4804373181772
    vertex 198.21474404967253 -20.477875642928648 232.70774214042763
  endloop
endfacet
facet normal 5.848253403030469e-08 0.999999999999994 -9.33446772365217e-08
  outer loop
    vertex 200.5226086399061 -20.477875799116113 232.48043731817725
    vertex 198.21474404967253 -20.477875642928648 232.70774214042763
    vertex 200.33606439323214 -20.477875766988838 232.70774214042763
  endloop
endfacet
facet normal 5.848253403030469e-08 0.999999999999994 -9.33446772365217e-08
  outer loop
    vertex 200.33606439323214 -20.477875766988838 232.70774214042763
    vertex 198.21474404967253 -20.477875642928648 232.70774214042763
    vertex 198.44204887192294 -20.4778756388091 232.89428638710163
  endloop
endfacet
facet normal 5.848253403030469e-08 0.999999999999994 -9.33446772365217e-08
  outer loop
    vertex 200.33606439323214 -20.477875766988838 232.70774214042763
    vertex 198.44204887192294 -20.4778756388091 232.89428638710163
    vertex 200.1087595709817 -20.477875736282563 232.89428638710163
  endloop
endfacet
facet normal 5.848253403030469e-08 0.999999999999994 -9.33446772365217e-08
  outer loop
    vertex 200.1087595709817 -20.477875736282563 232.89428638710163
    vertex 198.44204887192294 -20.4778756388091 232.89428638710163
    vertex 198.7013790729047 -20.477875641036423 233.0329012674147
  endloop
endfacet
facet normal 5.848253403030469e-08 0.999999999999994 -9.33446772365217e-08
  outer loop
    vertex 200.1087595709817 -20.477875736282563 232.89428638710163
    vertex 198.7013790729047 -20.477875641036423 233.0329012674147
    vertex 199.84942936999997 -20.477875708177315 233.03290126741476
  endloop
endfacet
facet normal 5.848253403030469e-08 0.999999999999994 -9.33446772365217e-08
  outer loop
    vertex 199.84942936999997 -20.477875708177315 233.03290126741476
    vertex 198.7013790729047 -20.477875641036423 233.0329012674147
    vertex 198.98276873842812 -20.47787564952503 233.11825988925264
  endloop
endfacet
facet normal 5.848253403030469e-08 0.999999999999994 -9.33446772365217e-08
  outer loop
    vertex 199.84942936999997 -20.477875708177315 233.03290126741476
    vertex 198.98276873842812 -20.47787564952503 233.11825988925264
    vertex 199.56803970447652 -20.477875683753158 233.11825988925267
  endloop
endfacet
facet normal 5.848253403030469e-08 0.999999999999994 -9.33446772365217e-08
  outer loop
    vertex 199.56803970447652 -20.477875683753158 233.11825988925267
    vertex 198.98276873842812 -20.47787564952503 233.11825988925264
    vertex 199.27540422145233 -20.47787566394871 233.1470819686478
  endloop
endfacet
facet normal 0.0980171403296263 -9.862748761539516e-08 -0.9951847266721857
  outer loop
    vertex 198.98277078531694 14.522124350474686 233.11825662218877
    vertex 199.27540422145233 -20.47787566394871 233.1470819686478
    vertex 198.98276873842812 -20.47787564952503 233.11825988925264
  endloop
endfacet
facet normal 0.0980171403296263 -9.862748761539516e-08 -0.9951847266721857
  outer loop
    vertex 199.27540422145233 -20.47787566394871 233.1470819686478
    vertex 198.98277078531694 14.522124350474686 233.11825662218877
    vertex 199.27540626834116 14.522124336051009 233.14707870158395
  endloop
endfacet
facet normal -0.09801714032948508 -8.716290611319965e-08 -0.9951847266722005
  outer loop
    vertex 199.27540626834116 14.522124336051009 233.14707870158395
    vertex 199.56803970447652 -20.477875683753158 233.11825988925267
    vertex 199.27540422145233 -20.47787566394871 233.1470819686478
  endloop
endfacet
facet normal -0.09801714032948508 -8.716290611319965e-08 -0.9951847266722005
  outer loop
    vertex 199.56803970447652 -20.477875683753158 233.11825988925267
    vertex 199.27540626834116 14.522124336051009 233.14707870158395
    vertex 199.56804175136534 14.522124316246542 233.1182566221888
  endloop
endfacet
facet normal -0.2902846772544675 -7.234870325752139e-08 -0.9569403357322046
  outer loop
    vertex 199.56804175136534 14.522124316246542 233.1182566221888
    vertex 199.84942936999997 -20.477875708177315 233.03290126741476
    vertex 199.56803970447652 -20.477875683753158 233.11825988925267
  endloop
endfacet
facet normal -0.2902846772544675 -7.234870325752139e-08 -0.9569403357322046
  outer loop
    vertex 199.84942936999997 -20.477875708177315 233.03290126741476
    vertex 199.56804175136534 14.522124316246542 233.1182566221888
    vertex 199.8494314168888 14.522124291822406 233.03289800035088
  endloop
endfacet
facet normal -0.4713967368260886 -5.475418006541165e-08 -0.8819212643483046
  outer loop
    vertex 199.8494314168888 14.522124291822406 233.03289800035088
    vertex 200.1087595709817 -20.477875736282563 232.89428638710163
    vertex 199.84942936999997 -20.477875708177315 233.03290126741476
  endloop
endfacet
facet normal -0.4713967368260886 -5.475418006541165e-08 -0.8819212643483046
  outer loop
    vertex 200.1087595709817 -20.477875736282563 232.89428638710163
    vertex 199.8494314168888 14.522124291822406 233.03289800035088
    vertex 200.10876161787053 14.522124263717155 232.89428312003776
  endloop
endfacet
facet normal -0.6343932841636449 -3.5055484439905046e-08 -0.7730104533627367
  outer loop
    vertex 200.10876161787053 14.522124263717155 232.89428312003776
    vertex 200.33606439323214 -20.477875766988838 232.70774214042763
    vertex 200.1087595709817 -20.477875736282563 232.89428638710163
  endloop
endfacet
facet normal -0.6343932841636449 -3.5055484439905046e-08 -0.7730104533627367
  outer loop
    vertex 200.33606439323214 -20.477875766988838 232.70774214042763
    vertex 200.10876161787053 14.522124263717155 232.89428312003776
    vertex 200.33606644012096 14.522124233010878 232.70773887336375
  endloop
endfacet
facet normal -0.7730104533627093 -1.4009626206709776e-08 -0.6343932841636789
  outer loop
    vertex 200.33606439323214 -20.477875766988838 232.70774214042763
    vertex 200.52261068679493 14.522124200883608 232.48043405111338
    vertex 200.5226086399061 -20.477875799116113 232.48043731817725
  endloop
endfacet
facet normal -0.7730104533627093 -1.4009626206709776e-08 -0.6343932841636789
  outer loop
    vertex 200.52261068679493 14.522124200883608 232.48043405111338
    vertex 200.33606439323214 -20.477875766988838 232.70774214042763
    vertex 200.33606644012096 14.522124233010878 232.70773887336375
  endloop
endfacet
facet normal -0.881921264348357 7.574614104930204e-09 -0.4713967368259939
  outer loop
    vertex 200.5226086399061 -20.477875799116113 232.48043731817725
    vertex 200.66122556710806 14.52212416856995 232.22110385013158
    vertex 200.66122352021924 -20.477875831429756 232.22110711719546
  endloop
endfacet
facet normal -0.881921264348357 7.574614104930204e-09 -0.4713967368259939
  outer loop
    vertex 200.66122556710806 14.52212416856995 232.22110385013158
    vertex 200.5226086399061 -20.477875799116113 232.48043731817725
    vertex 200.52261068679493 14.522124200883608 232.48043405111338
  endloop
endfacet
facet normal -0.9569403357322076 2.8867766244404262e-08 -0.29028467725446533
  outer loop
    vertex 200.66122352021924 -20.477875831429756 232.22110711719546
    vertex 200.74658418894597 14.522124137311728 231.93971418460816
    vertex 200.74658214205715 -20.47787586268797 231.939717451672
  endloop
endfacet
facet normal -0.9569403357322076 2.8867766244404262e-08 -0.29028467725446533
  outer loop
    vertex 200.74658418894597 14.522124137311728 231.93971418460816
    vertex 200.66122352021924 -20.477875831429756 232.22110711719546
    vertex 200.66122556710806 14.52212416856995 232.22110385013158
  endloop
endfacet
facet normal -0.9951847266721958 4.9051546316336805e-08 -0.09801714032956033
  outer loop
    vertex 200.74658214205715 -20.47787586268797 231.939717451672
    vertex 200.77540626834113 14.522124108310177 231.64707870158395
    vertex 200.7754042214523 -20.477875891689525 231.64708196864783
  endloop
endfacet
facet normal -0.9951847266721958 4.9051546316336805e-08 -0.09801714032956033
  outer loop
    vertex 200.77540626834113 14.522124108310177 231.64707870158395
    vertex 200.74658214205715 -20.47787586268797 231.939717451672
    vertex 200.74658418894597 14.522124137311728 231.93971418460816
  endloop
endfacet
facet normal -0.9951847266721957 6.735030297175523e-08 0.09801714032954954
  outer loop
    vertex 200.7754042214523 -20.477875891689525 231.64708196864783
    vertex 200.74658418894597 14.522124082679818 231.35444321855977
    vertex 200.74658214205715 -20.4778759173199 231.35444648562364
  endloop
endfacet
facet normal -0.9951847266721957 6.735030297175523e-08 0.09801714032954954
  outer loop
    vertex 200.74658418894597 14.522124082679818 231.35444321855977
    vertex 200.7754042214523 -20.477875891689525 231.64708196864783
    vertex 200.77540626834113 14.522124108310177 231.64707870158395
  endloop
endfacet
facet normal -0.9569403357322074 8.306082525445555e-08 0.2902846772544557
  outer loop
    vertex 200.74658214205715 -20.4778759173199 231.35444648562364
    vertex 200.66122556710806 14.522124061405561 231.07305355303632
    vertex 200.66122352021924 -20.47787593859414 231.0730568201002
  endloop
endfacet
facet normal -0.9569403357322074 8.306082525445555e-08 0.2902846772544557
  outer loop
    vertex 200.66122556710806 14.522124061405561 231.07305355303632
    vertex 200.74658214205715 -20.4778759173199 231.35444648562364
    vertex 200.74658418894597 14.522124082679818 231.35444321855977
  endloop
endfacet
facet normal -0.8819212643483217 9.557936660367786e-08 0.4713967368260502
  outer loop
    vertex 200.66122352021924 -20.47787593859414 231.0730568201002
    vertex 200.52261068679493 14.52212404530502 230.81372335205458
    vertex 200.5226086399061 -20.477875954694685 230.81372661911846
  endloop
endfacet
facet normal -0.8819212643483217 9.557936660367786e-08 0.4713967368260502
  outer loop
    vertex 200.52261068679493 14.52212404530502 230.81372335205458
    vertex 200.66122352021924 -20.47787593859414 231.0730568201002
    vertex 200.66122556710806 14.522124061405561 231.07305355303632
  endloop
endfacet
facet normal -0.7730104533627684 1.0442484649583809e-07 0.6343932841635986
  outer loop
    vertex 200.5226086399061 -20.477875954694685 230.81372661911846
    vertex 200.33606644012096 14.522124034996914 230.58641852980415
    vertex 200.33606439323214 -20.4778759650028 230.58642179686802
  endloop
endfacet
facet normal -0.7730104533627684 1.0442484649583809e-07 0.6343932841635986
  outer loop
    vertex 200.33606644012096 14.522124034996914 230.58641852980415
    vertex 200.5226086399061 -20.477875954694685 230.81372661911846
    vertex 200.52261068679493 14.52212404530502 230.81372335205458
  endloop
endfacet
facet normal -0.6343932841636399 1.0925733809929917e-07 0.773010453362734
  outer loop
    vertex 200.33606439323214 -20.4778759650028 230.58642179686802
    vertex 200.10876161787053 14.52212403087735 230.39987428313017
    vertex 200.1087595709817 -20.47787596912235 230.39987755019405
  endloop
endfacet
facet normal -0.6343932841636399 1.0925733809929917e-07 0.773010453362734
  outer loop
    vertex 200.10876161787053 14.52212403087735 230.39987428313017
    vertex 200.33606439323214 -20.4778759650028 230.58642179686802
    vertex 200.33606644012096 14.522124034996914 230.58641852980415
  endloop
endfacet
facet normal -0.4713967368259619 1.0989113147182304e-07 0.8819212643483674
  outer loop
    vertex 200.1087595709817 -20.47787596912235 230.39987755019405
    vertex 199.8494314168888 14.522124033104694 230.26125940281707
    vertex 199.84942936999997 -20.477875966895024 230.26126266988095
  endloop
endfacet
facet normal -0.4713967368259619 1.0989113147182304e-07 0.8819212643483674
  outer loop
    vertex 199.8494314168888 14.522124033104694 230.26125940281707
    vertex 200.1087595709817 -20.47787596912235 230.39987755019405
    vertex 200.10876161787053 14.52212403087735 230.39987428313017
  endloop
endfacet
facet normal -0.2902846772544579 1.063018702895418e-07 0.9569403357322043
  outer loop
    vertex 199.84942936999997 -20.477875966895024 230.26126266988095
    vertex 199.56804175136534 14.52212404159329 230.17590078097916
    vertex 199.56803970447652 -20.477875958406415 230.17590404804304
  endloop
endfacet
facet normal -0.2902846772544579 1.063018702895418e-07 0.9569403357322043
  outer loop
    vertex 199.56804175136534 14.52212404159329 230.17590078097916
    vertex 199.84942936999997 -20.477875966895024 230.26126266988095
    vertex 199.8494314168888 14.522124033104694 230.26125940281707
  endloop
endfacet
facet normal -0.0980171403296263 9.862748761538334e-08 0.9951847266721857
  outer loop
    vertex 199.56803970447652 -20.477875958406415 230.17590404804304
    vertex 199.27540626834116 14.522124056016967 230.14707870158398
    vertex 199.27540422145233 -20.477875943982742 230.14708196864785
  endloop
endfacet
facet normal -0.0980171403296263 9.862748761538334e-08 0.9951847266721857
  outer loop
    vertex 199.27540626834116 14.522124056016967 230.14707870158398
    vertex 199.56803970447652 -20.477875958406415 230.17590404804304
    vertex 199.56804175136534 14.52212404159329 230.17590078097916
  endloop
endfacet
facet normal 0.09801714032948508 8.716290611321992e-08 0.9951847266722005
  outer loop
    vertex 199.27540422145233 -20.477875943982742 230.14708196864785
    vertex 198.98277078531694 14.522124075821434 230.1759007809791
    vertex 198.98276873842812 -20.47787592417829 230.17590404804298
  endloop
endfacet
facet normal 0.09801714032948508 8.716290611321992e-08 0.9951847266722005
  outer loop
    vertex 198.98277078531694 14.522124075821434 230.1759007809791
    vertex 199.27540422145233 -20.477875943982742 230.14708196864785
    vertex 199.27540626834116 14.522124056016967 230.14707870158398
  endloop
endfacet
facet normal 0.2902846772544675 7.234870325752139e-08 0.9569403357322046
  outer loop
    vertex 198.98276873842812 -20.47787592417829 230.17590404804298
    vertex 198.70138111979352 14.52212410024557 230.26125940281705
    vertex 198.7013790729047 -20.477875899754135 230.2612626698809
  endloop
endfacet
facet normal 0.2902846772544675 7.234870325752139e-08 0.9569403357322046
  outer loop
    vertex 198.70138111979352 14.52212410024557 230.26125940281705
    vertex 198.98276873842812 -20.47787592417829 230.17590404804298
    vertex 198.98277078531694 14.522124075821434 230.1759007809791
  endloop
endfacet
facet normal 0.4713967368260886 5.475418006541165e-08 0.8819212643483046
  outer loop
    vertex 198.7013790729047 -20.477875899754135 230.2612626698809
    vertex 198.44205091881176 14.522124128350821 230.39987428313017
    vertex 198.44204887192294 -20.477875871648884 230.39987755019405
  endloop
endfacet
facet normal 0.4713967368260886 5.475418006541165e-08 0.8819212643483046
  outer loop
    vertex 198.44205091881176 14.522124128350821 230.39987428313017
    vertex 198.7013790729047 -20.477875899754135 230.2612626698809
    vertex 198.70138111979352 14.52212410024557 230.26125940281705
  endloop
endfacet
facet normal 0.6343932841636449 3.5055484439905046e-08 0.7730104533627367
  outer loop
    vertex 198.44204887192294 -20.477875871648884 230.39987755019405
    vertex 198.21474609656136 14.522124159057098 230.58641852980415
    vertex 198.21474404967253 -20.477875840942612 230.58642179686802
  endloop
endfacet
facet normal 0.6343932841636449 3.5055484439905046e-08 0.7730104533627367
  outer loop
    vertex 198.21474609656136 14.522124159057098 230.58641852980415
    vertex 198.44204887192294 -20.477875871648884 230.39987755019405
    vertex 198.44205091881176 14.522124128350821 230.39987428313017
  endloop
endfacet
facet normal 0.7730104533627093 1.4009626206709776e-08 0.6343932841636789
  outer loop
    vertex 198.21474609656136 14.522124159057098 230.58641852980415
    vertex 198.02819980299853 -20.477875808815334 230.81372661911843
    vertex 198.21474404967253 -20.477875840942612 230.58642179686802
  endloop
endfacet
facet normal 0.7730104533627093 1.4009626206709776e-08 0.6343932841636789
  outer loop
    vertex 198.02819980299853 -20.477875808815334 230.81372661911843
    vertex 198.21474609656136 14.522124159057098 230.58641852980415
    vertex 198.02820184988735 14.522124191184368 230.81372335205455
  endloop
endfacet
facet normal 0.881921264348357 -7.574614104930204e-09 0.4713967368259939
  outer loop
    vertex 198.02820184988735 14.522124191184368 230.81372335205455
    vertex 197.88958492268543 -20.47787577650169 231.0730568201002
    vertex 198.02819980299853 -20.477875808815334 230.81372661911843
  endloop
endfacet
facet normal 0.881921264348357 -7.574614104930204e-09 0.4713967368259939
  outer loop
    vertex 197.88958492268543 -20.47787577650169 231.0730568201002
    vertex 198.02820184988735 14.522124191184368 230.81372335205455
    vertex 197.88958696957425 14.522124223498025 231.07305355303632
  endloop
endfacet
facet normal 0.9569403357322076 -2.8867766244404262e-08 0.29028467725446533
  outer loop
    vertex 197.88958696957425 14.522124223498025 231.07305355303632
    vertex 197.8042263008475 -20.477875745243477 231.35444648562364
    vertex 197.88958492268543 -20.47787577650169 231.0730568201002
  endloop
endfacet
facet normal 0.9569403357322076 -2.8867766244404262e-08 0.29028467725446533
  outer loop
    vertex 197.8042263008475 -20.477875745243477 231.35444648562364
    vertex 197.88958696957425 14.522124223498025 231.07305355303632
    vertex 197.8042283477363 14.522124254756225 231.35444321855977
  endloop
endfacet
facet normal 0.9951847266721958 -4.9051546316336805e-08 0.09801714032956033
  outer loop
    vertex 197.8042283477363 14.522124254756225 231.35444321855977
    vertex 197.77540422145236 -20.477875716241922 231.64708196864783
    vertex 197.8042263008475 -20.477875745243477 231.35444648562364
  endloop
endfacet
facet normal 0.9951847266721958 -4.9051546316336805e-08 0.09801714032956033
  outer loop
    vertex 197.77540422145236 -20.477875716241922 231.64708196864783
    vertex 197.8042283477363 14.522124254756225 231.35444321855977
    vertex 197.7754062683412 14.5221242837578 231.64707870158395
  endloop
endfacet
facet normal 0.9951847266721957 -6.735030297175523e-08 -0.09801714032954954
  outer loop
    vertex 197.7754062683412 14.5221242837578 231.64707870158395
    vertex 197.8042263008475 -20.477875690611548 231.939717451672
    vertex 197.77540422145236 -20.477875716241922 231.64708196864783
  endloop
endfacet
facet normal 0.9951847266721957 -6.735030297175523e-08 -0.09801714032954954
  outer loop
    vertex 197.8042263008475 -20.477875690611548 231.939717451672
    vertex 197.7754062683412 14.5221242837578 231.64707870158395
    vertex 197.8042283477363 14.522124309388158 231.93971418460816
  endloop
endfacet
facet normal 0.9569403357322074 -8.306082525445555e-08 -0.2902846772544557
  outer loop
    vertex 197.8042283477363 14.522124309388158 231.93971418460816
    vertex 197.88958492268543 -20.47787566933731 232.22110711719546
    vertex 197.8042263008475 -20.477875690611548 231.939717451672
  endloop
endfacet
facet normal 0.9569403357322074 -8.306082525445555e-08 -0.2902846772544557
  outer loop
    vertex 197.88958492268543 -20.47787566933731 232.22110711719546
    vertex 197.8042283477363 14.522124309388158 231.93971418460816
    vertex 197.88958696957425 14.522124330662415 232.22110385013158
  endloop
endfacet
facet normal 0.8819212643483217 -9.557936660367786e-08 -0.4713967368260502
  outer loop
    vertex 197.88958696957425 14.522124330662415 232.22110385013158
    vertex 198.02819980299853 -20.47787565323676 232.4804373181772
    vertex 197.88958492268543 -20.47787566933731 232.22110711719546
  endloop
endfacet
facet normal 0.8819212643483217 -9.557936660367786e-08 -0.4713967368260502
  outer loop
    vertex 198.02819980299853 -20.47787565323676 232.4804373181772
    vertex 197.88958696957425 14.522124330662415 232.22110385013158
    vertex 198.02820184988735 14.522124346762956 232.48043405111332
  endloop
endfacet
facet normal 0.7730104533627684 -1.0442484649583809e-07 -0.6343932841635986
  outer loop
    vertex 198.02820184988735 14.522124346762956 232.48043405111332
    vertex 198.21474404967253 -20.477875642928648 232.70774214042763
    vertex 198.02819980299853 -20.47787565323676 232.4804373181772
  endloop
endfacet
facet normal 0.7730104533627684 -1.0442484649583809e-07 -0.6343932841635986
  outer loop
    vertex 198.21474404967253 -20.477875642928648 232.70774214042763
    vertex 198.02820184988735 14.522124346762956 232.48043405111332
    vertex 198.21474609656136 14.522124357071062 232.70773887336375
  endloop
endfacet
facet normal 0.6343932841636399 -1.0925733809929917e-07 -0.773010453362734
  outer loop
    vertex 198.21474609656136 14.522124357071062 232.70773887336375
    vertex 198.44204887192294 -20.4778756388091 232.89428638710163
    vertex 198.21474404967253 -20.477875642928648 232.70774214042763
  endloop
endfacet
facet normal 0.6343932841636399 -1.0925733809929917e-07 -0.773010453362734
  outer loop
    vertex 198.44204887192294 -20.4778756388091 232.89428638710163
    vertex 198.21474609656136 14.522124357071062 232.70773887336375
    vertex 198.44205091881176 14.522124361190604 232.89428312003776
  endloop
endfacet
facet normal 0.4713967368259619 -1.0989113147182304e-07 -0.8819212643483674
  outer loop
    vertex 198.44205091881176 14.522124361190604 232.89428312003776
    vertex 198.7013790729047 -20.477875641036423 233.0329012674147
    vertex 198.44204887192294 -20.4778756388091 232.89428638710163
  endloop
endfacet
facet normal 0.4713967368259619 -1.0989113147182304e-07 -0.8819212643483674
  outer loop
    vertex 198.7013790729047 -20.477875641036423 233.0329012674147
    vertex 198.44205091881176 14.522124361190604 232.89428312003776
    vertex 198.70138111979352 14.522124358963282 233.03289800035085
  endloop
endfacet
facet normal 0.2902846772544579 -1.063018702895418e-07 -0.9569403357322043
  outer loop
    vertex 198.70138111979352 14.522124358963282 233.03289800035085
    vertex 198.98276873842812 -20.47787564952503 233.11825988925264
    vertex 198.7013790729047 -20.477875641036423 233.0329012674147
  endloop
endfacet
facet normal 0.2902846772544579 -1.063018702895418e-07 -0.9569403357322043
  outer loop
    vertex 198.98276873842812 -20.47787564952503 233.11825988925264
    vertex 198.70138111979352 14.522124358963282 233.03289800035085
    vertex 198.98277078531694 14.522124350474686 233.11825662218877
  endloop
endfacet
facet normal 6.892107434622567e-08 0.9999999999999933 -9.334467702883708e-08
  outer loop
    vertex 192.13240062664514 14.522124423821891 227.84807842774998
    vertex 198.98277078531694 14.522124075821434 230.1759007809791
    vertex 199.27540626834116 14.522124056016967 230.14707870158398
  endloop
endfacet
facet normal 6.892107434622567e-08 0.9999999999999933 -9.334467702883708e-08
  outer loop
    vertex 198.98277078531694 14.522124075821434 230.1759007809791
    vertex 192.13240062664514 14.522124423821891 227.84807842774998
    vertex 198.70138111979352 14.52212410024557 230.26125940281705
  endloop
endfacet
facet normal 6.892107434622567e-08 0.9999999999999933 -9.334467702883708e-08
  outer loop
    vertex 198.70138111979352 14.52212410024557 230.26125940281705
    vertex 192.13240062664514 14.522124423821891 227.84807842774998
    vertex 188.3164063639498 14.522127475579714 234.9720787863315
  endloop
endfacet
facet normal 6.892107434622567e-08 0.9999999999999933 -9.334467702883708e-08
  outer loop
    vertex 198.70138111979352 14.52212410024557 230.26125940281705
    vertex 188.3164063639498 14.522127475579714 234.9720787863315
    vertex 198.44205091881176 14.522124128350821 230.39987428313017
  endloop
endfacet
facet normal 6.892107434622567e-08 0.9999999999999933 -9.334467702883708e-08
  outer loop
    vertex 198.44205091881176 14.522124128350821 230.39987428313017
    vertex 188.3164063639498 14.522127475579714 234.9720787863315
    vertex 198.21474609656136 14.522124159057098 230.58641852980415
  endloop
endfacet
facet normal 6.892107434622567e-08 0.9999999999999933 -9.334467702883708e-08
  outer loop
    vertex 198.21474609656136 14.522124159057098 230.58641852980415
    vertex 188.3164063639498 14.522127475579714 234.9720787863315
    vertex 198.02820184988735 14.522124191184368 230.81372335205455
  endloop
endfacet
facet normal 6.892107434622567e-08 0.9999999999999933 -9.334467702883708e-08
  outer loop
    vertex 198.02820184988735 14.522124191184368 230.81372335205455
    vertex 188.3164063639498 14.522127475579714 234.9720787863315
    vertex 197.88958696957425 14.522124223498025 231.07305355303632
  endloop
endfacet
facet normal 6.892107434622567e-08 0.9999999999999933 -9.334467702883708e-08
  outer loop
    vertex 197.88958696957425 14.522124223498025 231.07305355303632
    vertex 188.3164063639498 14.522127475579714 234.9720787863315
    vertex 197.8042283477363 14.522124254756225 231.35444321855977
  endloop
endfacet
facet normal 6.892107434622567e-08 0.9999999999999933 -9.334467702883708e-08
  outer loop
    vertex 197.8042283477363 14.522124254756225 231.35444321855977
    vertex 188.3164063639498 14.522127475579714 234.9720787863315
    vertex 197.7754062683412 14.5221242837578 231.64707870158395
  endloop
endfacet
facet normal 6.892107434622567e-08 0.9999999999999933 -9.334467702883708e-08
  outer loop
    vertex 197.7754062683412 14.5221242837578 231.64707870158395
    vertex 188.3164063639498 14.522127475579714 234.9720787863315
    vertex 197.8042283477363 14.522124309388158 231.93971418460816
  endloop
endfacet
facet normal 6.892107434622567e-08 0.9999999999999933 -9.334467702883708e-08
  outer loop
    vertex 197.8042283477363 14.522124309388158 231.93971418460816
    vertex 188.3164063639498 14.522127475579714 234.9720787863315
    vertex 197.88958696957425 14.522124330662415 232.22110385013158
  endloop
endfacet
facet normal 6.892107434622567e-08 0.9999999999999933 -9.334467702883708e-08
  outer loop
    vertex 197.88958696957425 14.522124330662415 232.22110385013158
    vertex 188.3164063639498 14.522127475579714 234.9720787863315
    vertex 198.02820184988735 14.522124346762956 232.48043405111332
  endloop
endfacet
facet normal 6.892107434622567e-08 0.9999999999999933 -9.334467702883708e-08
  outer loop
    vertex 198.02820184988735 14.522124346762956 232.48043405111332
    vertex 188.3164063639498 14.522127475579714 234.9720787863315
    vertex 198.21474609656136 14.522124357071062 232.70773887336375
  endloop
endfacet
facet normal 6.892107434622567e-08 0.9999999999999933 -9.334467702883708e-08
  outer loop
    vertex 198.21474609656136 14.522124357071062 232.70773887336375
    vertex 188.3164063639498 14.522127475579714 234.9720787863315
    vertex 198.44205091881176 14.522124361190604 232.89428312003776
  endloop
endfacet
facet normal 6.892107434622567e-08 0.9999999999999933 -9.334467702883708e-08
  outer loop
    vertex 198.44205091881176 14.522124361190604 232.89428312003776
    vertex 188.3164063639498 14.522127475579714 234.9720787863315
    vertex 198.70138111979352 14.522124358963282 233.03289800035085
  endloop
endfacet
facet normal 6.892107434622567e-08 0.9999999999999933 -9.334467702883708e-08
  outer loop
    vertex 198.70138111979352 14.522124358963282 233.03289800035085
    vertex 188.3164063639498 14.522127475579714 234.9720787863315
    vertex 198.98277078531694 14.522124350474686 233.11825662218877
  endloop
endfacet
facet normal 6.892107434622567e-08 0.9999999999999933 -9.334467702883708e-08
  outer loop
    vertex 198.98277078531694 14.522124350474686 233.11825662218877
    vertex 188.3164063639498 14.522127475579714 234.9720787863315
    vertex 199.27540626834116 14.522124336051009 233.14707870158395
  endloop
endfacet
facet normal 6.892107434622567e-08 0.9999999999999933 -9.334467702883708e-08
  outer loop
    vertex 199.27540626834116 14.522124336051009 233.14707870158395
    vertex 188.3164063639498 14.522127475579714 234.9720787863315
    vertex 210.23440616550602 14.522124216671417 234.97207858889772
  endloop
endfacet
facet normal 6.892107434622567e-08 0.9999999999999933 -9.334467702883708e-08
  outer loop
    vertex 210.23440616550602 14.522124216671417 234.97207858889772
    vertex 188.3164063639498 14.522127475579714 234.9720787863315
    vertex 209.99040286960758 14.522124216671417 235.44607856600953
  endloop
endfacet
facet normal 6.892107434622567e-08 0.9999999999999933 -9.334467702883708e-08
  outer loop
    vertex 209.99040286960758 14.522124216671417 235.44607856600953
    vertex 188.3164063639498 14.522127475579714 234.9720787863315
    vertex 188.56040965984826 14.522124423821891 235.44607876344332
  endloop
endfacet
facet normal 6.892107434622567e-08 0.9999999999999933 -9.334467702883708e-08
  outer loop
    vertex 206.4184119028107 14.522124216671417 227.8480782303162
    vertex 199.8494314168888 14.522124033104694 230.26125940281707
    vertex 210.23440616550602 14.522124216671417 234.97207858889772
  endloop
endfacet
facet normal 6.892107434622567e-08 0.9999999999999933 -9.334467702883708e-08
  outer loop
    vertex 199.8494314168888 14.522124033104694 230.26125940281707
    vertex 206.4184119028107 14.522124216671417 227.8480782303162
    vertex 192.13240062664514 14.522124423821891 227.84807842774998
  endloop
endfacet
facet normal 6.892107434622567e-08 0.9999999999999933 -9.334467702883708e-08
  outer loop
    vertex 199.8494314168888 14.522124033104694 230.26125940281707
    vertex 192.13240062664514 14.522124423821891 227.84807842774998
    vertex 199.56804175136534 14.52212404159329 230.17590078097916
  endloop
endfacet
facet normal 6.892107434622567e-08 0.9999999999999933 -9.334467702883708e-08
  outer loop
    vertex 199.56804175136534 14.52212404159329 230.17590078097916
    vertex 192.13240062664514 14.522124423821891 227.84807842774998
    vertex 199.27540626834116 14.522124056016967 230.14707870158398
  endloop
endfacet
facet normal 6.892107434622567e-08 0.9999999999999933 -9.334467702883708e-08
  outer loop
    vertex 210.23440616550602 14.522124216671417 234.97207858889772
    vertex 199.8494314168888 14.522124033104694 230.26125940281707
    vertex 200.10876161787053 14.52212403087735 230.39987428313017
  endloop
endfacet
facet normal 6.892107434622567e-08 0.9999999999999933 -9.334467702883708e-08
  outer loop
    vertex 210.23440616550602 14.522124216671417 234.97207858889772
    vertex 200.10876161787053 14.52212403087735 230.39987428313017
    vertex 200.33606644012096 14.522124034996914 230.58641852980415
  endloop
endfacet
facet normal 6.892107434622567e-08 0.9999999999999933 -9.334467702883708e-08
  outer loop
    vertex 210.23440616550602 14.522124216671417 234.97207858889772
    vertex 200.33606644012096 14.522124034996914 230.58641852980415
    vertex 200.52261068679493 14.52212404530502 230.81372335205458
  endloop
endfacet
facet normal 6.892107434622567e-08 0.9999999999999933 -9.334467702883708e-08
  outer loop
    vertex 210.23440616550602 14.522124216671417 234.97207858889772
    vertex 200.52261068679493 14.52212404530502 230.81372335205458
    vertex 200.66122556710806 14.522124061405561 231.07305355303632
  endloop
endfacet
facet normal 6.892107434622567e-08 0.9999999999999933 -9.334467702883708e-08
  outer loop
    vertex 210.23440616550602 14.522124216671417 234.97207858889772
    vertex 200.66122556710806 14.522124061405561 231.07305355303632
    vertex 200.74658418894597 14.522124082679818 231.35444321855977
  endloop
endfacet
facet normal 6.892107434622567e-08 0.9999999999999933 -9.334467702883708e-08
  outer loop
    vertex 210.23440616550602 14.522124216671417 234.97207858889772
    vertex 200.74658418894597 14.522124082679818 231.35444321855977
    vertex 200.77540626834113 14.522124108310177 231.64707870158395
  endloop
endfacet
facet normal 6.892107434622567e-08 0.9999999999999933 -9.334467702883708e-08
  outer loop
    vertex 210.23440616550602 14.522124216671417 234.97207858889772
    vertex 200.77540626834113 14.522124108310177 231.64707870158395
    vertex 200.74658418894597 14.522124137311728 231.93971418460816
  endloop
endfacet
facet normal 6.892107434622567e-08 0.9999999999999933 -9.334467702883708e-08
  outer loop
    vertex 210.23440616550602 14.522124216671417 234.97207858889772
    vertex 200.74658418894597 14.522124137311728 231.93971418460816
    vertex 200.66122556710806 14.52212416856995 232.22110385013158
  endloop
endfacet
facet normal 6.892107434622567e-08 0.9999999999999933 -9.334467702883708e-08
  outer loop
    vertex 210.23440616550602 14.522124216671417 234.97207858889772
    vertex 200.66122556710806 14.52212416856995 232.22110385013158
    vertex 200.52261068679493 14.522124200883608 232.48043405111338
  endloop
endfacet
facet normal 6.892107434622567e-08 0.9999999999999933 -9.334467702883708e-08
  outer loop
    vertex 210.23440616550602 14.522124216671417 234.97207858889772
    vertex 200.52261068679493 14.522124200883608 232.48043405111338
    vertex 200.33606644012096 14.522124233010878 232.70773887336375
  endloop
endfacet
facet normal 6.892107434622567e-08 0.9999999999999933 -9.334467702883708e-08
  outer loop
    vertex 210.23440616550602 14.522124216671417 234.97207858889772
    vertex 200.33606644012096 14.522124233010878 232.70773887336375
    vertex 200.10876161787053 14.522124263717155 232.89428312003776
  endloop
endfacet
facet normal 6.892107434622567e-08 0.9999999999999933 -9.334467702883708e-08
  outer loop
    vertex 210.23440616550602 14.522124216671417 234.97207858889772
    vertex 200.10876161787053 14.522124263717155 232.89428312003776
    vertex 199.8494314168888 14.522124291822406 233.03289800035088
  endloop
endfacet
facet normal 6.892107434622567e-08 0.9999999999999933 -9.334467702883708e-08
  outer loop
    vertex 210.23440616550602 14.522124216671417 234.97207858889772
    vertex 199.8494314168888 14.522124291822406 233.03289800035088
    vertex 199.56804175136534 14.522124316246542 233.1182566221888
  endloop
endfacet
facet normal 6.892107434622567e-08 0.9999999999999933 -9.334467702883708e-08
  outer loop
    vertex 210.23440616550602 14.522124216671417 234.97207858889772
    vertex 199.56804175136534 14.522124316246542 233.1182566221888
    vertex 199.27540626834116 14.522124336051009 233.14707870158395
  endloop
endfacet
facet normal 0.00012555573195479835 -0.9999999920364085 1.2764837625259267e-05
  outer loop
    vertex 204.94862294459412 -43.6514756372315 232.8466068070419
    vertex 203.82084480304616 -43.65135174219578 253.64614170142545
    vertex 203.82095742595487 -43.65175884114208 232.84614561936613
  endloop
endfacet
facet normal 0.00012555573195479835 -0.9999999920364085 1.2764837625259267e-05
  outer loop
    vertex 203.82084480304616 -43.65135174219578 253.64614170142545
    vertex 204.94862294459412 -43.6514756372315 232.8466068070419
    vertex 204.94862294459412 -43.65135174219578 253.64614170142545
  endloop
endfacet
facet normal -0.7071066571754241 -0.7071069051851564 4.2032602515636665e-06
  outer loop
    vertex 188.20418098857303 -43.651475372457824 232.84818002090148
    vertex 187.07640417286137 -42.52357532288051 253.6461348818848
    vertex 187.07640417286137 -42.52369895234095 232.84817331705264
  endloop
endfacet
facet normal -0.7071066571754241 -0.7071069051851564 4.2032602515636665e-06
  outer loop
    vertex 187.07640417286137 -42.52357532288051 253.6461348818848
    vertex 188.20418098857303 -43.651475372457824 232.84818002090148
    vertex 188.20418098857303 -43.65135174299739 253.64614158573363
  endloop
endfacet
facet normal 0.7071067884650811 -0.7071067738954693 4.2119700971661005e-06
  outer loop
    vertex 206.07640106292425 -42.52369749570404 232.84660008929012
    vertex 204.94862294459412 -43.65135174219578 253.64614170142545
    vertex 204.94862294459412 -43.6514756372315 232.8466068070419
  endloop
endfacet
facet normal 0.7071067884650811 -0.7071067738954693 4.2119700971661005e-06
  outer loop
    vertex 204.94862294459412 -43.65135174219578 253.64614170142545
    vertex 206.07640106292425 -42.52369749570404 232.84660008929012
    vertex 206.07640106292425 -42.52357360066832 253.64613498367362
  endloop
endfacet
facet normal -0.9999999999999893 -1.46047522088935e-07 9.614244513873284e-09
  outer loop
    vertex 187.07640417286137 -42.52357532288051 253.6461348818848
    vertex 187.07640085246516 -35.10690421072821 232.84807858978243
    vertex 187.07640417286137 -42.52369895234095 232.84817331705264
  endloop
endfacet
facet normal -0.9999999999999893 -1.46047522088935e-07 9.614244513873284e-09
  outer loop
    vertex 187.07640085246516 -35.10690421072821 232.84807858978243
    vertex 187.07640417286137 -42.52357532288051 253.6461348818848
    vertex 187.0764008690536 -33.10448037420761 253.64607889189634
  endloop
endfacet
facet normal -0.9999999999999893 -1.46047522088935e-07 9.614244513873284e-09
  outer loop
    vertex 187.07640085246516 -35.10690421072821 232.84807858978243
    vertex 187.0764009675316 -23.106792404971984 227.84807858978246
    vertex 187.07640100864347 -35.10690428731324 227.84807858978246
  endloop
endfacet
facet normal -0.9999999999999893 -1.46047522088935e-07 9.614244513873284e-09
  outer loop
    vertex 187.0764009675316 -23.106792404971984 227.84807858978246
    vertex 187.07640085246516 -35.10690421072821 232.84807858978243
    vertex 187.0764008690536 -33.10448037420761 253.64607889189634
  endloop
endfacet
facet normal -0.9999999999999893 -1.46047522088935e-07 9.614244513873284e-09
  outer loop
    vertex 187.0764009675316 -23.106792404971984 227.84807858978246
    vertex 187.0764008690536 -33.10448037420761 253.64607889189634
    vertex 187.0764009675316 -23.106792404971984 238.4460789504938
  endloop
endfacet
facet normal 0.8891108697157539 -3.729080625019688e-09 0.45769188473611333
  outer loop
    vertex 210.23440616550602 14.522124216671417 234.97207858889772
    vertex 209.99040255855974 -23.106792404971984 235.4460789504938
    vertex 210.23440578839222 -23.106792404971984 234.97207892806506
  endloop
endfacet
facet normal 0.8891108697157539 -3.729080625019688e-09 0.45769188473611333
  outer loop
    vertex 209.99040255855974 -23.106792404971984 235.4460789504938
    vertex 210.23440616550602 14.522124216671417 234.97207858889772
    vertex 209.99040286960758 14.522124216671417 235.44607856600953
  endloop
endfacet
facet normal -0.8905118664298299 -4.362424677969907e-05 0.4549600134567716
  outer loop
    vertex 188.56040980011562 -23.106792404971984 235.4460789504938
    vertex 188.3164063639498 14.522127475579714 234.9720787863315
    vertex 188.3214756178601 -23.10679240499754 234.97478496759123
  endloop
endfacet
facet normal -0.8905118664298299 -4.362424677969907e-05 0.4549600134567716
  outer loop
    vertex 188.3164063639498 14.522127475579714 234.9720787863315
    vertex 188.56040980011562 -23.106792404971984 235.4460789504938
    vertex 188.56040965984826 14.522124423821891 235.44607876344332
  endloop
endfacet
facet normal -1.2795458711626773e-08 3.855285341708936e-06 -0.9999999999925684
  outer loop
    vertex 200.075401558595 -35.10691152396736 229.34807864833928
    vertex 193.07540155859502 -39.22947266473322 229.34807864833928
    vertex 193.07540155859502 -35.10691152396736 229.34807864833928
  endloop
endfacet
facet normal -1.2795458711626773e-08 3.855285341708936e-06 -0.9999999999925684
  outer loop
    vertex 193.07540155859502 -39.22947266473322 229.34807864833928
    vertex 200.075401558595 -35.10691152396736 229.34807864833928
    vertex 196.5789364117836 -37.558665952593806 229.34786786943866
  endloop
endfacet
facet normal -1.2795458711626773e-08 3.855285341708936e-06 -0.9999999999925684
  outer loop
    vertex 196.5789364117836 -37.558665952593806 229.34786786943866
    vertex 200.075401558595 -35.10691152396736 229.34807864833928
    vertex 200.075401558595 -39.22686520182721 229.34807864833928
  endloop
endfacet
facet normal 0.8525696613780266 -0.5226135975200656 1.3597501538518616e-05
  outer loop
    vertex 190.82922773084746 -41.20930959658553 232.8481677765122
    vertex 189.33195740870988 -43.65135174299739 253.64614158573363
    vertex 189.33195740870988 -43.65236614066235 232.84818002619653
  endloop
endfacet
facet normal 0.8525696613780266 -0.5226135975200656 1.3597501538518616e-05
  outer loop
    vertex 189.33195740870988 -43.65135174299739 253.64614158573363
    vertex 190.82922773084746 -41.20930959658553 232.8481677765122
    vertex 190.82956426014715 -41.20869274479296 253.64604490532943
  endloop
endfacet
facet normal -0.8525017375228218 -0.5227243896238691 3.594901411867169e-06
  outer loop
    vertex 203.82084480304616 -43.65135174219578 253.64614170142545
    vertex 202.32259077254201 -41.208019410915014 232.8481678857357
    vertex 203.82095742595487 -43.65175884114208 232.84614561936613
  endloop
endfacet
facet normal -0.8525017375228218 -0.5227243896238691 3.594901411867169e-06
  outer loop
    vertex 202.32259077254201 -41.208019410915014 232.8481678857357
    vertex 203.82084480304616 -43.65135174219578 253.64614170142545
    vertex 202.32225215915494 -41.20740452636625 253.6460450478632
  endloop
endfacet
facet normal -0.0003949223086102821 -0.9999999216439218 2.7359100378935917e-05
  outer loop
    vertex 189.33195740870988 -43.65236614066235 232.84818002619653
    vertex 188.20418098857303 -43.65135174299739 253.64614158573363
    vertex 188.20418098857303 -43.651475372457824 232.84818002090148
  endloop
endfacet
facet normal -0.0003949223086102821 -0.9999999216439218 2.7359100378935917e-05
  outer loop
    vertex 188.20418098857303 -43.65135174299739 253.64614158573363
    vertex 189.33195740870988 -43.65236614066235 232.84818002619653
    vertex 189.33195740870988 -43.65135174299739 253.64614158573363
  endloop
endfacet
facet normal -1.0 0.0 0.0
  outer loop
    vertex 193.07540155859502 -35.10691152396736 232.84807864246753
    vertex 193.07540155859502 -39.22947266473322 229.34807864833928
    vertex 193.07540155859502 -39.22947266473322 232.84807864246753
  endloop
endfacet
facet normal -1.0 0.0 0.0
  outer loop
    vertex 193.07540155859502 -39.22947266473322 229.34807864833928
    vertex 193.07540155859502 -35.10691152396736 232.84807864246753
    vertex 193.07540155859502 -35.10691152396736 229.34807864833928
  endloop
endfacet
facet normal -0.43108799680288706 -0.9023098865525924 8.741808712620616e-05
  outer loop
    vertex 200.075401558595 -39.22686520182721 229.34807864833928
    vertex 196.57893631187696 -37.55356013863365 253.64585636590726
    vertex 196.5789364117836 -37.558665952593806 229.34786786943866
  endloop
endfacet
facet normal -0.43108799680288706 -0.9023098865525924 8.741808712620616e-05
  outer loop
    vertex 196.57893631187696 -37.55356013863365 253.64585636590726
    vertex 200.075401558595 -39.22686520182721 229.34807864833928
    vertex 200.075401558595 -39.22686520182721 232.84807863948524
  endloop
endfacet
facet normal -0.43108799680288706 -0.9023098865525924 8.741808712620616e-05
  outer loop
    vertex 196.57893631187696 -37.55356013863365 253.64585636590726
    vertex 200.075401558595 -39.22686520182721 232.84807863948524
    vertex 200.075401558595 -39.22686520182721 253.64595582530455
  endloop
endfacet
facet normal -3.988965722898034e-06 -1.1905547377999152e-05 -0.999999999921173
  outer loop
    vertex 193.07540155859502 -35.10691152396736 232.84807864246753
    vertex 187.07640417286137 -42.52369895234095 232.84817331705264
    vertex 187.07640085246516 -35.10690421072821 232.84807858978243
  endloop
endfacet
facet normal -3.988965722898034e-06 -1.1905547377999152e-05 -0.999999999921173
  outer loop
    vertex 187.07640417286137 -42.52369895234095 232.84817331705264
    vertex 193.07540155859502 -35.10691152396736 232.84807864246753
    vertex 188.20418098857303 -43.651475372457824 232.84818002090148
  endloop
endfacet
facet normal -3.988965722898034e-06 -1.1905547377999152e-05 -0.999999999921173
  outer loop
    vertex 188.20418098857303 -43.651475372457824 232.84818002090148
    vertex 193.07540155859502 -35.10691152396736 232.84807864246753
    vertex 189.33195740870988 -43.65236614066235 232.84818002619653
  endloop
endfacet
facet normal -3.988965722898034e-06 -1.1905547377999152e-05 -0.999999999921173
  outer loop
    vertex 189.33195740870988 -43.65236614066235 232.84818002619653
    vertex 193.07540155859502 -35.10691152396736 232.84807864246753
    vertex 190.82922773084746 -41.20930959658553 232.8481677765122
  endloop
endfacet
facet normal -3.988965722898034e-06 -1.1905547377999152e-05 -0.999999999921173
  outer loop
    vertex 190.82922773084746 -41.20930959658553 232.8481677765122
    vertex 193.07540155859502 -35.10691152396736 232.84807864246753
    vertex 193.07540155859502 -39.22947266473322 232.84807864246753
  endloop
endfacet
facet normal 0.6612006447341473 -0.7502091090954485 5.775936700887881e-06
  outer loop
    vertex 193.07540155859502 -39.22947266473322 253.64595579502557
    vertex 190.82922773084746 -41.20930959658553 232.8481677765122
    vertex 193.07540155859502 -39.22947266473322 232.84807864246753
  endloop
endfacet
facet normal 0.6612006447341473 -0.7502091090954485 5.775936700887881e-06
  outer loop
    vertex 190.82922773084746 -41.20930959658553 232.8481677765122
    vertex 193.07540155859502 -39.22947266473322 253.64595579502557
    vertex 190.82956426014715 -41.20869274479296 253.64604490532943
  endloop
endfacet
facet normal -0.00010901993394820666 0.00016544928693608106 -0.9999999803705936
  outer loop
    vertex 206.07640103293028 -35.1069042746 232.84807862709195
    vertex 200.075401558595 -39.22686520182721 232.84807863948524
    vertex 200.075401558595 -35.10691152396736 232.84807863948524
  endloop
endfacet
facet normal -0.00010901993394820666 0.00016544928693608106 -0.9999999803705936
  outer loop
    vertex 200.075401558595 -39.22686520182721 232.84807863948524
    vertex 206.07640103293028 -35.1069042746 232.84807862709195
    vertex 202.32259077254201 -41.208019410915014 232.8481678857357
  endloop
endfacet
facet normal -0.00010901993394820666 0.00016544928693608106 -0.9999999803705936
  outer loop
    vertex 202.32259077254201 -41.208019410915014 232.8481678857357
    vertex 206.07640103293028 -35.1069042746 232.84807862709195
    vertex 203.82095742595487 -43.65175884114208 232.84614561936613
  endloop
endfacet
facet normal -0.00010901993394820666 0.00016544928693608106 -0.9999999803705936
  outer loop
    vertex 203.82095742595487 -43.65175884114208 232.84614561936613
    vertex 206.07640103293028 -35.1069042746 232.84807862709195
    vertex 204.94862294459412 -43.6514756372315 232.8466068070419
  endloop
endfacet
facet normal -0.00010901993394820666 0.00016544928693608106 -0.9999999803705936
  outer loop
    vertex 204.94862294459412 -43.6514756372315 232.8466068070419
    vertex 206.07640103293028 -35.1069042746 232.84807862709195
    vertex 206.07640106292425 -42.52369749570404 232.84660008929012
  endloop
endfacet
facet normal -4.911771196727565e-09 1.1241968545331466e-05 0.9999999999368092
  outer loop
    vertex 187.0764008690536 -33.10448037420761 253.64607889189634
    vertex 196.57893631187696 -37.55356013863365 253.64585636590726
    vertex 206.07640086905448 -33.106494532516386 253.64607888966216
  endloop
endfacet
facet normal -4.911771196727565e-09 1.1241968545331466e-05 0.9999999999368092
  outer loop
    vertex 196.57893631187696 -37.55356013863365 253.64585636590726
    vertex 187.0764008690536 -33.10448037420761 253.64607889189634
    vertex 193.07540155859502 -39.22947266473322 253.64595579502557
  endloop
endfacet
facet normal -4.911771196727565e-09 1.1241968545331466e-05 0.9999999999368092
  outer loop
    vertex 193.07540155859502 -39.22947266473322 253.64595579502557
    vertex 187.0764008690536 -33.10448037420761 253.64607889189634
    vertex 187.07640417286137 -42.52357532288051 253.6461348818848
  endloop
endfacet
facet normal -4.911771196727565e-09 1.1241968545331466e-05 0.9999999999368092
  outer loop
    vertex 193.07540155859502 -39.22947266473322 253.64595579502557
    vertex 187.07640417286137 -42.52357532288051 253.6461348818848
    vertex 190.82956426014715 -41.20869274479296 253.64604490532943
  endloop
endfacet
facet normal -4.911771196727565e-09 1.1241968545331466e-05 0.9999999999368092
  outer loop
    vertex 190.82956426014715 -41.20869274479296 253.64604490532943
    vertex 187.07640417286137 -42.52357532288051 253.6461348818848
    vertex 188.20418098857303 -43.65135174299739 253.64614158573363
  endloop
endfacet
facet normal -4.911771196727565e-09 1.1241968545331466e-05 0.9999999999368092
  outer loop
    vertex 190.82956426014715 -41.20869274479296 253.64604490532943
    vertex 188.20418098857303 -43.65135174299739 253.64614158573363
    vertex 189.33195740870988 -43.65135174299739 253.64614158573363
  endloop
endfacet
facet normal -4.911771196727565e-09 1.1241968545331466e-05 0.9999999999368092
  outer loop
    vertex 206.07640086905448 -33.106494532516386 253.64607888966216
    vertex 196.57893631187696 -37.55356013863365 253.64585636590726
    vertex 200.075401558595 -39.22686520182721 253.64595582530455
  endloop
endfacet
facet normal -4.911771196727565e-09 1.1241968545331466e-05 0.9999999999368092
  outer loop
    vertex 206.07640086905448 -33.106494532516386 253.64607888966216
    vertex 200.075401558595 -39.22686520182721 253.64595582530455
    vertex 202.32225215915494 -41.20740452636625 253.6460450478632
  endloop
endfacet
facet normal -4.911771196727565e-09 1.1241968545331466e-05 0.9999999999368092
  outer loop
    vertex 206.07640086905448 -33.106494532516386 253.64607888966216
    vertex 202.32225215915494 -41.20740452636625 253.6460450478632
    vertex 203.82084480304616 -43.65135174219578 253.64614170142545
  endloop
endfacet
facet normal -4.911771196727565e-09 1.1241968545331466e-05 0.9999999999368092
  outer loop
    vertex 206.07640086905448 -33.106494532516386 253.64607888966216
    vertex 203.82084480304616 -43.65135174219578 253.64614170142545
    vertex 204.94862294459412 -43.65135174219578 253.64614170142545
  endloop
endfacet
facet normal -4.911771196727565e-09 1.1241968545331466e-05 0.9999999999368092
  outer loop
    vertex 206.07640086905448 -33.106494532516386 253.64607888966216
    vertex 204.94862294459412 -43.65135174219578 253.64614170142545
    vertex 206.07640106292425 -42.52357360066832 253.64613498367362
  endloop
endfacet
facet normal -0.6612803550603642 -0.7501388484665253 5.705640159467499e-06
  outer loop
    vertex 202.32259077254201 -41.208019410915014 232.8481678857357
    vertex 200.075401558595 -39.22686520182721 253.64595582530455
    vertex 200.075401558595 -39.22686520182721 232.84807863948524
  endloop
endfacet
facet normal -0.6612803550603642 -0.7501388484665253 5.705640159467499e-06
  outer loop
    vertex 200.075401558595 -39.22686520182721 253.64595582530455
    vertex 202.32259077254201 -41.208019410915014 232.8481678857357
    vertex 202.32225215915494 -41.20740452636625 253.6460450478632
  endloop
endfacet
facet normal 0.430926495763205 -0.9023870276138337 8.742719542339737e-05
  outer loop
    vertex 196.57893631187696 -37.55356013863365 253.64585636590726
    vertex 193.07540155859502 -39.22947266473322 229.34807864833928
    vertex 196.5789364117836 -37.558665952593806 229.34786786943866
  endloop
endfacet
facet normal 0.430926495763205 -0.9023870276138337 8.742719542339737e-05
  outer loop
    vertex 193.07540155859502 -39.22947266473322 229.34807864833928
    vertex 196.57893631187696 -37.55356013863365 253.64585636590726
    vertex 193.07540155859502 -39.22947266473322 232.84807864246753
  endloop
endfacet
facet normal 0.430926495763205 -0.9023870276138337 8.742719542339737e-05
  outer loop
    vertex 193.07540155859502 -39.22947266473322 232.84807864246753
    vertex 196.57893631187696 -37.55356013863365 253.64585636590726
    vertex 193.07540155859502 -39.22947266473322 253.64595579502557
  endloop
endfacet
facet normal 1.0 0.0 0.0
  outer loop
    vertex 200.075401558595 -35.10691152396736 229.34807864833928
    vertex 200.075401558595 -39.22686520182721 232.84807863948524
    vertex 200.075401558595 -39.22686520182721 229.34807864833928
  endloop
endfacet
facet normal 1.0 0.0 0.0
  outer loop
    vertex 200.075401558595 -39.22686520182721 232.84807863948524
    vertex 200.075401558595 -35.10691152396736 229.34807864833928
    vertex 200.075401558595 -35.10691152396736 232.84807863948524
  endloop
endfacet
facet normal 6.769372956777649e-08 -0.9999999999998954 -4.525057635031756e-07
  outer loop
    vertex 206.07640100195349 -35.10690430726649 227.84807857817546
    vertex 200.075401558595 -35.10691152396736 229.34807864833928
    vertex 187.07640100864347 -35.10690428731324 227.84807858978246
  endloop
endfacet
facet normal 6.769372956777649e-08 -0.9999999999998954 -4.525057635031756e-07
  outer loop
    vertex 200.075401558595 -35.10691152396736 229.34807864833928
    vertex 206.07640100195349 -35.10690430726649 227.84807857817546
    vertex 206.07640103293028 -35.1069042746 232.84807862709195
  endloop
endfacet
facet normal 6.769372956777649e-08 -0.9999999999998954 -4.525057635031756e-07
  outer loop
    vertex 200.075401558595 -35.10691152396736 229.34807864833928
    vertex 206.07640103293028 -35.1069042746 232.84807862709195
    vertex 200.075401558595 -35.10691152396736 232.84807863948524
  endloop
endfacet
facet normal 6.769372956777649e-08 -0.9999999999998954 -4.525057635031756e-07
  outer loop
    vertex 187.07640100864347 -35.10690428731324 227.84807858978246
    vertex 193.07540155859502 -35.10691152396736 229.34807864833928
    vertex 187.07640085246516 -35.10690421072821 232.84807858978243
  endloop
endfacet
facet normal 6.769372956777649e-08 -0.9999999999998954 -4.525057635031756e-07
  outer loop
    vertex 193.07540155859502 -35.10691152396736 229.34807864833928
    vertex 187.07640100864347 -35.10690428731324 227.84807858978246
    vertex 200.075401558595 -35.10691152396736 229.34807864833928
  endloop
endfacet
facet normal 6.769372956777649e-08 -0.9999999999998954 -4.525057635031756e-07
  outer loop
    vertex 187.07640085246516 -35.10690421072821 232.84807858978243
    vertex 193.07540155859502 -35.10691152396736 229.34807864833928
    vertex 193.07540155859502 -35.10691152396736 232.84807864246753
  endloop
endfacet
facet normal -3.2699087232154434e-09 -5.299315733153024e-09 -1.0
  outer loop
    vertex 206.4184119028107 14.522124216671417 227.8480782303162
    vertex 192.13240073746218 -23.106792404971984 227.84807858978246
    vertex 192.13240062664514 14.522124423821891 227.84807842774998
  endloop
endfacet
facet normal -3.2699087232154434e-09 -5.299315733153024e-09 -1.0
  outer loop
    vertex 192.13240073746218 -23.106792404971984 227.84807858978246
    vertex 206.4184119028107 14.522124216671417 227.8480782303162
    vertex 206.07640100195349 -23.106792404971984 227.84807857817546
  endloop
endfacet
facet normal -3.2699087232154434e-09 -5.299315733153024e-09 -1.0
  outer loop
    vertex 206.07640100195349 -23.106792404971984 227.84807857817546
    vertex 206.4184119028107 14.522124216671417 227.8480782303162
    vertex 206.41841162182848 -23.106792404971984 227.84807858978246
  endloop
endfacet
facet normal -3.2699087232154434e-09 -5.299315733153024e-09 -1.0
  outer loop
    vertex 192.13240073746218 -23.106792404971984 227.84807858978246
    vertex 187.07640100864347 -35.10690428731324 227.84807858978246
    vertex 187.0764009675316 -23.106792404971984 227.84807858978246
  endloop
endfacet
facet normal -3.2699087232154434e-09 -5.299315733153024e-09 -1.0
  outer loop
    vertex 187.07640100864347 -35.10690428731324 227.84807858978246
    vertex 192.13240073746218 -23.106792404971984 227.84807858978246
    vertex 206.07640100195349 -35.10690430726649 227.84807857817546
  endloop
endfacet
facet normal -3.2699087232154434e-09 -5.299315733153024e-09 -1.0
  outer loop
    vertex 206.07640100195349 -35.10690430726649 227.84807857817546
    vertex 192.13240073746218 -23.106792404971984 227.84807858978246
    vertex 206.07640100195349 -23.106792404971984 227.84807857817546
  endloop
endfacet
facet normal 0.8815023506260259 -1.2091681619574636e-08 -0.4721796330220002
  outer loop
    vertex 206.4184119028107 14.522124216671417 227.8480782303162
    vertex 210.23440578839222 -23.106792404971984 234.97207892806506
    vertex 206.41841162182848 -23.106792404971984 227.84807858978246
  endloop
endfacet
facet normal 0.8815023506260259 -1.2091681619574636e-08 -0.4721796330220002
  outer loop
    vertex 210.23440578839222 -23.106792404971984 234.97207892806506
    vertex 206.4184119028107 14.522124216671417 227.8480782303162
    vertex 210.23440616550602 14.522124216671417 234.97207858889772
  endloop
endfacet
facet normal 4.316644669210953e-09 7.854417445792976e-09 1.0
  outer loop
    vertex 188.56040980011562 -23.106792404971984 235.4460789504938
    vertex 209.99040286960758 14.522124216671417 235.44607856600953
    vertex 188.56040965984826 14.522124423821891 235.44607876344332
  endloop
endfacet
facet normal 4.316644669210953e-09 7.854417445792976e-09 1.0
  outer loop
    vertex 209.99040286960758 14.522124216671417 235.44607856600953
    vertex 188.56040980011562 -23.106792404971984 235.4460789504938
    vertex 206.0764009672587 -23.106792404971984 235.4460789504938
  endloop
endfacet
facet normal 4.316644669210953e-09 7.854417445792976e-09 1.0
  outer loop
    vertex 209.99040286960758 14.522124216671417 235.44607856600953
    vertex 206.0764009672587 -23.106792404971984 235.4460789504938
    vertex 209.99040255855974 -23.106792404971984 235.4460789504938
  endloop
endfacet
facet normal -3.80435039273935e-13 1.0 4.5003637245874596e-13
  outer loop
    vertex 187.0764009675316 -23.106792404971984 227.84807858978246
    vertex 188.3214756178601 -23.10679240499754 234.97478496759123
    vertex 192.13240073746218 -23.106792404971984 227.84807858978246
  endloop
endfacet
facet normal -3.80435039273935e-13 1.0 4.5003637245874596e-13
  outer loop
    vertex 188.3214756178601 -23.10679240499754 234.97478496759123
    vertex 187.0764009675316 -23.106792404971984 227.84807858978246
    vertex 187.0764009675316 -23.106792404971984 238.4460789504938
  endloop
endfacet
facet normal -3.80435039273935e-13 1.0 4.5003637245874596e-13
  outer loop
    vertex 188.3214756178601 -23.10679240499754 234.97478496759123
    vertex 187.0764009675316 -23.106792404971984 238.4460789504938
    vertex 188.56040980011562 -23.106792404971984 235.4460789504938
  endloop
endfacet
facet normal -3.80435039273935e-13 1.0 4.5003637245874596e-13
  outer loop
    vertex 188.56040980011562 -23.106792404971984 235.4460789504938
    vertex 187.0764009675316 -23.106792404971984 238.4460789504938
    vertex 206.0764009672587 -23.106792404971984 235.4460789504938
  endloop
endfacet
facet normal -3.80435039273935e-13 1.0 4.5003637245874596e-13
  outer loop
    vertex 206.0764009672587 -23.106792404971984 235.4460789504938
    vertex 187.0764009675316 -23.106792404971984 238.4460789504938
    vertex 206.0764009672587 -23.106792404971984 238.4460789504938
  endloop
endfacet
facet normal 4.42823634588676e-05 0.835450012169523 0.5495664429393556
  outer loop
    vertex 187.0764008690536 -33.10448037420761 253.64607889189634
    vertex 206.0764009672587 -23.106792404971984 238.4460789504938
    vertex 187.0764009675316 -23.106792404971984 238.4460789504938
  endloop
endfacet
facet normal 4.42823634588676e-05 0.835450012169523 0.5495664429393556
  outer loop
    vertex 206.0764009672587 -23.106792404971984 238.4460789504938
    vertex 187.0764008690536 -33.10448037420761 253.64607889189634
    vertex 206.07640086905448 -33.106494532516386 253.64607888966216
  endloop
endfacet
facet normal 0.0 -1.0 0.0
  outer loop
    vertex 206.41841162182848 -23.106792404971984 227.84807858978246
    vertex 206.07640100195349 -23.106792404971984 229.0764654219436
    vertex 206.07640100195349 -23.106792404971984 227.84807857817546
  endloop
endfacet
facet normal 0.0 -1.0 0.0
  outer loop
    vertex 206.07640100195349 -23.106792404971984 229.0764654219436
    vertex 206.41841162182848 -23.106792404971984 227.84807858978246
    vertex 210.23440578839222 -23.106792404971984 234.97207892806506
  endloop
endfacet
facet normal 0.0 -1.0 0.0
  outer loop
    vertex 206.07640100195349 -23.106792404971984 229.0764654219436
    vertex 210.23440578839222 -23.106792404971984 234.97207892806506
    vertex 206.0764009672587 -23.106792404971984 235.4460789504938
  endloop
endfacet
facet normal 0.0 -1.0 0.0
  outer loop
    vertex 206.0764009672587 -23.106792404971984 235.4460789504938
    vertex 210.23440578839222 -23.106792404971984 234.97207892806506
    vertex 209.99040255855974 -23.106792404971984 235.4460789504938
  endloop
endfacet
facet normal 1.0 4.478715933436654e-09 3.0359211353773385e-09
  outer loop
    vertex 206.07640100195349 -23.106792404971984 227.84807857817546
    vertex 206.07640103293028 -35.1069042746 232.84807862709195
    vertex 206.07640100195349 -35.10690430726649 227.84807857817546
  endloop
endfacet
facet normal 1.0 4.478715933436654e-09 3.0359211353773385e-09
  outer loop
    vertex 206.07640103293028 -35.1069042746 232.84807862709195
    vertex 206.07640100195349 -23.106792404971984 227.84807857817546
    vertex 206.07640086905448 -33.106494532516386 253.64607888966216
  endloop
endfacet
facet normal 1.0 4.478715933436654e-09 3.0359211353773385e-09
  outer loop
    vertex 206.07640086905448 -33.106494532516386 253.64607888966216
    vertex 206.07640100195349 -23.106792404971984 227.84807857817546
    vertex 206.0764009672587 -23.106792404971984 238.4460789504938
  endloop
endfacet
facet normal 1.0 4.478715933436654e-09 3.0359211353773385e-09
  outer loop
    vertex 206.0764009672587 -23.106792404971984 238.4460789504938
    vertex 206.07640100195349 -23.106792404971984 227.84807857817546
    vertex 206.07640100195349 -23.106792404971984 229.0764654219436
  endloop
endfacet
facet normal 1.0 4.478715933436654e-09 3.0359211353773385e-09
  outer loop
    vertex 206.0764009672587 -23.106792404971984 238.4460789504938
    vertex 206.07640100195349 -23.106792404971984 229.0764654219436
    vertex 206.0764009672587 -23.106792404971984 235.4460789504938
  endloop
endfacet
facet normal 1.0 4.478715933436654e-09 3.0359211353773385e-09
  outer loop
    vertex 206.07640103293028 -35.1069042746 232.84807862709195
    vertex 206.07640106292425 -42.52357360066832 253.64613498367362
    vertex 206.07640106292425 -42.52369749570404 232.84660008929012
  endloop
endfacet
facet normal 1.0 4.478715933436654e-09 3.0359211353773385e-09
  outer loop
    vertex 206.07640106292425 -42.52357360066832 253.64613498367362
    vertex 206.07640103293028 -35.1069042746 232.84807862709195
    vertex 206.07640086905448 -33.106494532516386 253.64607888966216
  endloop
endfacet
endsolid Case Feeder Alternate
