solid Lower Slider.stl
  facet normal 0 0 1
    outer loop
      vertex 124.18 109.041 10
      vertex 108.477 108.566 10
      vertex 124.423 108.566 10
    endloop
  endfacet
  facet normal 0 0 1
    outer loop
      vertex 108.477 108.566 10
      vertex 124.18 109.041 10
      vertex 108.72 109.041 10
    endloop
  endfacet
  facet normal 0 0 1
    outer loop
      vertex 108.72 109.041 10
      vertex 124.18 109.041 10
      vertex 116.968 110.534 10
    endloop
  endfacet
  facet normal 0 0 1
    outer loop
      vertex 116.968 110.534 10
      vertex 124.18 109.041 10
      vertex 117.45 110.734 10
    endloop
  endfacet
  facet normal 0 0 1
    outer loop
      vertex 117.45 110.734 10
      vertex 124.18 109.041 10
      vertex 128.139 116.366 10
    endloop
  endfacet
  facet normal 0 0 1
    outer loop
      vertex 108.72 109.041 10
      vertex 116.968 110.534 10
      vertex 116.45 110.466 10
    endloop
  endfacet
  facet normal 0 0 1
    outer loop
      vertex 117.45 110.734 10
      vertex 128.139 116.366 10
      vertex 117.864 111.052 10
    endloop
  endfacet
  facet normal 0 0 1
    outer loop
      vertex 117.864 111.052 10
      vertex 128.139 116.366 10
      vertex 118.182 111.466 10
    endloop
  endfacet
  facet normal 0 0 1
    outer loop
      vertex 118.182 111.466 10
      vertex 128.139 116.366 10
      vertex 118.382 111.948 10
    endloop
  endfacet
  facet normal 0 0 1
    outer loop
      vertex 118.382 111.948 10
      vertex 128.139 116.366 10
      vertex 118.45 112.466 10
    endloop
  endfacet
  facet normal 0 0 1
    outer loop
      vertex 118.45 112.466 10
      vertex 128.139 116.366 10
      vertex 118.382 112.984 10
    endloop
  endfacet
  facet normal 0 0 1
    outer loop
      vertex 118.382 112.984 10
      vertex 128.139 116.366 10
      vertex 118.182 113.466 10
    endloop
  endfacet
  facet normal 0 0 1
    outer loop
      vertex 118.182 113.466 10
      vertex 128.139 116.366 10
      vertex 117.864 113.88 10
    endloop
  endfacet
  facet normal 0 0 1
    outer loop
      vertex 117.864 113.88 10
      vertex 128.139 116.366 10
      vertex 117.45 114.198 10
    endloop
  endfacet
  facet normal 0 0 1
    outer loop
      vertex 117.45 114.198 10
      vertex 128.139 116.366 10
      vertex 116.968 114.398 10
    endloop
  endfacet
  facet normal 0 0 1
    outer loop
      vertex 116.968 114.398 10
      vertex 128.139 116.366 10
      vertex 116.45 114.466 10
    endloop
  endfacet
  facet normal 0 0 1
    outer loop
      vertex 108.72 109.041 10
      vertex 115.45 110.734 10
      vertex 104.761 116.366 10
    endloop
  endfacet
  facet normal 0 0 1
    outer loop
      vertex 115.45 110.734 10
      vertex 108.72 109.041 10
      vertex 115.932 110.534 10
    endloop
  endfacet
  facet normal 0 0 1
    outer loop
      vertex 115.932 110.534 10
      vertex 108.72 109.041 10
      vertex 116.45 110.466 10
    endloop
  endfacet
  facet normal 0 0 1
    outer loop
      vertex 104.761 116.366 10
      vertex 115.45 110.734 10
      vertex 115.036 111.052 10
    endloop
  endfacet
  facet normal 0 0 1
    outer loop
      vertex 104.761 116.366 10
      vertex 115.036 111.052 10
      vertex 114.718 111.466 10
    endloop
  endfacet
  facet normal 0 0 1
    outer loop
      vertex 104.761 116.366 10
      vertex 114.718 111.466 10
      vertex 114.518 111.948 10
    endloop
  endfacet
  facet normal 0 0 1
    outer loop
      vertex 104.761 116.366 10
      vertex 114.518 111.948 10
      vertex 114.45 112.466 10
    endloop
  endfacet
  facet normal 0 0 1
    outer loop
      vertex 104.761 116.366 10
      vertex 114.45 112.466 10
      vertex 114.518 112.984 10
    endloop
  endfacet
  facet normal 0 0 1
    outer loop
      vertex 104.761 116.366 10
      vertex 114.518 112.984 10
      vertex 114.718 113.466 10
    endloop
  endfacet
  facet normal 0 0 1
    outer loop
      vertex 104.761 116.366 10
      vertex 114.718 113.466 10
      vertex 115.036 113.88 10
    endloop
  endfacet
  facet normal 0 0 1
    outer loop
      vertex 104.761 116.366 10
      vertex 115.036 113.88 10
      vertex 115.45 114.198 10
    endloop
  endfacet
  facet normal 0 0 1
    outer loop
      vertex 104.761 116.366 10
      vertex 115.45 114.198 10
      vertex 115.932 114.398 10
    endloop
  endfacet
  facet normal 0 0 1
    outer loop
      vertex 104.761 116.366 10
      vertex 115.932 114.398 10
      vertex 116.45 114.466 10
    endloop
  endfacet
  facet normal 0 0 1
    outer loop
      vertex 104.761 116.366 10
      vertex 116.45 114.466 10
      vertex 128.139 116.366 10
    endloop
  endfacet
  facet normal 0 1 0
    outer loop
      vertex 107.45 101.866 59
      vertex 104.95 101.866 3.05176e-05
      vertex 104.95 101.866 59
    endloop
  endfacet
  facet normal 0 1 0
    outer loop
      vertex 104.95 101.866 3.05176e-05
      vertex 107.45 101.866 59
      vertex 107.45 101.866 3.05176e-05
    endloop
  endfacet
  facet normal 0 -1 0
    outer loop
      vertex 129.65 98.366 3.05176e-05
      vertex 125.25 98.366 59
      vertex 125.25 98.366 3.05176e-05
    endloop
  endfacet
  facet normal 0 -1 0
    outer loop
      vertex 125.25 98.366 59
      vertex 129.65 98.366 3.05176e-05
      vertex 129.65 98.366 59
    endloop
  endfacet
  facet normal 1 0 0
    outer loop
      vertex 129.95 98.666 3.05176e-05
      vertex 129.95 118.066 59
      vertex 129.95 98.666 59
    endloop
  endfacet
  facet normal 1 1.07921e-06 -3.54858e-07
    outer loop
      vertex 129.95 118.066 59
      vertex 129.95 98.666 3.05176e-05
      vertex 129.95 118.066 16.0004
    endloop
  endfacet
  facet normal 1 0 9.53655e-07
    outer loop
      vertex 129.95 118.066 16.0004
      vertex 129.95 98.666 3.05176e-05
      vertex 129.95 118.366 16.0004
    endloop
  endfacet
  facet normal 1 -3.54599e-06 5.31956e-06
    outer loop
      vertex 129.95 118.366 16.0004
      vertex 129.95 98.666 3.05176e-05
      vertex 129.95 110.955 8.19209
    endloop
  endfacet
  facet normal 1 -2.93436e-06 4.73908e-06
    outer loop
      vertex 129.95 118.366 16.0004
      vertex 129.95 110.955 8.19209
      vertex 129.95 111.583 8.58069
    endloop
  endfacet
  facet normal 1 -1.2336e-06 3.18427e-06
    outer loop
      vertex 129.95 118.366 16.0004
      vertex 129.95 111.583 8.58069
      vertex 129.95 112.271 8.84734
    endloop
  endfacet
  facet normal 1 -4.74308e-07 2.53733e-06
    outer loop
      vertex 129.95 118.366 16.0004
      vertex 129.95 112.271 8.84734
      vertex 129.95 112.997 8.98297
    endloop
  endfacet
  facet normal 1 -4.97684e-06 5.98226e-06
    outer loop
      vertex 129.95 118.366 16.0004
      vertex 129.95 112.997 8.98297
      vertex 129.95 132.621 10.0052
    endloop
  endfacet
  facet normal 1 -4.25096e-06 -7.95302e-06
    outer loop
      vertex 129.95 132.621 10.0052
      vertex 129.95 112.997 8.98297
      vertex 129.95 133.745 9.40454
    endloop
  endfacet
  facet normal 1 0 0
    outer loop
      vertex 129.95 110.955 8.19209
      vertex 129.95 98.666 3.05176e-05
      vertex 129.95 110.41 7.69481
    endloop
  endfacet
  facet normal 1 0 0
    outer loop
      vertex 129.95 110.41 7.69481
      vertex 129.95 98.666 3.05176e-05
      vertex 129.95 109.965 7.10576
    endloop
  endfacet
  facet normal 1 0 0
    outer loop
      vertex 129.95 109.965 7.10576
      vertex 129.95 98.666 3.05176e-05
      vertex 129.95 109.636 6.44499
    endloop
  endfacet
  facet normal 1 0 0
    outer loop
      vertex 129.95 109.636 6.44499
      vertex 129.95 98.666 3.05176e-05
      vertex 129.95 109.434 5.73503
    endloop
  endfacet
  facet normal 1 0 0
    outer loop
      vertex 129.95 109.434 5.73503
      vertex 129.95 98.666 3.05176e-05
      vertex 129.95 109.366 5.00003
    endloop
  endfacet
  facet normal 1 0 0
    outer loop
      vertex 129.95 109.366 5.00003
      vertex 129.95 98.666 3.05176e-05
      vertex 129.95 109.434 4.26503
    endloop
  endfacet
  facet normal 1 0 0
    outer loop
      vertex 129.95 109.434 4.26503
      vertex 129.95 98.666 3.05176e-05
      vertex 129.95 109.636 3.55507
    endloop
  endfacet
  facet normal 1 0 0
    outer loop
      vertex 129.95 109.636 3.55507
      vertex 129.95 98.666 3.05176e-05
      vertex 129.95 109.965 2.8943
    endloop
  endfacet
  facet normal 1 0 0
    outer loop
      vertex 129.95 109.965 2.8943
      vertex 129.95 98.666 3.05176e-05
      vertex 129.95 110.41 2.30525
    endloop
  endfacet
  facet normal 1 0 0
    outer loop
      vertex 129.95 110.41 2.30525
      vertex 129.95 98.666 3.05176e-05
      vertex 129.95 110.955 1.80797
    endloop
  endfacet
  facet normal 1 0 0
    outer loop
      vertex 129.95 110.955 1.80797
      vertex 129.95 98.666 3.05176e-05
      vertex 129.95 111.583 1.41937
    endloop
  endfacet
  facet normal 1 0 0
    outer loop
      vertex 129.95 111.583 1.41937
      vertex 129.95 98.666 3.05176e-05
      vertex 129.95 112.271 1.15273
    endloop
  endfacet
  facet normal 1 0 0
    outer loop
      vertex 129.95 112.271 1.15273
      vertex 129.95 98.666 3.05176e-05
      vertex 129.95 112.997 1.01709
    endloop
  endfacet
  facet normal 1 0 0
    outer loop
      vertex 129.95 112.997 1.01709
      vertex 129.95 98.666 3.05176e-05
      vertex 129.95 113.735 1.01709
    endloop
  endfacet
  facet normal 1 -9.80883e-07 1.4533e-05
    outer loop
      vertex 129.95 113.735 1.01709
      vertex 129.95 98.666 3.05176e-05
      vertex 129.95 135.538 0.388809
    endloop
  endfacet
  facet normal 1 -4.17475e-07 -3.89027e-05
    outer loop
      vertex 129.95 135.538 0.388809
      vertex 129.95 98.666 3.05176e-05
      vertex 129.95 135.219 0
    endloop
  endfacet
  facet normal 1 -4.07309e-06 -2.38394e-05
    outer loop
      vertex 129.95 133.745 9.40454
      vertex 129.95 113.735 8.98297
      vertex 129.95 134.73 8.59618
    endloop
  endfacet
  facet normal 1 0 -0.000217175
    outer loop
      vertex 129.95 113.735 8.98297
      vertex 129.95 133.745 9.40454
      vertex 129.95 112.997 8.98297
    endloop
  endfacet
  facet normal 1 -4.03118e-06 -2.15645e-05
    outer loop
      vertex 129.95 134.73 8.59618
      vertex 129.95 113.735 8.98297
      vertex 129.95 114.461 8.84734
    endloop
  endfacet
  facet normal 1 -3.88834e-06 -1.00372e-05
    outer loop
      vertex 129.95 134.73 8.59618
      vertex 129.95 114.461 8.84734
      vertex 129.95 115.149 8.58069
    endloop
  endfacet
  facet normal 1 -3.89375e-06 -3.19549e-06
    outer loop
      vertex 129.95 134.73 8.59618
      vertex 129.95 115.149 8.58069
      vertex 129.95 135.538 7.61119
    endloop
  endfacet
  facet normal 1 -4.05305e-06 -6.54564e-06
    outer loop
      vertex 129.95 135.538 7.61119
      vertex 129.95 115.149 8.58069
      vertex 129.95 115.777 8.19209
    endloop
  endfacet
  facet normal 1 -3.98928e-06 -4.37608e-06
    outer loop
      vertex 129.95 135.538 7.61119
      vertex 129.95 115.777 8.19209
      vertex 129.95 116.322 7.69481
    endloop
  endfacet
  facet normal 1 -3.98332e-06 -3.00813e-06
    outer loop
      vertex 129.95 135.538 7.61119
      vertex 129.95 116.322 7.69481
      vertex 129.95 116.767 7.10576
    endloop
  endfacet
  facet normal 1 -4.00665e-06 -2.1416e-06
    outer loop
      vertex 129.95 135.538 7.61119
      vertex 129.95 116.767 7.10576
      vertex 129.95 136.139 6.48744
    endloop
  endfacet
  facet normal 1 -4.0019e-06 -1.99263e-06
    outer loop
      vertex 129.95 136.139 6.48744
      vertex 129.95 116.767 7.10576
      vertex 129.95 117.096 6.44499
    endloop
  endfacet
  facet normal 1 -3.97576e-06 -1.37199e-05
    outer loop
      vertex 129.95 136.139 6.48744
      vertex 129.95 117.096 6.44499
      vertex 129.95 136.509 5.26808
    endloop
  endfacet
  facet normal 1 -3.19919e-06 -9.10292e-07
    outer loop
      vertex 129.95 136.509 5.26808
      vertex 129.95 117.096 6.44499
      vertex 129.95 117.298 5.73503
    endloop
  endfacet
  facet normal 1 -3.18424e-06 -2.95029e-07
    outer loop
      vertex 129.95 136.509 5.26808
      vertex 129.95 117.298 5.73503
      vertex 129.95 117.366 5.00003
    endloop
  endfacet
  facet normal 1 -3.18398e-06 -3.13588e-07
    outer loop
      vertex 129.95 136.509 5.26808
      vertex 129.95 117.366 5.00003
      vertex 129.95 136.634 4
    endloop
  endfacet
  facet normal 1 -3.15254e-06 2.92092e-07
    outer loop
      vertex 129.95 136.634 4
      vertex 129.95 117.366 5.00003
      vertex 129.95 117.298 4.26503
    endloop
  endfacet
  facet normal 1 -3.14428e-06 8.94668e-07
    outer loop
      vertex 129.95 136.634 4
      vertex 129.95 117.298 4.26503
      vertex 129.95 117.096 3.55507
    endloop
  endfacet
  facet normal 1 -2.85629e-06 -1.17517e-05
    outer loop
      vertex 129.95 136.634 4
      vertex 129.95 117.096 3.55507
      vertex 129.95 136.509 2.73192
    endloop
  endfacet
  facet normal 1 -2.30925e-06 1.14982e-06
    outer loop
      vertex 129.95 136.509 2.73192
      vertex 129.95 117.096 3.55507
      vertex 129.95 116.767 2.8943
    endloop
  endfacet
  facet normal 1 -2.30439e-06 1.74023e-06
    outer loop
      vertex 129.95 136.509 2.73192
      vertex 129.95 116.767 2.8943
      vertex 129.95 116.322 2.30525
    endloop
  endfacet
  facet normal 1 -2.01605e-06 -1.19023e-05
    outer loop
      vertex 129.95 136.509 2.73192
      vertex 129.95 116.322 2.30525
      vertex 129.95 136.139 1.51256
    endloop
  endfacet
  facet normal 1 -1.47523e-06 1.61827e-06
    outer loop
      vertex 129.95 136.139 1.51256
      vertex 129.95 116.322 2.30525
      vertex 129.95 115.777 1.80797
    endloop
  endfacet
  facet normal 1 -1.46439e-06 2.36498e-06
    outer loop
      vertex 129.95 136.139 1.51256
      vertex 129.95 115.777 1.80797
      vertex 129.95 115.149 1.41937
    endloop
  endfacet
  facet normal 1 -1.45735e-06 7.78971e-07
    outer loop
      vertex 129.95 136.139 1.51256
      vertex 129.95 115.149 1.41937
      vertex 129.95 135.538 0.388809
    endloop
  endfacet
  facet normal 1 -1.32398e-06 3.41766e-06
    outer loop
      vertex 129.95 135.538 0.388809
      vertex 129.95 115.149 1.41937
      vertex 129.95 114.461 1.15273
    endloop
  endfacet
  facet normal 1 -1.21273e-06 6.48739e-06
    outer loop
      vertex 129.95 135.538 0.388809
      vertex 129.95 114.461 1.15273
      vertex 129.95 113.735 1.01709
    endloop
  endfacet
  facet normal 0 1 0
    outer loop
      vertex 127.95 101.866 59
      vertex 125.45 101.866 3.05176e-05
      vertex 125.45 101.866 59
    endloop
  endfacet
  facet normal 0 1 0
    outer loop
      vertex 125.45 101.866 3.05176e-05
      vertex 127.95 101.866 59
      vertex 127.95 101.866 3.05176e-05
    endloop
  endfacet
  facet normal -1 -5.65141e-06 0
    outer loop
      vertex 124.95 101.366 3.05176e-05
      vertex 124.95 98.666 59
      vertex 124.95 101.366 59
    endloop
  endfacet
  facet normal -1 -5.65141e-06 0
    outer loop
      vertex 124.95 98.666 59
      vertex 124.95 101.366 3.05176e-05
      vertex 124.95 98.666 3.05176e-05
    endloop
  endfacet
  facet normal -1 0 0
    outer loop
      vertex 127.95 108.566 3.05176e-05
      vertex 127.95 101.866 59
      vertex 127.95 108.566 59
    endloop
  endfacet
  facet normal -1 0 0
    outer loop
      vertex 127.95 101.866 59
      vertex 127.95 108.566 3.05176e-05
      vertex 127.95 101.866 3.05176e-05
    endloop
  endfacet
  facet normal -1 0 0
    outer loop
      vertex 102.95 118.066 16.0001
      vertex 102.95 98.666 59
      vertex 102.95 118.066 59
    endloop
  endfacet
  facet normal -1 0 0
    outer loop
      vertex 102.95 98.666 59
      vertex 102.95 118.066 16.0001
      vertex 102.95 98.666 3.05176e-05
    endloop
  endfacet
  facet normal -1 0.000152582 -0.000185005
    outer loop
      vertex 102.95 98.666 3.05176e-05
      vertex 102.95 118.066 16.0001
      vertex 102.95 118.366 16.0001
    endloop
  endfacet
  facet normal -1 5.72932e-06 -4.1932e-06
    outer loop
      vertex 102.95 98.666 3.05176e-05
      vertex 102.95 118.366 16.0001
      vertex 102.95 132.621 10.0053
    endloop
  endfacet
  facet normal -1 -1.92843e-06 2.17955e-05
    outer loop
      vertex 102.95 98.666 3.05176e-05
      vertex 102.95 132.621 10.0053
      vertex 102.95 133.745 9.40459
    endloop
  endfacet
  facet normal -1 2.95086e-06 3.59563e-06
    outer loop
      vertex 102.95 98.666 3.05176e-05
      vertex 102.95 133.745 9.40459
      vertex 102.95 134.73 8.59624
    endloop
  endfacet
  facet normal -1 3.18489e-06 2.61379e-06
    outer loop
      vertex 102.95 98.666 3.05176e-05
      vertex 102.95 134.73 8.59624
      vertex 102.95 135.539 7.61125
    endloop
  endfacet
  facet normal -1 3.35433e-06 1.79292e-06
    outer loop
      vertex 102.95 98.666 3.05176e-05
      vertex 102.95 135.539 7.61125
      vertex 102.95 136.139 6.48749
    endloop
  endfacet
  facet normal -1 1.42354e-06 1.29457e-05
    outer loop
      vertex 102.95 98.666 3.05176e-05
      vertex 102.95 136.139 6.48749
      vertex 102.95 136.509 5.26814
    endloop
  endfacet
  facet normal -1 3.18207e-06 3.13401e-07
    outer loop
      vertex 102.95 98.666 3.05176e-05
      vertex 102.95 136.509 5.26814
      vertex 102.95 136.634 4.00006
    endloop
  endfacet
  facet normal -1 1.9678e-06 1.18392e-05
    outer loop
      vertex 102.95 98.666 3.05176e-05
      vertex 102.95 136.634 4.00006
      vertex 102.95 136.509 2.73198
    endloop
  endfacet
  facet normal -1 1.96206e-06 1.19187e-05
    outer loop
      vertex 102.95 98.666 3.05176e-05
      vertex 102.95 136.509 2.73198
      vertex 102.95 136.139 1.51262
    endloop
  endfacet
  facet normal -1 2.49702e-06 -1.33469e-06
    outer loop
      vertex 102.95 98.666 3.05176e-05
      vertex 102.95 136.139 1.51262
      vertex 102.95 135.539 0.38887
    endloop
  endfacet
  facet normal -1 2.08716e-06 3.75324e-05
    outer loop
      vertex 102.95 98.666 3.05176e-05
      vertex 102.95 135.539 0.38887
      vertex 102.95 135.219 6.10352e-05
    endloop
  endfacet
  facet normal 0 -1 0
    outer loop
      vertex 107.65 98.366 3.05176e-05
      vertex 103.25 98.366 59
      vertex 103.25 98.366 3.05176e-05
    endloop
  endfacet
  facet normal 0 -1 0
    outer loop
      vertex 103.25 98.366 59
      vertex 107.65 98.366 3.05176e-05
      vertex 107.65 98.366 59
    endloop
  endfacet
  facet normal -0.879698 0.475533 0
    outer loop
      vertex 128.139 116.366 10
      vertex 124.18 109.041 59
      vertex 128.139 116.366 59
    endloop
  endfacet
  facet normal -0.879698 0.475533 0
    outer loop
      vertex 124.18 109.041 59
      vertex 128.139 116.366 10
      vertex 124.18 109.041 10
    endloop
  endfacet
  facet normal 0.879699 0.475532 0
    outer loop
      vertex 108.72 109.041 10
      vertex 104.761 116.366 59
      vertex 108.72 109.041 59
    endloop
  endfacet
  facet normal 0.879699 0.475532 0
    outer loop
      vertex 104.761 116.366 59
      vertex 108.72 109.041 10
      vertex 104.761 116.366 10
    endloop
  endfacet
  facet normal 0 -1 0
    outer loop
      vertex 104.95 108.566 3.05176e-05
      vertex 108.477 108.566 10
      vertex 104.95 108.566 59
    endloop
  endfacet
  facet normal 0 -1 0
    outer loop
      vertex 108.477 108.566 10
      vertex 104.95 108.566 3.05176e-05
      vertex 127.95 108.566 3.05176e-05
    endloop
  endfacet
  facet normal 0 -1 0
    outer loop
      vertex 108.477 108.566 10
      vertex 127.95 108.566 3.05176e-05
      vertex 124.423 108.566 10
    endloop
  endfacet
  facet normal 0 -1 0
    outer loop
      vertex 124.423 108.566 10
      vertex 127.95 108.566 3.05176e-05
      vertex 124.423 108.566 59
    endloop
  endfacet
  facet normal 0 -1 0
    outer loop
      vertex 124.423 108.566 59
      vertex 127.95 108.566 3.05176e-05
      vertex 127.95 108.566 59
    endloop
  endfacet
  facet normal 0 -1 0
    outer loop
      vertex 108.477 108.566 59
      vertex 104.95 108.566 59
      vertex 108.477 108.566 10
    endloop
  endfacet
  facet normal 1 0 0
    outer loop
      vertex 104.95 101.866 3.05176e-05
      vertex 104.95 108.566 59
      vertex 104.95 101.866 59
    endloop
  endfacet
  facet normal 1 0 0
    outer loop
      vertex 104.95 108.566 59
      vertex 104.95 101.866 3.05176e-05
      vertex 104.95 108.566 3.05176e-05
    endloop
  endfacet
  facet normal -0.889538 -0.456862 0
    outer loop
      vertex 124.18 109.041 10
      vertex 124.423 108.566 59
      vertex 124.18 109.041 59
    endloop
  endfacet
  facet normal -0.889538 -0.456862 0
    outer loop
      vertex 124.423 108.566 59
      vertex 124.18 109.041 10
      vertex 124.423 108.566 10
    endloop
  endfacet
  facet normal 0.889526 -0.456885 0
    outer loop
      vertex 108.477 108.566 10
      vertex 108.72 109.041 59
      vertex 108.477 108.566 59
    endloop
  endfacet
  facet normal 0.889526 -0.456885 0
    outer loop
      vertex 108.72 109.041 59
      vertex 108.477 108.566 10
      vertex 108.72 109.041 10
    endloop
  endfacet
  facet normal 0.707107 -0.707107 0
    outer loop
      vertex 129.65 98.366 3.05176e-05
      vertex 129.95 98.666 59
      vertex 129.65 98.366 59
    endloop
  endfacet
  facet normal 0.707107 -0.707107 0
    outer loop
      vertex 129.95 98.666 59
      vertex 129.65 98.366 3.05176e-05
      vertex 129.95 98.666 3.05176e-05
    endloop
  endfacet
  facet normal -0.707107 -0.707107 0
    outer loop
      vertex 102.95 98.666 3.05176e-05
      vertex 103.25 98.366 59
      vertex 102.95 98.666 59
    endloop
  endfacet
  facet normal -0.707107 -0.707107 0
    outer loop
      vertex 103.25 98.366 59
      vertex 102.95 98.666 3.05176e-05
      vertex 103.25 98.366 3.05176e-05
    endloop
  endfacet
  facet normal 1 -0.000170233 0
    outer loop
      vertex 107.95 98.677 3.05176e-05
      vertex 107.95 101.366 59
      vertex 107.95 98.677 59
    endloop
  endfacet
  facet normal 1 -0.000170233 0
    outer loop
      vertex 107.95 101.366 59
      vertex 107.95 98.677 3.05176e-05
      vertex 107.95 101.366 3.05176e-05
    endloop
  endfacet
  facet normal 0.707107 0.707107 0
    outer loop
      vertex 107.95 101.366 59
      vertex 107.45 101.866 3.05176e-05
      vertex 107.45 101.866 59
    endloop
  endfacet
  facet normal 0.707107 0.707107 0
    outer loop
      vertex 107.45 101.866 3.05176e-05
      vertex 107.95 101.366 59
      vertex 107.95 101.366 3.05176e-05
    endloop
  endfacet
  facet normal 0.720218 -0.693748 0
    outer loop
      vertex 107.65 98.366 3.05176e-05
      vertex 107.95 98.677 59
      vertex 107.65 98.366 59
    endloop
  endfacet
  facet normal 0.720218 -0.693748 0
    outer loop
      vertex 107.95 98.677 59
      vertex 107.65 98.366 3.05176e-05
      vertex 107.95 98.677 3.05176e-05
    endloop
  endfacet
  facet normal -0.707107 -0.707107 0
    outer loop
      vertex 124.95 98.666 3.05176e-05
      vertex 125.25 98.366 59
      vertex 124.95 98.666 59
    endloop
  endfacet
  facet normal -0.707107 -0.707107 0
    outer loop
      vertex 125.25 98.366 59
      vertex 124.95 98.666 3.05176e-05
      vertex 125.25 98.366 3.05176e-05
    endloop
  endfacet
  facet normal -0.707107 0.707107 0
    outer loop
      vertex 125.45 101.866 3.05176e-05
      vertex 124.95 101.366 59
      vertex 125.45 101.866 59
    endloop
  endfacet
  facet normal -0.707107 0.707107 0
    outer loop
      vertex 124.95 101.366 59
      vertex 125.45 101.866 3.05176e-05
      vertex 124.95 101.366 3.05176e-05
    endloop
  endfacet
  facet normal 0 0 1
    outer loop
      vertex 108.72 109.041 59
      vertex 104.95 108.566 59
      vertex 108.477 108.566 59
    endloop
  endfacet
  facet normal 0 0 1
    outer loop
      vertex 109.45 118.366 59
      vertex 104.761 116.366 59
      vertex 109.45 116.366 59
    endloop
  endfacet
  facet normal 0 0 1
    outer loop
      vertex 104.761 116.366 59
      vertex 109.45 118.366 59
      vertex 102.95 118.066 59
    endloop
  endfacet
  facet normal 0 0 1
    outer loop
      vertex 102.95 118.066 59
      vertex 109.45 118.366 59
      vertex 103.25 118.366 59
    endloop
  endfacet
  facet normal 0 0 1
    outer loop
      vertex 107.65 98.366 59
      vertex 102.95 98.666 59
      vertex 103.25 98.366 59
    endloop
  endfacet
  facet normal 0 0 1
    outer loop
      vertex 102.95 98.666 59
      vertex 107.65 98.366 59
      vertex 107.95 98.677 59
    endloop
  endfacet
  facet normal 0 0 1
    outer loop
      vertex 102.95 98.666 59
      vertex 107.95 98.677 59
      vertex 104.95 101.866 59
    endloop
  endfacet
  facet normal 0 0 1
    outer loop
      vertex 102.95 98.666 59
      vertex 104.95 101.866 59
      vertex 102.95 118.066 59
    endloop
  endfacet
  facet normal 0 0 1
    outer loop
      vertex 104.95 101.866 59
      vertex 107.95 98.677 59
      vertex 107.95 101.366 59
    endloop
  endfacet
  facet normal 0 0 1
    outer loop
      vertex 104.95 101.866 59
      vertex 107.95 101.366 59
      vertex 107.45 101.866 59
    endloop
  endfacet
  facet normal 0 0 1
    outer loop
      vertex 102.95 118.066 59
      vertex 104.95 101.866 59
      vertex 104.95 108.566 59
    endloop
  endfacet
  facet normal 0 0 1
    outer loop
      vertex 102.95 118.066 59
      vertex 104.95 108.566 59
      vertex 108.72 109.041 59
    endloop
  endfacet
  facet normal 0 0 1
    outer loop
      vertex 102.95 118.066 59
      vertex 108.72 109.041 59
      vertex 104.761 116.366 59
    endloop
  endfacet
  facet normal 1 0 0
    outer loop
      vertex 119.05 112.976 6.96161
      vertex 119.05 113.756 6.96161
      vertex 119.05 113.366 7.00003
    endloop
  endfacet
  facet normal 1 0 0
    outer loop
      vertex 119.05 113.756 6.96161
      vertex 119.05 112.976 6.96161
      vertex 119.05 112.601 6.84779
    endloop
  endfacet
  facet normal 1 0 0
    outer loop
      vertex 119.05 113.756 6.96161
      vertex 119.05 112.601 6.84779
      vertex 119.05 114.131 6.84779
    endloop
  endfacet
  facet normal 1 0 0
    outer loop
      vertex 119.05 114.131 6.84779
      vertex 119.05 112.601 6.84779
      vertex 119.05 112.255 6.66298
    endloop
  endfacet
  facet normal 1 0 0
    outer loop
      vertex 119.05 114.131 6.84779
      vertex 119.05 112.255 6.66298
      vertex 119.05 114.477 6.66298
    endloop
  endfacet
  facet normal 1 0 0
    outer loop
      vertex 119.05 114.477 6.66298
      vertex 119.05 112.255 6.66298
      vertex 119.05 111.952 6.41425
    endloop
  endfacet
  facet normal 1 0 0
    outer loop
      vertex 119.05 114.477 6.66298
      vertex 119.05 111.952 6.41425
      vertex 119.05 114.78 6.41425
    endloop
  endfacet
  facet normal 1 0 0
    outer loop
      vertex 119.05 114.78 6.41425
      vertex 119.05 111.952 6.41425
      vertex 119.05 111.703 6.11118
    endloop
  endfacet
  facet normal 1 0 0
    outer loop
      vertex 119.05 114.78 6.41425
      vertex 119.05 111.703 6.11118
      vertex 119.05 115.029 6.11118
    endloop
  endfacet
  facet normal 1 0 0
    outer loop
      vertex 119.05 115.029 6.11118
      vertex 119.05 111.703 6.11118
      vertex 119.05 111.518 5.7654
    endloop
  endfacet
  facet normal 1 0 0
    outer loop
      vertex 119.05 115.029 6.11118
      vertex 119.05 111.518 5.7654
      vertex 119.05 115.214 5.7654
    endloop
  endfacet
  facet normal 1 0 0
    outer loop
      vertex 119.05 115.214 5.7654
      vertex 119.05 111.518 5.7654
      vertex 119.05 111.404 5.39021
    endloop
  endfacet
  facet normal 1 0 0
    outer loop
      vertex 119.05 115.214 5.7654
      vertex 119.05 111.404 5.39021
      vertex 119.05 115.328 5.39021
    endloop
  endfacet
  facet normal 1 0 0
    outer loop
      vertex 119.05 115.328 5.39021
      vertex 119.05 111.404 5.39021
      vertex 119.05 111.366 5.00003
    endloop
  endfacet
  facet normal 1 0 0
    outer loop
      vertex 119.05 115.328 5.39021
      vertex 119.05 111.366 5.00003
      vertex 119.05 115.366 5.00003
    endloop
  endfacet
  facet normal 1 0 0
    outer loop
      vertex 119.05 115.366 5.00003
      vertex 119.05 111.366 5.00003
      vertex 119.05 111.404 4.60985
    endloop
  endfacet
  facet normal 1 0 0
    outer loop
      vertex 119.05 115.366 5.00003
      vertex 119.05 111.404 4.60985
      vertex 119.05 115.328 4.60985
    endloop
  endfacet
  facet normal 1 0 0
    outer loop
      vertex 119.05 115.328 4.60985
      vertex 119.05 111.404 4.60985
      vertex 119.05 111.518 4.23466
    endloop
  endfacet
  facet normal 1 0 0
    outer loop
      vertex 119.05 115.328 4.60985
      vertex 119.05 111.518 4.23466
      vertex 119.05 115.214 4.23466
    endloop
  endfacet
  facet normal 1 0 0
    outer loop
      vertex 119.05 115.214 4.23466
      vertex 119.05 111.518 4.23466
      vertex 119.05 115.029 3.8889
    endloop
  endfacet
  facet normal 1 0 0
    outer loop
      vertex 119.05 115.029 3.8889
      vertex 119.05 111.518 4.23466
      vertex 119.05 111.703 3.8889
    endloop
  endfacet
  facet normal 1 0 0
    outer loop
      vertex 119.05 115.029 3.8889
      vertex 119.05 111.703 3.8889
      vertex 119.05 111.952 3.58582
    endloop
  endfacet
  facet normal 1 0 0
    outer loop
      vertex 119.05 115.029 3.8889
      vertex 119.05 111.952 3.58582
      vertex 119.05 114.78 3.58582
    endloop
  endfacet
  facet normal 1 0 0
    outer loop
      vertex 119.05 114.78 3.58582
      vertex 119.05 111.952 3.58582
      vertex 119.05 112.255 3.3371
    endloop
  endfacet
  facet normal 1 0 0
    outer loop
      vertex 119.05 114.78 3.58582
      vertex 119.05 112.255 3.3371
      vertex 119.05 114.477 3.3371
    endloop
  endfacet
  facet normal 1 0 0
    outer loop
      vertex 119.05 114.477 3.3371
      vertex 119.05 112.255 3.3371
      vertex 119.05 112.601 3.15227
    endloop
  endfacet
  facet normal 1 0 0
    outer loop
      vertex 119.05 114.477 3.3371
      vertex 119.05 112.601 3.15227
      vertex 119.05 114.131 3.15227
    endloop
  endfacet
  facet normal 1 0 0
    outer loop
      vertex 119.05 114.131 3.15227
      vertex 119.05 112.601 3.15227
      vertex 119.05 112.976 3.03847
    endloop
  endfacet
  facet normal 1 0 0
    outer loop
      vertex 119.05 114.131 3.15227
      vertex 119.05 112.976 3.03847
      vertex 119.05 113.756 3.03847
    endloop
  endfacet
  facet normal 1 0 0
    outer loop
      vertex 119.05 113.756 3.03847
      vertex 119.05 112.976 3.03847
      vertex 119.05 113.366 3.00003
    endloop
  endfacet
  facet normal 0 -0.995187 0.097997
    outer loop
      vertex 132.05 115.328 4.60985
      vertex 119.05 115.366 5.00003
      vertex 119.05 115.328 4.60985
    endloop
  endfacet
  facet normal 0 -0.995187 0.097997
    outer loop
      vertex 119.05 115.366 5.00003
      vertex 132.05 115.328 4.60985
      vertex 132.05 115.366 5.00003
    endloop
  endfacet
  facet normal 0 -0.995187 -0.0979979
    outer loop
      vertex 132.05 115.366 5.00003
      vertex 119.05 115.328 5.39021
      vertex 119.05 115.366 5.00003
    endloop
  endfacet
  facet normal 0 -0.995187 -0.0979979
    outer loop
      vertex 119.05 115.328 5.39021
      vertex 132.05 115.366 5.00003
      vertex 132.05 115.328 5.39021
    endloop
  endfacet
  facet normal 0 -0.956938 -0.290293
    outer loop
      vertex 132.05 115.328 5.39021
      vertex 119.05 115.214 5.7654
      vertex 119.05 115.328 5.39021
    endloop
  endfacet
  facet normal 0 -0.956938 -0.290293
    outer loop
      vertex 119.05 115.214 5.7654
      vertex 132.05 115.328 5.39021
      vertex 132.05 115.214 5.7654
    endloop
  endfacet
  facet normal 0 -0.881928 -0.471384
    outer loop
      vertex 132.05 115.214 5.7654
      vertex 119.05 115.029 6.11118
      vertex 119.05 115.214 5.7654
    endloop
  endfacet
  facet normal 0 -0.881928 -0.471384
    outer loop
      vertex 119.05 115.029 6.11118
      vertex 132.05 115.214 5.7654
      vertex 132.05 115.029 6.11118
    endloop
  endfacet
  facet normal 0 -0.772997 -0.634409
    outer loop
      vertex 132.05 115.029 6.11118
      vertex 119.05 114.78 6.41425
      vertex 119.05 115.029 6.11118
    endloop
  endfacet
  facet normal 0 -0.772997 -0.634409
    outer loop
      vertex 119.05 114.78 6.41425
      vertex 132.05 115.029 6.11118
      vertex 132.05 114.78 6.41425
    endloop
  endfacet
  facet normal 0 -0.634397 -0.773007
    outer loop
      vertex 119.05 114.78 6.41425
      vertex 132.05 114.477 6.66298
      vertex 119.05 114.477 6.66298
    endloop
  endfacet
  facet normal 0 -0.634397 -0.773007
    outer loop
      vertex 132.05 114.477 6.66298
      vertex 119.05 114.78 6.41425
      vertex 132.05 114.78 6.41425
    endloop
  endfacet
  facet normal 0 -0.471395 -0.881922
    outer loop
      vertex 119.05 114.477 6.66298
      vertex 132.05 114.131 6.84779
      vertex 119.05 114.131 6.84779
    endloop
  endfacet
  facet normal 0 -0.471395 -0.881922
    outer loop
      vertex 132.05 114.131 6.84779
      vertex 119.05 114.477 6.66298
      vertex 132.05 114.477 6.66298
    endloop
  endfacet
  facet normal 0 -0.290287 -0.95694
    outer loop
      vertex 119.05 114.131 6.84779
      vertex 132.05 113.756 6.96161
      vertex 119.05 113.756 6.96161
    endloop
  endfacet
  facet normal 0 -0.290287 -0.95694
    outer loop
      vertex 132.05 113.756 6.96161
      vertex 119.05 114.131 6.84779
      vertex 132.05 114.131 6.84779
    endloop
  endfacet
  facet normal 0 -0.0980162 -0.995185
    outer loop
      vertex 119.05 113.756 6.96161
      vertex 132.05 113.366 7.00003
      vertex 119.05 113.366 7.00003
    endloop
  endfacet
  facet normal 0 -0.0980162 -0.995185
    outer loop
      vertex 132.05 113.366 7.00003
      vertex 119.05 113.756 6.96161
      vertex 132.05 113.756 6.96161
    endloop
  endfacet
  facet normal 0 0.0980162 -0.995185
    outer loop
      vertex 119.05 113.366 7.00003
      vertex 132.05 112.976 6.96161
      vertex 119.05 112.976 6.96161
    endloop
  endfacet
  facet normal 0 0.0980162 -0.995185
    outer loop
      vertex 132.05 112.976 6.96161
      vertex 119.05 113.366 7.00003
      vertex 132.05 113.366 7.00003
    endloop
  endfacet
  facet normal 0 0.290287 -0.95694
    outer loop
      vertex 119.05 112.976 6.96161
      vertex 132.05 112.601 6.84779
      vertex 119.05 112.601 6.84779
    endloop
  endfacet
  facet normal 0 0.290287 -0.95694
    outer loop
      vertex 132.05 112.601 6.84779
      vertex 119.05 112.976 6.96161
      vertex 132.05 112.976 6.96161
    endloop
  endfacet
  facet normal 0 0.471395 -0.881922
    outer loop
      vertex 119.05 112.601 6.84779
      vertex 132.05 112.255 6.66298
      vertex 119.05 112.255 6.66298
    endloop
  endfacet
  facet normal 0 0.471395 -0.881922
    outer loop
      vertex 132.05 112.255 6.66298
      vertex 119.05 112.601 6.84779
      vertex 132.05 112.601 6.84779
    endloop
  endfacet
  facet normal 0 0.634397 -0.773007
    outer loop
      vertex 119.05 112.255 6.66298
      vertex 132.05 111.952 6.41425
      vertex 119.05 111.952 6.41425
    endloop
  endfacet
  facet normal 0 0.634397 -0.773007
    outer loop
      vertex 132.05 111.952 6.41425
      vertex 119.05 112.255 6.66298
      vertex 132.05 112.255 6.66298
    endloop
  endfacet
  facet normal 0 0.773017 -0.634386
    outer loop
      vertex 132.05 111.952 6.41425
      vertex 119.05 111.703 6.11118
      vertex 119.05 111.952 6.41425
    endloop
  endfacet
  facet normal 0 0.773017 -0.634386
    outer loop
      vertex 119.05 111.703 6.11118
      vertex 132.05 111.952 6.41425
      vertex 132.05 111.703 6.11118
    endloop
  endfacet
  facet normal 0 0.881912 -0.471414
    outer loop
      vertex 132.05 111.703 6.11118
      vertex 119.05 111.518 5.7654
      vertex 119.05 111.703 6.11118
    endloop
  endfacet
  facet normal 0 0.881912 -0.471414
    outer loop
      vertex 119.05 111.518 5.7654
      vertex 132.05 111.703 6.11118
      vertex 132.05 111.518 5.7654
    endloop
  endfacet
  facet normal 0 0.956949 -0.290257
    outer loop
      vertex 132.05 111.518 5.7654
      vertex 119.05 111.404 5.39021
      vertex 119.05 111.518 5.7654
    endloop
  endfacet
  facet normal 0 0.956949 -0.290257
    outer loop
      vertex 119.05 111.404 5.39021
      vertex 132.05 111.518 5.7654
      vertex 132.05 111.404 5.39021
    endloop
  endfacet
  facet normal 0 0.995183 -0.0980364
    outer loop
      vertex 132.05 111.404 5.39021
      vertex 119.05 111.366 5.00003
      vertex 119.05 111.404 5.39021
    endloop
  endfacet
  facet normal 0 0.995183 -0.0980364
    outer loop
      vertex 119.05 111.366 5.00003
      vertex 132.05 111.404 5.39021
      vertex 132.05 111.366 5.00003
    endloop
  endfacet
  facet normal 0 0.995183 0.0980355
    outer loop
      vertex 132.05 111.366 5.00003
      vertex 119.05 111.404 4.60985
      vertex 119.05 111.366 5.00003
    endloop
  endfacet
  facet normal 0 0.995183 0.0980355
    outer loop
      vertex 119.05 111.404 4.60985
      vertex 132.05 111.366 5.00003
      vertex 132.05 111.404 4.60985
    endloop
  endfacet
  facet normal 0 0.956949 0.290257
    outer loop
      vertex 132.05 111.404 4.60985
      vertex 119.05 111.518 4.23466
      vertex 119.05 111.404 4.60985
    endloop
  endfacet
  facet normal 0 0.956949 0.290257
    outer loop
      vertex 119.05 111.518 4.23466
      vertex 132.05 111.404 4.60985
      vertex 132.05 111.518 4.23466
    endloop
  endfacet
  facet normal 0 0.88191 0.471418
    outer loop
      vertex 132.05 111.518 4.23466
      vertex 119.05 111.703 3.8889
      vertex 119.05 111.518 4.23466
    endloop
  endfacet
  facet normal 0 0.88191 0.471418
    outer loop
      vertex 119.05 111.703 3.8889
      vertex 132.05 111.518 4.23466
      vertex 132.05 111.703 3.8889
    endloop
  endfacet
  facet normal 0 0.773021 0.634381
    outer loop
      vertex 132.05 111.703 3.8889
      vertex 119.05 111.952 3.58582
      vertex 119.05 111.703 3.8889
    endloop
  endfacet
  facet normal 0 0.773021 0.634381
    outer loop
      vertex 119.05 111.952 3.58582
      vertex 132.05 111.703 3.8889
      vertex 132.05 111.952 3.58582
    endloop
  endfacet
  facet normal 0 0.634397 0.773007
    outer loop
      vertex 132.05 112.255 3.3371
      vertex 119.05 111.952 3.58582
      vertex 132.05 111.952 3.58582
    endloop
  endfacet
  facet normal 0 0.634397 0.773007
    outer loop
      vertex 119.05 111.952 3.58582
      vertex 132.05 112.255 3.3371
      vertex 119.05 112.255 3.3371
    endloop
  endfacet
  facet normal 0 0.471387 0.881926
    outer loop
      vertex 132.05 112.601 3.15227
      vertex 119.05 112.255 3.3371
      vertex 132.05 112.255 3.3371
    endloop
  endfacet
  facet normal 0 0.471387 0.881926
    outer loop
      vertex 119.05 112.255 3.3371
      vertex 132.05 112.601 3.15227
      vertex 119.05 112.601 3.15227
    endloop
  endfacet
  facet normal 0 0.290287 0.95694
    outer loop
      vertex 132.05 112.976 3.03847
      vertex 119.05 112.601 3.15227
      vertex 132.05 112.601 3.15227
    endloop
  endfacet
  facet normal 0 0.290287 0.95694
    outer loop
      vertex 119.05 112.601 3.15227
      vertex 132.05 112.976 3.03847
      vertex 119.05 112.976 3.03847
    endloop
  endfacet
  facet normal 0 0.0980162 0.995185
    outer loop
      vertex 132.05 113.366 3.00003
      vertex 119.05 112.976 3.03847
      vertex 132.05 112.976 3.03847
    endloop
  endfacet
  facet normal 0 0.0980162 0.995185
    outer loop
      vertex 119.05 112.976 3.03847
      vertex 132.05 113.366 3.00003
      vertex 119.05 113.366 3.00003
    endloop
  endfacet
  facet normal 0 -0.0980162 0.995185
    outer loop
      vertex 132.05 113.756 3.03847
      vertex 119.05 113.366 3.00003
      vertex 132.05 113.366 3.00003
    endloop
  endfacet
  facet normal 0 -0.0980162 0.995185
    outer loop
      vertex 119.05 113.366 3.00003
      vertex 132.05 113.756 3.03847
      vertex 119.05 113.756 3.03847
    endloop
  endfacet
  facet normal 0 -0.290287 0.95694
    outer loop
      vertex 132.05 114.131 3.15227
      vertex 119.05 113.756 3.03847
      vertex 132.05 113.756 3.03847
    endloop
  endfacet
  facet normal 0 -0.290287 0.95694
    outer loop
      vertex 119.05 113.756 3.03847
      vertex 132.05 114.131 3.15227
      vertex 119.05 114.131 3.15227
    endloop
  endfacet
  facet normal 0 -0.471387 0.881926
    outer loop
      vertex 132.05 114.477 3.3371
      vertex 119.05 114.131 3.15227
      vertex 132.05 114.131 3.15227
    endloop
  endfacet
  facet normal 0 -0.471387 0.881926
    outer loop
      vertex 119.05 114.131 3.15227
      vertex 132.05 114.477 3.3371
      vertex 119.05 114.477 3.3371
    endloop
  endfacet
  facet normal 0 -0.634397 0.773007
    outer loop
      vertex 132.05 114.78 3.58582
      vertex 119.05 114.477 3.3371
      vertex 132.05 114.477 3.3371
    endloop
  endfacet
  facet normal 0 -0.634397 0.773007
    outer loop
      vertex 119.05 114.477 3.3371
      vertex 132.05 114.78 3.58582
      vertex 119.05 114.78 3.58582
    endloop
  endfacet
  facet normal 0 -0.773001 0.634404
    outer loop
      vertex 132.05 114.78 3.58582
      vertex 119.05 115.029 3.8889
      vertex 119.05 114.78 3.58582
    endloop
  endfacet
  facet normal 0 -0.773001 0.634404
    outer loop
      vertex 119.05 115.029 3.8889
      vertex 132.05 114.78 3.58582
      vertex 132.05 115.029 3.8889
    endloop
  endfacet
  facet normal 0 -0.881926 0.471388
    outer loop
      vertex 132.05 115.029 3.8889
      vertex 119.05 115.214 4.23466
      vertex 119.05 115.029 3.8889
    endloop
  endfacet
  facet normal 0 -0.881926 0.471388
    outer loop
      vertex 119.05 115.214 4.23466
      vertex 132.05 115.029 3.8889
      vertex 132.05 115.214 4.23466
    endloop
  endfacet
  facet normal 0 -0.956938 0.290293
    outer loop
      vertex 132.05 115.214 4.23466
      vertex 119.05 115.328 4.60985
      vertex 119.05 115.214 4.23466
    endloop
  endfacet
  facet normal 0 -0.956938 0.290293
    outer loop
      vertex 119.05 115.328 4.60985
      vertex 132.05 115.214 4.23466
      vertex 132.05 115.328 4.60985
    endloop
  endfacet
  facet normal 2.93312e-06 0.471395 0.881922
    outer loop
      vertex 129.95 133.745 9.40454
      vertex 102.95 132.621 10.0053
      vertex 129.95 132.621 10.0052
    endloop
  endfacet
  facet normal 2.66807e-06 0.4714 0.881919
    outer loop
      vertex 102.95 132.621 10.0053
      vertex 129.95 133.745 9.40454
      vertex 102.95 133.745 9.40459
    endloop
  endfacet
  facet normal 2.71309e-06 0.634394 0.77301
    outer loop
      vertex 129.95 134.73 8.59618
      vertex 102.95 133.745 9.40459
      vertex 129.95 133.745 9.40454
    endloop
  endfacet
  facet normal 2.71309e-06 0.634394 0.77301
    outer loop
      vertex 102.95 133.745 9.40459
      vertex 129.95 134.73 8.59618
      vertex 102.95 134.73 8.59624
    endloop
  endfacet
  facet normal 3.0925e-06 0.773007 0.634397
    outer loop
      vertex 102.95 134.73 8.59624
      vertex 129.95 135.538 7.61119
      vertex 102.95 135.539 7.61125
    endloop
  endfacet
  facet normal 2.65593e-06 0.773013 0.63439
    outer loop
      vertex 129.95 135.538 7.61119
      vertex 102.95 134.73 8.59624
      vertex 129.95 134.73 8.59618
    endloop
  endfacet
  facet normal 2.99376e-06 0.881921 0.471397
    outer loop
      vertex 102.95 135.539 7.61125
      vertex 129.95 136.139 6.48744
      vertex 102.95 136.139 6.48749
    endloop
  endfacet
  facet normal 2.99376e-06 0.881921 0.471397
    outer loop
      vertex 129.95 136.139 6.48744
      vertex 102.95 135.539 7.61125
      vertex 129.95 135.538 7.61119
    endloop
  endfacet
  facet normal 2.73735e-06 0.95694 0.290286
    outer loop
      vertex 102.95 136.139 6.48749
      vertex 129.95 136.509 5.26808
      vertex 102.95 136.509 5.26814
    endloop
  endfacet
  facet normal 2.77807e-06 0.95694 0.290287
    outer loop
      vertex 129.95 136.509 5.26808
      vertex 102.95 136.139 6.48749
      vertex 129.95 136.139 6.48744
    endloop
  endfacet
  facet normal 2.45755e-06 0.995185 0.0980156
    outer loop
      vertex 102.95 136.509 5.26814
      vertex 129.95 136.634 4
      vertex 102.95 136.634 4.00006
    endloop
  endfacet
  facet normal 2.44369e-06 0.995185 0.0980153
    outer loop
      vertex 129.95 136.634 4
      vertex 102.95 136.509 5.26814
      vertex 129.95 136.509 5.26808
    endloop
  endfacet
  facet normal 2.04175e-06 0.995185 -0.0980156
    outer loop
      vertex 102.95 136.634 4.00006
      vertex 129.95 136.509 2.73192
      vertex 102.95 136.509 2.73198
    endloop
  endfacet
  facet normal 2.04175e-06 0.995185 -0.0980156
    outer loop
      vertex 129.95 136.509 2.73192
      vertex 102.95 136.634 4.00006
      vertex 129.95 136.634 4
    endloop
  endfacet
  facet normal 1.54799e-06 0.95694 -0.290286
    outer loop
      vertex 102.95 136.509 2.73198
      vertex 129.95 136.139 1.51256
      vertex 102.95 136.139 1.51262
    endloop
  endfacet
  facet normal 1.54799e-06 0.95694 -0.290286
    outer loop
      vertex 129.95 136.139 1.51256
      vertex 102.95 136.509 2.73198
      vertex 129.95 136.509 2.73192
    endloop
  endfacet
  facet normal 9.94456e-07 0.881921 -0.471397
    outer loop
      vertex 102.95 136.139 1.51262
      vertex 129.95 135.538 0.388809
      vertex 102.95 135.539 0.38887
    endloop
  endfacet
  facet normal 9.94456e-07 0.881921 -0.471397
    outer loop
      vertex 129.95 135.538 0.388809
      vertex 102.95 136.139 1.51262
      vertex 129.95 136.139 1.51256
    endloop
  endfacet
  facet normal -3.40148e-08 0.773003 -0.634402
    outer loop
      vertex 102.95 135.539 0.38887
      vertex 129.95 135.219 0
      vertex 102.95 135.219 6.10352e-05
    endloop
  endfacet
  facet normal 4.03248e-07 0.773018 -0.634384
    outer loop
      vertex 129.95 135.219 0
      vertex 102.95 135.539 0.38887
      vertex 129.95 135.538 0.388809
    endloop
  endfacet
  facet normal 0 0 -1
    outer loop
      vertex 102.95 98.666 3.05176e-05
      vertex 107.65 98.366 3.05176e-05
      vertex 103.25 98.366 3.05176e-05
    endloop
  endfacet
  facet normal 0 0 -1
    outer loop
      vertex 107.65 98.366 3.05176e-05
      vertex 102.95 98.666 3.05176e-05
      vertex 107.95 98.677 3.05176e-05
    endloop
  endfacet
  facet normal 0 0 -1
    outer loop
      vertex 107.95 98.677 3.05176e-05
      vertex 102.95 98.666 3.05176e-05
      vertex 104.95 101.866 3.05176e-05
    endloop
  endfacet
  facet normal -1.00185e-06 6.26158e-07 -1
    outer loop
      vertex 104.95 101.866 3.05176e-05
      vertex 102.95 98.666 3.05176e-05
      vertex 102.95 135.219 6.10352e-05
    endloop
  endfacet
  facet normal 0 0 -1
    outer loop
      vertex 107.95 98.677 3.05176e-05
      vertex 104.95 101.866 3.05176e-05
      vertex 107.95 101.366 3.05176e-05
    endloop
  endfacet
  facet normal -1.14445e-05 0 -1
    outer loop
      vertex 104.95 101.866 3.05176e-05
      vertex 102.95 135.219 6.10352e-05
      vertex 104.95 108.566 3.05176e-05
    endloop
  endfacet
  facet normal -2.49392e-07 8.40019e-07 -1
    outer loop
      vertex 104.95 108.566 3.05176e-05
      vertex 102.95 135.219 6.10352e-05
      vertex 114.718 111.466 3.05176e-05
    endloop
  endfacet
  facet normal 0 0 -1
    outer loop
      vertex 104.95 108.566 3.05176e-05
      vertex 114.718 111.466 3.05176e-05
      vertex 115.036 111.052 3.05176e-05
    endloop
  endfacet
  facet normal 0 0 -1
    outer loop
      vertex 104.95 108.566 3.05176e-05
      vertex 115.036 111.052 3.05176e-05
      vertex 115.45 110.734 3.05176e-05
    endloop
  endfacet
  facet normal 0 0 -1
    outer loop
      vertex 104.95 108.566 3.05176e-05
      vertex 115.45 110.734 3.05176e-05
      vertex 115.932 110.534 3.05176e-05
    endloop
  endfacet
  facet normal 0 0 -1
    outer loop
      vertex 104.95 108.566 3.05176e-05
      vertex 115.932 110.534 3.05176e-05
      vertex 127.95 108.566 3.05176e-05
    endloop
  endfacet
  facet normal 0 0 -1
    outer loop
      vertex 127.95 108.566 3.05176e-05
      vertex 115.932 110.534 3.05176e-05
      vertex 116.45 110.466 3.05176e-05
    endloop
  endfacet
  facet normal -1.18657e-05 -4.91487e-06 -1
    outer loop
      vertex 114.718 111.466 3.05176e-05
      vertex 102.95 135.219 6.10352e-05
      vertex 114.518 111.948 3.05176e-05
    endloop
  endfacet
  facet normal -2.69131e-06 -3.54303e-07 -1
    outer loop
      vertex 114.518 111.948 3.05176e-05
      vertex 102.95 135.219 6.10352e-05
      vertex 114.45 112.466 3.05176e-05
    endloop
  endfacet
  facet normal -1.579e-06 2.07871e-07 -1
    outer loop
      vertex 114.45 112.466 3.05176e-05
      vertex 102.95 135.219 6.10352e-05
      vertex 114.518 112.984 3.05176e-05
    endloop
  endfacet
  facet normal -1.10154e-06 4.56268e-07 -1
    outer loop
      vertex 114.518 112.984 3.05176e-05
      vertex 102.95 135.219 6.10352e-05
      vertex 114.718 113.466 3.05176e-05
    endloop
  endfacet
  facet normal -8.04223e-07 6.17106e-07 -1
    outer loop
      vertex 114.718 113.466 3.05176e-05
      vertex 102.95 135.219 6.10352e-05
      vertex 115.036 113.88 3.05176e-05
    endloop
  endfacet
  facet normal -5.73705e-07 7.47662e-07 -1
    outer loop
      vertex 115.036 113.88 3.05176e-05
      vertex 102.95 135.219 6.10352e-05
      vertex 115.45 114.198 3.05176e-05
    endloop
  endfacet
  facet normal -3.61865e-07 8.73628e-07 -1
    outer loop
      vertex 115.45 114.198 3.05176e-05
      vertex 102.95 135.219 6.10352e-05
      vertex 115.932 114.398 3.05176e-05
    endloop
  endfacet
  facet normal -1.33736e-07 1.01587e-06 -1
    outer loop
      vertex 115.932 114.398 3.05176e-05
      vertex 102.95 135.219 6.10352e-05
      vertex 116.45 114.466 3.05176e-05
    endloop
  endfacet
  facet normal -2.11928e-06 -2.75711e-07 -1
    outer loop
      vertex 116.45 114.466 3.05176e-05
      vertex 102.95 135.219 6.10352e-05
      vertex 129.95 135.219 0
    endloop
  endfacet
  facet normal 0 0 -1
    outer loop
      vertex 124.95 98.666 3.05176e-05
      vertex 129.65 98.366 3.05176e-05
      vertex 125.25 98.366 3.05176e-05
    endloop
  endfacet
  facet normal 0 0 -1
    outer loop
      vertex 129.65 98.366 3.05176e-05
      vertex 124.95 98.666 3.05176e-05
      vertex 129.95 98.666 3.05176e-05
    endloop
  endfacet
  facet normal 0 0 -1
    outer loop
      vertex 129.95 98.666 3.05176e-05
      vertex 124.95 98.666 3.05176e-05
      vertex 124.95 101.366 3.05176e-05
    endloop
  endfacet
  facet normal 0 0 -1
    outer loop
      vertex 129.95 98.666 3.05176e-05
      vertex 124.95 101.366 3.05176e-05
      vertex 127.95 101.866 3.05176e-05
    endloop
  endfacet
  facet normal -1.50277e-06 -9.39235e-07 -1
    outer loop
      vertex 129.95 98.666 3.05176e-05
      vertex 127.95 101.866 3.05176e-05
      vertex 129.95 135.219 0
    endloop
  endfacet
  facet normal 0 0 -1
    outer loop
      vertex 127.95 101.866 3.05176e-05
      vertex 124.95 101.366 3.05176e-05
      vertex 125.45 101.866 3.05176e-05
    endloop
  endfacet
  facet normal -1.7166e-05 0 -1
    outer loop
      vertex 129.95 135.219 0
      vertex 127.95 101.866 3.05176e-05
      vertex 127.95 108.566 3.05176e-05
    endloop
  endfacet
  facet normal -3.74088e-07 -1.26003e-06 -1
    outer loop
      vertex 129.95 135.219 0
      vertex 127.95 108.566 3.05176e-05
      vertex 118.182 111.466 3.05176e-05
    endloop
  endfacet
  facet normal 0 0 -1
    outer loop
      vertex 118.182 111.466 3.05176e-05
      vertex 127.95 108.566 3.05176e-05
      vertex 117.864 111.052 3.05176e-05
    endloop
  endfacet
  facet normal 0 0 -1
    outer loop
      vertex 117.864 111.052 3.05176e-05
      vertex 127.95 108.566 3.05176e-05
      vertex 117.45 110.734 3.05176e-05
    endloop
  endfacet
  facet normal 0 0 -1
    outer loop
      vertex 117.45 110.734 3.05176e-05
      vertex 127.95 108.566 3.05176e-05
      vertex 116.968 110.534 3.05176e-05
    endloop
  endfacet
  facet normal 0 0 -1
    outer loop
      vertex 116.968 110.534 3.05176e-05
      vertex 127.95 108.566 3.05176e-05
      vertex 116.45 110.466 3.05176e-05
    endloop
  endfacet
  facet normal -1.77973e-05 7.3718e-06 -1
    outer loop
      vertex 129.95 135.219 0
      vertex 118.182 111.466 3.05176e-05
      vertex 118.382 111.948 3.05176e-05
    endloop
  endfacet
  facet normal -4.03724e-06 5.31611e-07 -1
    outer loop
      vertex 129.95 135.219 0
      vertex 118.382 111.948 3.05176e-05
      vertex 118.45 112.466 3.05176e-05
    endloop
  endfacet
  facet normal -2.36838e-06 -3.1186e-07 -1
    outer loop
      vertex 129.95 135.219 0
      vertex 118.45 112.466 3.05176e-05
      vertex 118.382 112.984 3.05176e-05
    endloop
  endfacet
  facet normal -1.6523e-06 -6.844e-07 -1
    outer loop
      vertex 129.95 135.219 0
      vertex 118.382 112.984 3.05176e-05
      vertex 118.182 113.466 3.05176e-05
    endloop
  endfacet
  facet normal -1.20633e-06 -9.25656e-07 -1
    outer loop
      vertex 129.95 135.219 0
      vertex 118.182 113.466 3.05176e-05
      vertex 117.864 113.88 3.05176e-05
    endloop
  endfacet
  facet normal -8.60579e-07 -1.12148e-06 -1
    outer loop
      vertex 129.95 135.219 0
      vertex 117.864 113.88 3.05176e-05
      vertex 117.45 114.198 3.05176e-05
    endloop
  endfacet
  facet normal -5.42784e-07 -1.31045e-06 -1
    outer loop
      vertex 129.95 135.219 0
      vertex 117.45 114.198 3.05176e-05
      vertex 116.968 114.398 3.05176e-05
    endloop
  endfacet
  facet normal -2.0061e-07 -1.5238e-06 -1
    outer loop
      vertex 129.95 135.219 0
      vertex 116.968 114.398 3.05176e-05
      vertex 116.45 114.466 3.05176e-05
    endloop
  endfacet
  facet normal 0 0 -1
    outer loop
      vertex 107.45 101.866 3.05176e-05
      vertex 107.95 101.366 3.05176e-05
      vertex 104.95 101.866 3.05176e-05
    endloop
  endfacet
  facet normal 0.428438 -0.899716 -0.08338
    outer loop
      vertex 132.05 110.417 4.44878
      vertex 129.95 109.366 5.00003
      vertex 129.95 109.434 4.26503
    endloop
  endfacet
  facet normal 0.428438 -0.899716 -0.08338
    outer loop
      vertex 129.95 109.366 5.00003
      vertex 132.05 110.417 4.44878
      vertex 132.05 110.366 5.00003
    endloop
  endfacet
  facet normal 0.428439 -0.808842 -0.402759
    outer loop
      vertex 132.05 110.815 3.42073
      vertex 129.95 109.636 3.55507
      vertex 129.95 109.965 2.8943
    endloop
  endfacet
  facet normal 0.428441 -0.808844 -0.402753
    outer loop
      vertex 129.95 109.636 3.55507
      vertex 132.05 110.815 3.42073
      vertex 132.05 110.569 3.91631
    endloop
  endfacet
  facet normal 0.428435 -0.721061 -0.544531
    outer loop
      vertex 132.05 111.149 2.97896
      vertex 129.95 109.965 2.8943
      vertex 129.95 110.41 2.30525
    endloop
  endfacet
  facet normal 0.428439 -0.721068 -0.544518
    outer loop
      vertex 129.95 109.965 2.8943
      vertex 132.05 111.149 2.97896
      vertex 132.05 110.815 3.42073
    endloop
  endfacet
  facet normal 0.428439 0 -0.903571
    outer loop
      vertex 129.95 113.735 1.01709
      vertex 132.05 113.089 2.01283
      vertex 129.95 112.997 1.01709
    endloop
  endfacet
  facet normal 0.428439 0 -0.903571
    outer loop
      vertex 132.05 113.089 2.01283
      vertex 129.95 113.735 1.01709
      vertex 132.05 113.643 2.01283
    endloop
  endfacet
  facet normal 0.428441 -0.869079 -0.247267
    outer loop
      vertex 132.05 110.569 3.91631
      vertex 129.95 109.434 4.26503
      vertex 129.95 109.636 3.55507
    endloop
  endfacet
  facet normal 0.428438 -0.869077 -0.247279
    outer loop
      vertex 129.95 109.434 4.26503
      vertex 132.05 110.569 3.91631
      vertex 132.05 110.417 4.44878
    endloop
  endfacet
  facet normal 0.428439 -0.166031 -0.888186
    outer loop
      vertex 129.95 112.997 1.01709
      vertex 132.05 112.545 2.11455
      vertex 129.95 112.271 1.15273
    endloop
  endfacet
  facet normal 0.428439 -0.166031 -0.888186
    outer loop
      vertex 132.05 112.545 2.11455
      vertex 129.95 112.997 1.01709
      vertex 132.05 113.089 2.01283
    endloop
  endfacet
  facet normal 0.428439 -0.326408 -0.842554
    outer loop
      vertex 129.95 112.271 1.15273
      vertex 132.05 112.029 2.31454
      vertex 129.95 111.583 1.41937
    endloop
  endfacet
  facet normal 0.428439 -0.326409 -0.842554
    outer loop
      vertex 132.05 112.029 2.31454
      vertex 129.95 112.271 1.15273
      vertex 132.05 112.545 2.11455
    endloop
  endfacet
  facet normal 0.428436 -0.608738 -0.667743
    outer loop
      vertex 129.95 110.955 1.80797
      vertex 132.05 111.149 2.97896
      vertex 129.95 110.41 2.30525
    endloop
  endfacet
  facet normal 0.428437 -0.608734 -0.667746
    outer loop
      vertex 132.05 111.149 2.97896
      vertex 129.95 110.955 1.80797
      vertex 132.05 111.558 2.60599
    endloop
  endfacet
  facet normal 0.428439 0.166035 -0.888185
    outer loop
      vertex 129.95 113.735 1.01709
      vertex 132.05 114.187 2.11455
      vertex 132.05 113.643 2.01283
    endloop
  endfacet
  facet normal 0.428439 0.166034 -0.888185
    outer loop
      vertex 132.05 114.187 2.11455
      vertex 129.95 113.735 1.01709
      vertex 129.95 114.461 1.15273
    endloop
  endfacet
  facet normal 0.428437 -0.475674 -0.768229
    outer loop
      vertex 129.95 111.583 1.41937
      vertex 132.05 111.558 2.60599
      vertex 129.95 110.955 1.80797
    endloop
  endfacet
  facet normal 0.428439 -0.475668 -0.768232
    outer loop
      vertex 132.05 111.558 2.60599
      vertex 129.95 111.583 1.41937
      vertex 132.05 112.029 2.31454
    endloop
  endfacet
  facet normal 0.428438 -0.899716 0.08338
    outer loop
      vertex 132.05 110.366 5.00003
      vertex 129.95 109.434 5.73503
      vertex 129.95 109.366 5.00003
    endloop
  endfacet
  facet normal 0.428438 -0.899716 0.08338
    outer loop
      vertex 129.95 109.434 5.73503
      vertex 132.05 110.366 5.00003
      vertex 132.05 110.417 5.55128
    endloop
  endfacet
  facet normal 0.428439 0.3264 -0.842557
    outer loop
      vertex 129.95 114.461 1.15273
      vertex 132.05 114.703 2.31454
      vertex 132.05 114.187 2.11455
    endloop
  endfacet
  facet normal 0.428439 0.326402 -0.842557
    outer loop
      vertex 132.05 114.703 2.31454
      vertex 129.95 114.461 1.15273
      vertex 129.95 115.149 1.41937
    endloop
  endfacet
  facet normal 0.428438 0.475679 -0.768225
    outer loop
      vertex 129.95 115.149 1.41937
      vertex 132.05 115.174 2.60599
      vertex 132.05 114.703 2.31454
    endloop
  endfacet
  facet normal 0.428438 0.475682 -0.768223
    outer loop
      vertex 132.05 115.174 2.60599
      vertex 129.95 115.149 1.41937
      vertex 129.95 115.777 1.80797
    endloop
  endfacet
  facet normal 1 0 0
    outer loop
      vertex 132.05 112.545 7.88551
      vertex 132.05 113.643 7.98724
      vertex 132.05 113.089 7.98724
    endloop
  endfacet
  facet normal 1 0 0
    outer loop
      vertex 132.05 113.643 7.98724
      vertex 132.05 112.545 7.88551
      vertex 132.05 114.187 7.88551
    endloop
  endfacet
  facet normal 1 0 0
    outer loop
      vertex 132.05 114.187 7.88551
      vertex 132.05 112.545 7.88551
      vertex 132.05 112.029 7.68553
    endloop
  endfacet
  facet normal 1 0 0
    outer loop
      vertex 132.05 114.187 7.88551
      vertex 132.05 112.029 7.68553
      vertex 132.05 114.703 7.68553
    endloop
  endfacet
  facet normal 1 0 0
    outer loop
      vertex 132.05 114.703 7.68553
      vertex 132.05 112.029 7.68553
      vertex 132.05 111.558 7.39409
    endloop
  endfacet
  facet normal 1 0 0
    outer loop
      vertex 132.05 114.703 7.68553
      vertex 132.05 111.558 7.39409
      vertex 132.05 115.174 7.39409
    endloop
  endfacet
  facet normal 1 0 0
    outer loop
      vertex 132.05 115.174 7.39409
      vertex 132.05 111.558 7.39409
      vertex 132.05 111.149 7.02112
    endloop
  endfacet
  facet normal 1 0 0
    outer loop
      vertex 132.05 115.174 7.39409
      vertex 132.05 111.149 7.02112
      vertex 132.05 115.583 7.02112
    endloop
  endfacet
  facet normal 1 0 0
    outer loop
      vertex 132.05 115.583 7.02112
      vertex 132.05 111.149 7.02112
      vertex 132.05 113.366 7.00003
    endloop
  endfacet
  facet normal 1 0 0
    outer loop
      vertex 132.05 113.366 7.00003
      vertex 132.05 111.149 7.02112
      vertex 132.05 112.976 6.96161
    endloop
  endfacet
  facet normal 1 0 0
    outer loop
      vertex 132.05 112.976 6.96161
      vertex 132.05 111.149 7.02112
      vertex 132.05 110.815 6.57933
    endloop
  endfacet
  facet normal 1 0 0
    outer loop
      vertex 132.05 112.976 6.96161
      vertex 132.05 110.815 6.57933
      vertex 132.05 112.601 6.84779
    endloop
  endfacet
  facet normal 1 0 0
    outer loop
      vertex 132.05 112.601 6.84779
      vertex 132.05 110.815 6.57933
      vertex 132.05 112.255 6.66298
    endloop
  endfacet
  facet normal 1 0 0
    outer loop
      vertex 132.05 112.255 6.66298
      vertex 132.05 110.815 6.57933
      vertex 132.05 111.952 6.41425
    endloop
  endfacet
  facet normal 1 0 0
    outer loop
      vertex 132.05 111.952 6.41425
      vertex 132.05 110.815 6.57933
      vertex 132.05 110.569 6.08376
    endloop
  endfacet
  facet normal 1 0 0
    outer loop
      vertex 132.05 111.952 6.41425
      vertex 132.05 110.569 6.08376
      vertex 132.05 111.703 6.11118
    endloop
  endfacet
  facet normal 1 0 0
    outer loop
      vertex 132.05 111.703 6.11118
      vertex 132.05 110.569 6.08376
      vertex 132.05 111.518 5.7654
    endloop
  endfacet
  facet normal 1 0 0
    outer loop
      vertex 132.05 111.518 5.7654
      vertex 132.05 110.569 6.08376
      vertex 132.05 110.417 5.55128
    endloop
  endfacet
  facet normal 1 0 0
    outer loop
      vertex 132.05 111.518 5.7654
      vertex 132.05 110.417 5.55128
      vertex 132.05 111.404 5.39021
    endloop
  endfacet
  facet normal 1 0 0
    outer loop
      vertex 132.05 111.404 5.39021
      vertex 132.05 110.417 5.55128
      vertex 132.05 110.366 5.00003
    endloop
  endfacet
  facet normal 1 0 0
    outer loop
      vertex 132.05 111.404 5.39021
      vertex 132.05 110.366 5.00003
      vertex 132.05 111.366 5.00003
    endloop
  endfacet
  facet normal 1 0 0
    outer loop
      vertex 132.05 111.366 5.00003
      vertex 132.05 110.366 5.00003
      vertex 132.05 110.417 4.44878
    endloop
  endfacet
  facet normal 1 0 0
    outer loop
      vertex 132.05 111.366 5.00003
      vertex 132.05 110.417 4.44878
      vertex 132.05 111.404 4.60985
    endloop
  endfacet
  facet normal 1 0 0
    outer loop
      vertex 132.05 111.404 4.60985
      vertex 132.05 110.417 4.44878
      vertex 132.05 111.518 4.23466
    endloop
  endfacet
  facet normal 1 0 0
    outer loop
      vertex 132.05 111.518 4.23466
      vertex 132.05 110.417 4.44878
      vertex 132.05 110.569 3.91631
    endloop
  endfacet
  facet normal 1 0 0
    outer loop
      vertex 132.05 111.518 4.23466
      vertex 132.05 110.569 3.91631
      vertex 132.05 111.703 3.8889
    endloop
  endfacet
  facet normal 1 0 0
    outer loop
      vertex 132.05 111.703 3.8889
      vertex 132.05 110.569 3.91631
      vertex 132.05 110.815 3.42073
    endloop
  endfacet
  facet normal 1 0 0
    outer loop
      vertex 132.05 111.703 3.8889
      vertex 132.05 110.815 3.42073
      vertex 132.05 111.952 3.58582
    endloop
  endfacet
  facet normal 1 0 0
    outer loop
      vertex 132.05 111.952 3.58582
      vertex 132.05 110.815 3.42073
      vertex 132.05 112.255 3.3371
    endloop
  endfacet
  facet normal 1 0 0
    outer loop
      vertex 132.05 112.255 3.3371
      vertex 132.05 110.815 3.42073
      vertex 132.05 111.149 2.97896
    endloop
  endfacet
  facet normal 1 0 0
    outer loop
      vertex 132.05 112.255 3.3371
      vertex 132.05 111.149 2.97896
      vertex 132.05 112.601 3.15227
    endloop
  endfacet
  facet normal 1 0 0
    outer loop
      vertex 132.05 112.601 3.15227
      vertex 132.05 111.149 2.97896
      vertex 132.05 112.976 3.03847
    endloop
  endfacet
  facet normal 1 0 0
    outer loop
      vertex 132.05 112.976 3.03847
      vertex 132.05 111.149 2.97896
      vertex 132.05 113.366 3.00003
    endloop
  endfacet
  facet normal 1 0 0
    outer loop
      vertex 132.05 115.583 7.02112
      vertex 132.05 113.756 6.96161
      vertex 132.05 115.917 6.57933
    endloop
  endfacet
  facet normal 1 0 0
    outer loop
      vertex 132.05 113.756 6.96161
      vertex 132.05 115.583 7.02112
      vertex 132.05 113.366 7.00003
    endloop
  endfacet
  facet normal 1 0 0
    outer loop
      vertex 132.05 115.917 6.57933
      vertex 132.05 113.756 6.96161
      vertex 132.05 114.131 6.84779
    endloop
  endfacet
  facet normal 1 0 0
    outer loop
      vertex 132.05 115.917 6.57933
      vertex 132.05 114.131 6.84779
      vertex 132.05 114.477 6.66298
    endloop
  endfacet
  facet normal 1 0 0
    outer loop
      vertex 132.05 115.917 6.57933
      vertex 132.05 114.477 6.66298
      vertex 132.05 114.78 6.41425
    endloop
  endfacet
  facet normal 1 0 0
    outer loop
      vertex 132.05 115.917 6.57933
      vertex 132.05 114.78 6.41425
      vertex 132.05 116.163 6.08376
    endloop
  endfacet
  facet normal 1 0 0
    outer loop
      vertex 132.05 116.163 6.08376
      vertex 132.05 114.78 6.41425
      vertex 132.05 115.029 6.11118
    endloop
  endfacet
  facet normal 1 0 0
    outer loop
      vertex 132.05 116.163 6.08376
      vertex 132.05 115.029 6.11118
      vertex 132.05 115.214 5.7654
    endloop
  endfacet
  facet normal 1 0 0
    outer loop
      vertex 132.05 116.163 6.08376
      vertex 132.05 115.214 5.7654
      vertex 132.05 116.315 5.55128
    endloop
  endfacet
  facet normal 1 0 0
    outer loop
      vertex 132.05 116.315 5.55128
      vertex 132.05 115.214 5.7654
      vertex 132.05 115.328 5.39021
    endloop
  endfacet
  facet normal 1 0 0
    outer loop
      vertex 132.05 116.315 5.55128
      vertex 132.05 115.328 5.39021
      vertex 132.05 116.366 5.00003
    endloop
  endfacet
  facet normal 1 0 0
    outer loop
      vertex 132.05 116.366 5.00003
      vertex 132.05 115.328 5.39021
      vertex 132.05 115.366 5.00003
    endloop
  endfacet
  facet normal 1 0 0
    outer loop
      vertex 132.05 116.366 5.00003
      vertex 132.05 115.366 5.00003
      vertex 132.05 115.328 4.60985
    endloop
  endfacet
  facet normal 1 0 0
    outer loop
      vertex 132.05 116.366 5.00003
      vertex 132.05 115.328 4.60985
      vertex 132.05 116.315 4.44878
    endloop
  endfacet
  facet normal 1 0 0
    outer loop
      vertex 132.05 116.315 4.44878
      vertex 132.05 115.328 4.60985
      vertex 132.05 115.214 4.23466
    endloop
  endfacet
  facet normal 1 0 0
    outer loop
      vertex 132.05 116.315 4.44878
      vertex 132.05 115.214 4.23466
      vertex 132.05 116.163 3.91631
    endloop
  endfacet
  facet normal 1 0 0
    outer loop
      vertex 132.05 116.163 3.91631
      vertex 132.05 115.214 4.23466
      vertex 132.05 115.029 3.8889
    endloop
  endfacet
  facet normal 1 0 0
    outer loop
      vertex 132.05 116.163 3.91631
      vertex 132.05 115.029 3.8889
      vertex 132.05 115.917 3.42073
    endloop
  endfacet
  facet normal 1 0 0
    outer loop
      vertex 132.05 115.917 3.42073
      vertex 132.05 115.029 3.8889
      vertex 132.05 114.78 3.58582
    endloop
  endfacet
  facet normal 1 0 0
    outer loop
      vertex 132.05 115.917 3.42073
      vertex 132.05 114.78 3.58582
      vertex 132.05 114.477 3.3371
    endloop
  endfacet
  facet normal 1 0 0
    outer loop
      vertex 132.05 115.917 3.42073
      vertex 132.05 114.477 3.3371
      vertex 132.05 115.583 2.97896
    endloop
  endfacet
  facet normal 1 0 0
    outer loop
      vertex 132.05 115.583 2.97896
      vertex 132.05 114.477 3.3371
      vertex 132.05 114.131 3.15227
    endloop
  endfacet
  facet normal 1 0 0
    outer loop
      vertex 132.05 115.583 2.97896
      vertex 132.05 114.131 3.15227
      vertex 132.05 113.756 3.03847
    endloop
  endfacet
  facet normal 1 0 0
    outer loop
      vertex 132.05 115.583 2.97896
      vertex 132.05 113.756 3.03847
      vertex 132.05 113.366 3.00003
    endloop
  endfacet
  facet normal 1 0 0
    outer loop
      vertex 132.05 115.583 2.97896
      vertex 132.05 113.366 3.00003
      vertex 132.05 111.149 2.97896
    endloop
  endfacet
  facet normal 1 0 0
    outer loop
      vertex 132.05 115.583 2.97896
      vertex 132.05 111.149 2.97896
      vertex 132.05 111.558 2.60599
    endloop
  endfacet
  facet normal 1 0 0
    outer loop
      vertex 132.05 115.583 2.97896
      vertex 132.05 111.558 2.60599
      vertex 132.05 115.174 2.60599
    endloop
  endfacet
  facet normal 1 0 0
    outer loop
      vertex 132.05 115.174 2.60599
      vertex 132.05 111.558 2.60599
      vertex 132.05 112.029 2.31454
    endloop
  endfacet
  facet normal 1 0 0
    outer loop
      vertex 132.05 115.174 2.60599
      vertex 132.05 112.029 2.31454
      vertex 132.05 114.703 2.31454
    endloop
  endfacet
  facet normal 1 0 0
    outer loop
      vertex 132.05 114.703 2.31454
      vertex 132.05 112.029 2.31454
      vertex 132.05 112.545 2.11455
    endloop
  endfacet
  facet normal 1 0 0
    outer loop
      vertex 132.05 114.703 2.31454
      vertex 132.05 112.545 2.11455
      vertex 132.05 114.187 2.11455
    endloop
  endfacet
  facet normal 1 0 0
    outer loop
      vertex 132.05 114.187 2.11455
      vertex 132.05 112.545 2.11455
      vertex 132.05 113.089 2.01283
    endloop
  endfacet
  facet normal 1 0 0
    outer loop
      vertex 132.05 114.187 2.11455
      vertex 132.05 113.089 2.01283
      vertex 132.05 113.643 2.01283
    endloop
  endfacet
  facet normal 0.428438 0.47568 0.768225
    outer loop
      vertex 132.05 115.174 7.39409
      vertex 129.95 115.149 8.58069
      vertex 132.05 114.703 7.68553
    endloop
  endfacet
  facet normal 0.428438 0.475683 0.768223
    outer loop
      vertex 129.95 115.149 8.58069
      vertex 132.05 115.174 7.39409
      vertex 129.95 115.777 8.19209
    endloop
  endfacet
  facet normal 0.428439 -0.72106 0.54453
    outer loop
      vertex 132.05 110.815 6.57933
      vertex 129.95 110.41 7.69481
      vertex 129.95 109.965 7.10576
    endloop
  endfacet
  facet normal 0.428435 -0.72107 0.54452
    outer loop
      vertex 129.95 110.41 7.69481
      vertex 132.05 110.815 6.57933
      vertex 132.05 111.149 7.02112
    endloop
  endfacet
  facet normal 0.428439 0.166035 0.888185
    outer loop
      vertex 132.05 114.187 7.88551
      vertex 129.95 113.735 8.98297
      vertex 132.05 113.643 7.98724
    endloop
  endfacet
  facet normal 0.428439 0.166034 0.888185
    outer loop
      vertex 129.95 113.735 8.98297
      vertex 132.05 114.187 7.88551
      vertex 129.95 114.461 8.84734
    endloop
  endfacet
  facet normal 0.428436 -0.608738 0.667743
    outer loop
      vertex 132.05 111.149 7.02112
      vertex 129.95 110.955 8.19209
      vertex 129.95 110.41 7.69481
    endloop
  endfacet
  facet normal 0.428437 -0.608734 0.667746
    outer loop
      vertex 129.95 110.955 8.19209
      vertex 132.05 111.149 7.02112
      vertex 132.05 111.558 7.39409
    endloop
  endfacet
  facet normal 0.428439 0 0.903571
    outer loop
      vertex 132.05 113.089 7.98724
      vertex 129.95 113.735 8.98297
      vertex 129.95 112.997 8.98297
    endloop
  endfacet
  facet normal 0.428439 0 0.903571
    outer loop
      vertex 129.95 113.735 8.98297
      vertex 132.05 113.089 7.98724
      vertex 132.05 113.643 7.98724
    endloop
  endfacet
  facet normal 0.428437 -0.475674 0.768229
    outer loop
      vertex 132.05 111.558 7.39409
      vertex 129.95 111.583 8.58069
      vertex 129.95 110.955 8.19209
    endloop
  endfacet
  facet normal 0.428439 -0.475668 0.768232
    outer loop
      vertex 129.95 111.583 8.58069
      vertex 132.05 111.558 7.39409
      vertex 132.05 112.029 7.68553
    endloop
  endfacet
  facet normal 0.428439 0.3264 0.842557
    outer loop
      vertex 132.05 114.703 7.68553
      vertex 129.95 114.461 8.84734
      vertex 132.05 114.187 7.88551
    endloop
  endfacet
  facet normal 0.428439 0.326402 0.842557
    outer loop
      vertex 129.95 114.461 8.84734
      vertex 132.05 114.703 7.68553
      vertex 129.95 115.149 8.58069
    endloop
  endfacet
  facet normal 0.428439 -0.326409 0.842554
    outer loop
      vertex 132.05 112.029 7.68553
      vertex 129.95 112.271 8.84734
      vertex 129.95 111.583 8.58069
    endloop
  endfacet
  facet normal 0.428439 -0.326409 0.842554
    outer loop
      vertex 129.95 112.271 8.84734
      vertex 132.05 112.029 7.68553
      vertex 132.05 112.545 7.88551
    endloop
  endfacet
  facet normal 0.42844 -0.808842 0.402758
    outer loop
      vertex 132.05 110.569 6.08376
      vertex 129.95 109.965 7.10576
      vertex 129.95 109.636 6.44499
    endloop
  endfacet
  facet normal 0.428439 -0.808845 0.402754
    outer loop
      vertex 129.95 109.965 7.10576
      vertex 132.05 110.569 6.08376
      vertex 132.05 110.815 6.57933
    endloop
  endfacet
  facet normal 0.428439 -0.166031 0.888186
    outer loop
      vertex 132.05 112.545 7.88551
      vertex 129.95 112.997 8.98297
      vertex 129.95 112.271 8.84734
    endloop
  endfacet
  facet normal 0.428439 -0.166031 0.888186
    outer loop
      vertex 129.95 112.997 8.98297
      vertex 132.05 112.545 7.88551
      vertex 132.05 113.089 7.98724
    endloop
  endfacet
  facet normal 0.428439 0.899717 -0.0833614
    outer loop
      vertex 132.05 116.366 5.00003
      vertex 129.95 117.298 4.26503
      vertex 129.95 117.366 5.00003
    endloop
  endfacet
  facet normal 0.428437 0.899719 -0.0833553
    outer loop
      vertex 129.95 117.298 4.26503
      vertex 132.05 116.366 5.00003
      vertex 132.05 116.315 4.44878
    endloop
  endfacet
  facet normal 0.428438 -0.86908 0.247268
    outer loop
      vertex 132.05 110.417 5.55128
      vertex 129.95 109.636 6.44499
      vertex 129.95 109.434 5.73503
    endloop
  endfacet
  facet normal 0.428441 -0.869075 0.247279
    outer loop
      vertex 129.95 109.636 6.44499
      vertex 132.05 110.417 5.55128
      vertex 132.05 110.569 6.08376
    endloop
  endfacet
  facet normal 0.428437 0.608734 -0.667746
    outer loop
      vertex 129.95 115.777 1.80797
      vertex 132.05 115.583 2.97896
      vertex 132.05 115.174 2.60599
    endloop
  endfacet
  facet normal 0.428439 0.608727 -0.667751
    outer loop
      vertex 132.05 115.583 2.97896
      vertex 129.95 115.777 1.80797
      vertex 129.95 116.322 2.30525
    endloop
  endfacet
  facet normal 0.42844 0.721059 0.54453
    outer loop
      vertex 132.05 115.583 7.02112
      vertex 129.95 116.767 7.10576
      vertex 129.95 116.322 7.69481
    endloop
  endfacet
  facet normal 0.428438 0.721057 0.544534
    outer loop
      vertex 129.95 116.767 7.10576
      vertex 132.05 115.583 7.02112
      vertex 132.05 115.917 6.57933
    endloop
  endfacet
  facet normal 0.428439 0.80885 0.402744
    outer loop
      vertex 132.05 115.917 6.57933
      vertex 129.95 117.096 6.44499
      vertex 129.95 116.767 7.10576
    endloop
  endfacet
  facet normal 0.428436 0.808846 0.402754
    outer loop
      vertex 129.95 117.096 6.44499
      vertex 132.05 115.917 6.57933
      vertex 132.05 116.163 6.08376
    endloop
  endfacet
  facet normal 0.428439 0.72106 -0.54453
    outer loop
      vertex 132.05 115.917 3.42073
      vertex 129.95 116.322 2.30525
      vertex 129.95 116.767 2.8943
    endloop
  endfacet
  facet normal 0.42844 0.721056 -0.544534
    outer loop
      vertex 129.95 116.322 2.30525
      vertex 132.05 115.917 3.42073
      vertex 132.05 115.583 2.97896
    endloop
  endfacet
  facet normal 0.428436 0.869076 0.247285
    outer loop
      vertex 132.05 116.163 6.08376
      vertex 129.95 117.298 5.73503
      vertex 129.95 117.096 6.44499
    endloop
  endfacet
  facet normal 0.428438 0.869077 0.247279
    outer loop
      vertex 129.95 117.298 5.73503
      vertex 132.05 116.163 6.08376
      vertex 132.05 116.315 5.55128
    endloop
  endfacet
  facet normal 0.428437 0.608734 0.667746
    outer loop
      vertex 132.05 115.583 7.02112
      vertex 129.95 115.777 8.19209
      vertex 132.05 115.174 7.39409
    endloop
  endfacet
  facet normal 0.428439 0.608727 0.667751
    outer loop
      vertex 129.95 115.777 8.19209
      vertex 132.05 115.583 7.02112
      vertex 129.95 116.322 7.69481
    endloop
  endfacet
  facet normal 0.428436 0.808851 -0.402744
    outer loop
      vertex 132.05 116.163 3.91631
      vertex 129.95 116.767 2.8943
      vertex 129.95 117.096 3.55507
    endloop
  endfacet
  facet normal 0.428439 0.808845 -0.402754
    outer loop
      vertex 129.95 116.767 2.8943
      vertex 132.05 116.163 3.91631
      vertex 132.05 115.917 3.42073
    endloop
  endfacet
  facet normal 0.428437 0.869075 -0.247285
    outer loop
      vertex 132.05 116.315 4.44878
      vertex 129.95 117.096 3.55507
      vertex 129.95 117.298 4.26503
    endloop
  endfacet
  facet normal 0.428436 0.869077 -0.24728
    outer loop
      vertex 129.95 117.096 3.55507
      vertex 132.05 116.315 4.44878
      vertex 132.05 116.163 3.91631
    endloop
  endfacet
  facet normal 0.428437 0.899718 0.0833616
    outer loop
      vertex 132.05 116.315 5.55128
      vertex 129.95 117.366 5.00003
      vertex 129.95 117.298 5.73503
    endloop
  endfacet
  facet normal 0.428439 0.899718 0.0833553
    outer loop
      vertex 129.95 117.366 5.00003
      vertex 132.05 116.315 5.55128
      vertex 132.05 116.366 5.00003
    endloop
  endfacet
  facet normal 0.793351 -0.608764 0
    outer loop
      vertex 114.718 113.466 3.05176e-05
      vertex 115.036 113.88 10
      vertex 114.718 113.466 10
    endloop
  endfacet
  facet normal 0.793351 -0.608764 0
    outer loop
      vertex 115.036 113.88 10
      vertex 114.718 113.466 3.05176e-05
      vertex 115.036 113.88 3.05176e-05
    endloop
  endfacet
  facet normal 0.608764 -0.793351 0
    outer loop
      vertex 115.45 114.198 3.05176e-05
      vertex 115.036 113.88 10
      vertex 115.036 113.88 3.05176e-05
    endloop
  endfacet
  facet normal 0.608764 -0.793351 0
    outer loop
      vertex 115.036 113.88 10
      vertex 115.45 114.198 3.05176e-05
      vertex 115.45 114.198 10
    endloop
  endfacet
  facet normal 0.38268 -0.923881 0
    outer loop
      vertex 115.932 114.398 3.05176e-05
      vertex 115.45 114.198 10
      vertex 115.45 114.198 3.05176e-05
    endloop
  endfacet
  facet normal 0.38268 -0.923881 0
    outer loop
      vertex 115.45 114.198 10
      vertex 115.932 114.398 3.05176e-05
      vertex 115.932 114.398 10
    endloop
  endfacet
  facet normal 0.130521 -0.991446 0
    outer loop
      vertex 116.45 114.466 3.05176e-05
      vertex 115.932 114.398 10
      vertex 115.932 114.398 3.05176e-05
    endloop
  endfacet
  facet normal 0.130521 -0.991446 0
    outer loop
      vertex 115.932 114.398 10
      vertex 116.45 114.466 3.05176e-05
      vertex 116.45 114.466 10
    endloop
  endfacet
  facet normal -0.130525 -0.991445 0
    outer loop
      vertex 116.968 114.398 3.05176e-05
      vertex 116.45 114.466 10
      vertex 116.45 114.466 3.05176e-05
    endloop
  endfacet
  facet normal -0.130525 -0.991445 0
    outer loop
      vertex 116.45 114.466 10
      vertex 116.968 114.398 3.05176e-05
      vertex 116.968 114.398 10
    endloop
  endfacet
  facet normal -0.38267 -0.923885 0
    outer loop
      vertex 117.45 114.198 3.05176e-05
      vertex 116.968 114.398 10
      vertex 116.968 114.398 3.05176e-05
    endloop
  endfacet
  facet normal -0.38267 -0.923885 0
    outer loop
      vertex 116.968 114.398 10
      vertex 117.45 114.198 3.05176e-05
      vertex 117.45 114.198 10
    endloop
  endfacet
  facet normal -0.608778 -0.793341 0
    outer loop
      vertex 117.864 113.88 3.05176e-05
      vertex 117.45 114.198 10
      vertex 117.45 114.198 3.05176e-05
    endloop
  endfacet
  facet normal -0.608778 -0.793341 0
    outer loop
      vertex 117.45 114.198 10
      vertex 117.864 113.88 3.05176e-05
      vertex 117.864 113.88 10
    endloop
  endfacet
  facet normal -0.793351 -0.608764 0
    outer loop
      vertex 117.864 113.88 3.05176e-05
      vertex 118.182 113.466 10
      vertex 117.864 113.88 10
    endloop
  endfacet
  facet normal -0.793351 -0.608764 0
    outer loop
      vertex 118.182 113.466 10
      vertex 117.864 113.88 3.05176e-05
      vertex 118.182 113.466 3.05176e-05
    endloop
  endfacet
  facet normal -0.923881 -0.38268 0
    outer loop
      vertex 118.182 113.466 3.05176e-05
      vertex 118.382 112.984 10
      vertex 118.182 113.466 10
    endloop
  endfacet
  facet normal -0.923881 -0.38268 0
    outer loop
      vertex 118.382 112.984 10
      vertex 118.182 113.466 3.05176e-05
      vertex 118.382 112.984 3.05176e-05
    endloop
  endfacet
  facet normal -0.991442 -0.13055 0
    outer loop
      vertex 118.382 112.984 3.05176e-05
      vertex 118.45 112.466 10
      vertex 118.382 112.984 10
    endloop
  endfacet
  facet normal -0.991442 -0.13055 0
    outer loop
      vertex 118.45 112.466 10
      vertex 118.382 112.984 3.05176e-05
      vertex 118.45 112.466 3.05176e-05
    endloop
  endfacet
  facet normal -0.991442 0.13055 0
    outer loop
      vertex 118.45 112.466 3.05176e-05
      vertex 118.382 111.948 10
      vertex 118.45 112.466 10
    endloop
  endfacet
  facet normal -0.991442 0.13055 0
    outer loop
      vertex 118.382 111.948 10
      vertex 118.45 112.466 3.05176e-05
      vertex 118.382 111.948 3.05176e-05
    endloop
  endfacet
  facet normal -0.923881 0.38268 0
    outer loop
      vertex 118.382 111.948 3.05176e-05
      vertex 118.182 111.466 10
      vertex 118.382 111.948 10
    endloop
  endfacet
  facet normal -0.923881 0.38268 0
    outer loop
      vertex 118.182 111.466 10
      vertex 118.382 111.948 3.05176e-05
      vertex 118.182 111.466 3.05176e-05
    endloop
  endfacet
  facet normal -0.793351 0.608764 0
    outer loop
      vertex 118.182 111.466 3.05176e-05
      vertex 117.864 111.052 10
      vertex 118.182 111.466 10
    endloop
  endfacet
  facet normal -0.793351 0.608764 0
    outer loop
      vertex 117.864 111.052 10
      vertex 118.182 111.466 3.05176e-05
      vertex 117.864 111.052 3.05176e-05
    endloop
  endfacet
  facet normal -0.608778 0.793341 0
    outer loop
      vertex 117.864 111.052 10
      vertex 117.45 110.734 3.05176e-05
      vertex 117.45 110.734 10
    endloop
  endfacet
  facet normal -0.608778 0.793341 0
    outer loop
      vertex 117.45 110.734 3.05176e-05
      vertex 117.864 111.052 10
      vertex 117.864 111.052 3.05176e-05
    endloop
  endfacet
  facet normal -0.38267 0.923885 0
    outer loop
      vertex 117.45 110.734 10
      vertex 116.968 110.534 3.05176e-05
      vertex 116.968 110.534 10
    endloop
  endfacet
  facet normal -0.38267 0.923885 0
    outer loop
      vertex 116.968 110.534 3.05176e-05
      vertex 117.45 110.734 10
      vertex 117.45 110.734 3.05176e-05
    endloop
  endfacet
  facet normal -0.130525 0.991445 0
    outer loop
      vertex 116.968 110.534 10
      vertex 116.45 110.466 3.05176e-05
      vertex 116.45 110.466 10
    endloop
  endfacet
  facet normal -0.130525 0.991445 0
    outer loop
      vertex 116.45 110.466 3.05176e-05
      vertex 116.968 110.534 10
      vertex 116.968 110.534 3.05176e-05
    endloop
  endfacet
  facet normal 0.130521 0.991446 0
    outer loop
      vertex 116.45 110.466 10
      vertex 115.932 110.534 3.05176e-05
      vertex 115.932 110.534 10
    endloop
  endfacet
  facet normal 0.130521 0.991446 0
    outer loop
      vertex 115.932 110.534 3.05176e-05
      vertex 116.45 110.466 10
      vertex 116.45 110.466 3.05176e-05
    endloop
  endfacet
  facet normal 0.38268 0.923881 0
    outer loop
      vertex 115.932 110.534 10
      vertex 115.45 110.734 3.05176e-05
      vertex 115.45 110.734 10
    endloop
  endfacet
  facet normal 0.38268 0.923881 0
    outer loop
      vertex 115.45 110.734 3.05176e-05
      vertex 115.932 110.534 10
      vertex 115.932 110.534 3.05176e-05
    endloop
  endfacet
  facet normal 0.608764 0.793351 0
    outer loop
      vertex 115.45 110.734 10
      vertex 115.036 111.052 3.05176e-05
      vertex 115.036 111.052 10
    endloop
  endfacet
  facet normal 0.608764 0.793351 0
    outer loop
      vertex 115.036 111.052 3.05176e-05
      vertex 115.45 110.734 10
      vertex 115.45 110.734 3.05176e-05
    endloop
  endfacet
  facet normal 0.793351 0.608764 0
    outer loop
      vertex 115.036 111.052 3.05176e-05
      vertex 114.718 111.466 10
      vertex 115.036 111.052 10
    endloop
  endfacet
  facet normal 0.793351 0.608764 0
    outer loop
      vertex 114.718 111.466 10
      vertex 115.036 111.052 3.05176e-05
      vertex 114.718 111.466 3.05176e-05
    endloop
  endfacet
  facet normal 0.923881 0.38268 0
    outer loop
      vertex 114.718 111.466 3.05176e-05
      vertex 114.518 111.948 10
      vertex 114.718 111.466 10
    endloop
  endfacet
  facet normal 0.923881 0.38268 0
    outer loop
      vertex 114.518 111.948 10
      vertex 114.718 111.466 3.05176e-05
      vertex 114.518 111.948 3.05176e-05
    endloop
  endfacet
  facet normal 0.991446 0.130521 0
    outer loop
      vertex 114.518 111.948 3.05176e-05
      vertex 114.45 112.466 10
      vertex 114.518 111.948 10
    endloop
  endfacet
  facet normal 0.991446 0.130521 0
    outer loop
      vertex 114.45 112.466 10
      vertex 114.518 111.948 3.05176e-05
      vertex 114.45 112.466 3.05176e-05
    endloop
  endfacet
  facet normal 0.991446 -0.130521 0
    outer loop
      vertex 114.45 112.466 3.05176e-05
      vertex 114.518 112.984 10
      vertex 114.45 112.466 10
    endloop
  endfacet
  facet normal 0.991446 -0.130521 0
    outer loop
      vertex 114.518 112.984 10
      vertex 114.45 112.466 3.05176e-05
      vertex 114.518 112.984 3.05176e-05
    endloop
  endfacet
  facet normal 0.923881 -0.38268 0
    outer loop
      vertex 114.518 112.984 3.05176e-05
      vertex 114.718 113.466 10
      vertex 114.518 112.984 10
    endloop
  endfacet
  facet normal 0.923881 -0.38268 0
    outer loop
      vertex 114.718 113.466 10
      vertex 114.518 112.984 3.05176e-05
      vertex 114.718 113.466 3.05176e-05
    endloop
  endfacet
  facet normal 0 -1 0
    outer loop
      vertex 104.761 116.366 10
      vertex 109.45 116.366 44
      vertex 104.761 116.366 59
    endloop
  endfacet
  facet normal 0 -1 0
    outer loop
      vertex 109.45 116.366 44
      vertex 104.761 116.366 10
      vertex 128.139 116.366 10
    endloop
  endfacet
  facet normal 0 -1 0
    outer loop
      vertex 109.45 116.366 44
      vertex 128.139 116.366 10
      vertex 110.45 116.366 44
    endloop
  endfacet
  facet normal 0 -1 0
    outer loop
      vertex 110.45 116.366 44
      vertex 128.139 116.366 10
      vertex 110.45 116.366 54
    endloop
  endfacet
  facet normal 0 -1 0
    outer loop
      vertex 110.45 116.366 54
      vertex 128.139 116.366 10
      vertex 122.45 116.366 44
    endloop
  endfacet
  facet normal 0 -1 0
    outer loop
      vertex 110.45 116.366 54
      vertex 122.45 116.366 44
      vertex 122.45 116.366 54
    endloop
  endfacet
  facet normal 0 -1 0
    outer loop
      vertex 122.45 116.366 44
      vertex 128.139 116.366 10
      vertex 123.45 116.366 44
    endloop
  endfacet
  facet normal 0 -1 0
    outer loop
      vertex 123.45 116.366 44
      vertex 128.139 116.366 10
      vertex 123.45 116.366 59
    endloop
  endfacet
  facet normal 0 -1 0
    outer loop
      vertex 123.45 116.366 59
      vertex 128.139 116.366 10
      vertex 128.139 116.366 59
    endloop
  endfacet
  facet normal 0 -1 0
    outer loop
      vertex 109.45 116.366 59
      vertex 104.761 116.366 59
      vertex 109.45 116.366 44
    endloop
  endfacet
  facet normal -1 0 0
    outer loop
      vertex 123.45 118.366 44
      vertex 123.45 116.366 59
      vertex 123.45 118.366 59
    endloop
  endfacet
  facet normal -1 0 0
    outer loop
      vertex 123.45 116.366 59
      vertex 123.45 118.366 44
      vertex 123.45 116.366 44
    endloop
  endfacet
  facet normal 0 0 1
    outer loop
      vertex 110.45 116.366 44
      vertex 109.45 118.366 44
      vertex 109.45 116.366 44
    endloop
  endfacet
  facet normal 0 0 1
    outer loop
      vertex 109.45 118.366 44
      vertex 110.45 116.366 44
      vertex 110.45 118.366 44
    endloop
  endfacet
  facet normal 1 0 0
    outer loop
      vertex 109.45 116.366 44
      vertex 109.45 118.366 59
      vertex 109.45 116.366 59
    endloop
  endfacet
  facet normal 1 0 0
    outer loop
      vertex 109.45 118.366 59
      vertex 109.45 116.366 44
      vertex 109.45 118.366 44
    endloop
  endfacet
  facet normal 0 0 1
    outer loop
      vertex 129.65 98.366 59
      vertex 124.95 98.666 59
      vertex 125.25 98.366 59
    endloop
  endfacet
  facet normal 0 0 1
    outer loop
      vertex 124.95 98.666 59
      vertex 129.65 98.366 59
      vertex 129.95 98.666 59
    endloop
  endfacet
  facet normal 0 0 1
    outer loop
      vertex 124.95 98.666 59
      vertex 129.95 98.666 59
      vertex 124.95 101.366 59
    endloop
  endfacet
  facet normal 0 0 1
    outer loop
      vertex 124.95 101.366 59
      vertex 129.95 98.666 59
      vertex 127.95 101.866 59
    endloop
  endfacet
  facet normal 0 0 1
    outer loop
      vertex 127.95 101.866 59
      vertex 129.95 98.666 59
      vertex 129.95 118.066 59
    endloop
  endfacet
  facet normal 0 0 1
    outer loop
      vertex 127.95 101.866 59
      vertex 129.95 118.066 59
      vertex 127.95 108.566 59
    endloop
  endfacet
  facet normal 0 0 1
    outer loop
      vertex 127.95 108.566 59
      vertex 129.95 118.066 59
      vertex 124.423 108.566 59
    endloop
  endfacet
  facet normal 0 0 1
    outer loop
      vertex 124.423 108.566 59
      vertex 129.95 118.066 59
      vertex 124.18 109.041 59
    endloop
  endfacet
  facet normal 0 0 1
    outer loop
      vertex 124.18 109.041 59
      vertex 129.95 118.066 59
      vertex 128.139 116.366 59
    endloop
  endfacet
  facet normal 0 0 1
    outer loop
      vertex 128.139 116.366 59
      vertex 123.45 118.366 59
      vertex 123.45 116.366 59
    endloop
  endfacet
  facet normal 0 0 1
    outer loop
      vertex 123.45 118.366 59
      vertex 128.139 116.366 59
      vertex 129.95 118.066 59
    endloop
  endfacet
  facet normal 0 0 1
    outer loop
      vertex 123.45 118.366 59
      vertex 129.95 118.066 59
      vertex 129.65 118.366 59
    endloop
  endfacet
  facet normal 0 0 1
    outer loop
      vertex 125.45 101.866 59
      vertex 124.95 101.366 59
      vertex 127.95 101.866 59
    endloop
  endfacet
  facet normal 1 0 0
    outer loop
      vertex 122.45 115.366 58
      vertex 122.45 118.366 59
      vertex 122.45 116.366 59
    endloop
  endfacet
  facet normal 1 0 0
    outer loop
      vertex 122.45 118.366 59
      vertex 122.45 115.366 58
      vertex 122.45 116.366 54
    endloop
  endfacet
  facet normal 1 0 0
    outer loop
      vertex 122.45 118.366 59
      vertex 122.45 116.366 54
      vertex 122.45 118.366 44
    endloop
  endfacet
  facet normal 1 0 0
    outer loop
      vertex 122.45 116.366 54
      vertex 122.45 115.366 58
      vertex 122.45 115.366 55
    endloop
  endfacet
  facet normal 1 0 0
    outer loop
      vertex 122.45 118.366 44
      vertex 122.45 116.366 54
      vertex 122.45 116.366 44
    endloop
  endfacet
  facet normal -1 0 0
    outer loop
      vertex 110.45 118.366 44
      vertex 110.45 116.366 59
      vertex 110.45 118.366 59
    endloop
  endfacet
  facet normal -1 0 0
    outer loop
      vertex 110.45 116.366 59
      vertex 110.45 118.366 44
      vertex 110.45 116.366 54
    endloop
  endfacet
  facet normal -1 0 0
    outer loop
      vertex 110.45 116.366 59
      vertex 110.45 116.366 54
      vertex 110.45 115.366 58
    endloop
  endfacet
  facet normal -1 0 0
    outer loop
      vertex 110.45 115.366 58
      vertex 110.45 116.366 54
      vertex 110.45 115.366 55
    endloop
  endfacet
  facet normal -1 0 0
    outer loop
      vertex 110.45 116.366 54
      vertex 110.45 118.366 44
      vertex 110.45 116.366 44
    endloop
  endfacet
  facet normal 0 0 1
    outer loop
      vertex 123.45 116.366 44
      vertex 122.45 118.366 44
      vertex 122.45 116.366 44
    endloop
  endfacet
  facet normal 0 0 1
    outer loop
      vertex 122.45 118.366 44
      vertex 123.45 116.366 44
      vertex 123.45 118.366 44
    endloop
  endfacet
  facet normal 0 -1 0
    outer loop
      vertex 122.45 115.366 55
      vertex 110.45 115.366 58
      vertex 110.45 115.366 55
    endloop
  endfacet
  facet normal 0 -1 0
    outer loop
      vertex 110.45 115.366 58
      vertex 122.45 115.366 55
      vertex 122.45 115.366 58
    endloop
  endfacet
  facet normal 0 -0.707107 0.707107
    outer loop
      vertex 122.45 116.366 59
      vertex 110.45 115.366 58
      vertex 122.45 115.366 58
    endloop
  endfacet
  facet normal 0 -0.707107 0.707107
    outer loop
      vertex 110.45 115.366 58
      vertex 122.45 116.366 59
      vertex 110.45 116.366 59
    endloop
  endfacet
  facet normal 0 -0.707107 -0.707107
    outer loop
      vertex 110.45 115.366 55
      vertex 122.45 116.366 54
      vertex 122.45 115.366 55
    endloop
  endfacet
  facet normal 0 -0.707107 -0.707107
    outer loop
      vertex 122.45 116.366 54
      vertex 110.45 115.366 55
      vertex 110.45 116.366 54
    endloop
  endfacet
  facet normal 0 1 0
    outer loop
      vertex 122.45 118.366 59
      vertex 110.45 118.366 44
      vertex 110.45 118.366 59
    endloop
  endfacet
  facet normal 0 1 0
    outer loop
      vertex 129.65 118.366 59
      vertex 123.45 118.366 44
      vertex 123.45 118.366 59
    endloop
  endfacet
  facet normal 1.71706e-06 1 -7.09717e-07
    outer loop
      vertex 123.45 118.366 44
      vertex 129.65 118.366 59
      vertex 129.65 118.366 16.0004
    endloop
  endfacet
  facet normal 1.15597e-06 1 -2.55966e-07
    outer loop
      vertex 103.25 118.366 16.0001
      vertex 109.45 118.366 44
      vertex 129.65 118.366 16.0004
    endloop
  endfacet
  facet normal 0 1 0
    outer loop
      vertex 109.45 118.366 44
      vertex 103.25 118.366 16.0001
      vertex 103.25 118.366 59
    endloop
  endfacet
  facet normal 0 1 0
    outer loop
      vertex 109.45 118.366 44
      vertex 103.25 118.366 59
      vertex 109.45 118.366 59
    endloop
  endfacet
  facet normal 0 1 -1.08993e-06
    outer loop
      vertex 129.65 118.366 16.0004
      vertex 109.45 118.366 44
      vertex 110.45 118.366 44
    endloop
  endfacet
  facet normal 0 1 -1.08993e-06
    outer loop
      vertex 129.65 118.366 16.0004
      vertex 110.45 118.366 44
      vertex 122.45 118.366 44
    endloop
  endfacet
  facet normal 0 1 0
    outer loop
      vertex 122.45 118.366 44
      vertex 110.45 118.366 44
      vertex 122.45 118.366 59
    endloop
  endfacet
  facet normal 0 1 -1.08993e-06
    outer loop
      vertex 129.65 118.366 16.0004
      vertex 122.45 118.366 44
      vertex 123.45 118.366 44
    endloop
  endfacet
  facet normal 0 0 1
    outer loop
      vertex 122.45 118.366 59
      vertex 110.45 116.366 59
      vertex 122.45 116.366 59
    endloop
  endfacet
  facet normal 0 0 1
    outer loop
      vertex 110.45 116.366 59
      vertex 122.45 118.366 59
      vertex 110.45 118.366 59
    endloop
  endfacet
  facet normal -0.707107 0.707107 2.50921e-07
    outer loop
      vertex 103.25 118.366 16.0001
      vertex 102.95 118.066 59
      vertex 103.25 118.366 59
    endloop
  endfacet
  facet normal -0.707125 0.707089 0
    outer loop
      vertex 102.95 118.066 59
      vertex 103.25 118.366 16.0001
      vertex 102.95 118.066 16.0001
    endloop
  endfacet
  facet normal 0 0.387665 0.9218
    outer loop
      vertex 129.95 132.621 10.0052
      vertex 129.65 118.366 16.0004
      vertex 129.95 118.366 16.0004
    endloop
  endfacet
  facet normal -9.67481e-06 0.387665 0.9218
    outer loop
      vertex 129.65 118.366 16.0004
      vertex 129.95 132.621 10.0052
      vertex 103.25 118.366 16.0001
    endloop
  endfacet
  facet normal 0 0.38765 0.921807
    outer loop
      vertex 103.25 118.366 16.0001
      vertex 129.95 132.621 10.0052
      vertex 103.22 118.366 16.0001
    endloop
  endfacet
  facet normal -1.3033e-05 0.387671 0.921798
    outer loop
      vertex 103.22 118.366 16.0001
      vertex 129.95 132.621 10.0052
      vertex 102.95 118.366 16.0001
    endloop
  endfacet
  facet normal 2.83216e-06 0.387645 0.921809
    outer loop
      vertex 102.95 118.366 16.0001
      vertex 129.95 132.621 10.0052
      vertex 102.95 132.621 10.0053
    endloop
  endfacet
  facet normal -1.27181e-05 2.5433e-05 1
    outer loop
      vertex 103.25 118.366 16.0001
      vertex 102.95 118.366 16.0001
      vertex 102.95 118.066 16.0001
    endloop
  endfacet
  facet normal 0 -1.1496e-07 0
    outer loop
      vertex 102.95 118.366 16.0001
      vertex 103.25 118.366 16.0001
      vertex 103.22 118.366 16.0001
    endloop
  endfacet
  facet normal 0.707071 0.707143 -7.52781e-07
    outer loop
      vertex 129.65 118.366 59
      vertex 129.95 118.066 16.0004
      vertex 129.65 118.366 16.0004
    endloop
  endfacet
  facet normal 0.707107 0.707107 -2.50923e-07
    outer loop
      vertex 129.95 118.066 16.0004
      vertex 129.65 118.366 59
      vertex 129.95 118.066 59
    endloop
  endfacet
  facet normal 0 0 1
    outer loop
      vertex 129.65 118.366 16.0004
      vertex 129.95 118.066 16.0004
      vertex 129.95 118.366 16.0004
    endloop
  endfacet
endsolid Lower Slider.stl
