solid Tube Stand Riser.stl
  facet normal 0 0 1
    outer loop
      vertex 100.007 91.9956 96.9988
      vertex 101.282 96.7371 96.9988
      vertex 100.432 96.5189 96.9988
    endloop
  endfacet
  facet normal 0 0 1
    outer loop
      vertex 101.282 96.7371 96.9988
      vertex 100.007 91.9956 96.9988
      vertex 108.007 99.9956 96.9988
    endloop
  endfacet
  facet normal 0 0 1
    outer loop
      vertex 101.282 96.7371 96.9988
      vertex 108.007 99.9956 96.9988
      vertex 102.051 97.1597 96.9988
    endloop
  endfacet
  facet normal 0 0 1
    outer loop
      vertex 102.051 97.1597 96.9988
      vertex 108.007 99.9956 96.9988
      vertex 102.69 97.7603 96.9988
    endloop
  endfacet
  facet normal 0 0 1
    outer loop
      vertex 102.69 97.7603 96.9988
      vertex 108.007 99.9956 96.9988
      vertex 103.16 98.5011 96.9988
    endloop
  endfacet
  facet normal 0 0 1
    outer loop
      vertex 103.16 98.5011 96.9988
      vertex 108.007 99.9956 96.9988
      vertex 103.431 99.3355 96.9988
    endloop
  endfacet
  facet normal 0 0 1
    outer loop
      vertex 103.431 99.3355 96.9988
      vertex 108.007 99.9956 96.9988
      vertex 103.487 100.211 96.9988
    endloop
  endfacet
  facet normal 0 0 1
    outer loop
      vertex 103.487 100.211 96.9988
      vertex 108.007 99.9956 96.9988
      vertex 103.322 101.073 96.9988
    endloop
  endfacet
  facet normal 0 0 1
    outer loop
      vertex 103.322 101.073 96.9988
      vertex 108.007 99.9956 96.9988
      vertex 102.949 101.867 96.9988
    endloop
  endfacet
  facet normal 0 0 1
    outer loop
      vertex 102.949 101.867 96.9988
      vertex 108.007 99.9956 96.9988
      vertex 100.007 107.996 96.9988
    endloop
  endfacet
  facet normal 0 0 1
    outer loop
      vertex 102.949 101.867 96.9988
      vertex 100.007 107.996 96.9988
      vertex 102.389 102.543 96.9988
    endloop
  endfacet
  facet normal 0 0 1
    outer loop
      vertex 102.389 102.543 96.9988
      vertex 100.007 107.996 96.9988
      vertex 101.68 103.058 96.9988
    endloop
  endfacet
  facet normal 0 0 1
    outer loop
      vertex 101.68 103.058 96.9988
      vertex 100.007 107.996 96.9988
      vertex 100.864 103.381 96.9988
    endloop
  endfacet
  facet normal 0 0 1
    outer loop
      vertex 100.864 103.381 96.9988
      vertex 100.007 107.996 96.9988
      vertex 99.9934 103.491 96.9988
    endloop
  endfacet
  facet normal 0 0 1
    outer loop
      vertex 100.007 91.9956 96.9988
      vertex 98.705 96.7371 96.9988
      vertex 92.0066 99.9956 96.9988
    endloop
  endfacet
  facet normal 0 0 1
    outer loop
      vertex 98.705 96.7371 96.9988
      vertex 100.007 91.9956 96.9988
      vertex 99.5548 96.5189 96.9988
    endloop
  endfacet
  facet normal 0 0 1
    outer loop
      vertex 99.5548 96.5189 96.9988
      vertex 100.007 91.9956 96.9988
      vertex 100.432 96.5189 96.9988
    endloop
  endfacet
  facet normal 0 0 1
    outer loop
      vertex 92.0066 99.9956 96.9988
      vertex 98.705 96.7371 96.9988
      vertex 97.9362 97.1597 96.9988
    endloop
  endfacet
  facet normal 0 0 1
    outer loop
      vertex 92.0066 99.9956 96.9988
      vertex 97.9362 97.1597 96.9988
      vertex 97.2966 97.7603 96.9988
    endloop
  endfacet
  facet normal 0 0 1
    outer loop
      vertex 92.0066 99.9956 96.9988
      vertex 97.2966 97.7603 96.9988
      vertex 96.8265 98.5011 96.9988
    endloop
  endfacet
  facet normal 0 0 1
    outer loop
      vertex 92.0066 99.9956 96.9988
      vertex 96.8265 98.5011 96.9988
      vertex 96.5554 99.3355 96.9988
    endloop
  endfacet
  facet normal 0 0 1
    outer loop
      vertex 92.0066 99.9956 96.9988
      vertex 96.5554 99.3355 96.9988
      vertex 96.5004 100.211 96.9988
    endloop
  endfacet
  facet normal 0 0 1
    outer loop
      vertex 92.0066 99.9956 96.9988
      vertex 96.5004 100.211 96.9988
      vertex 96.6647 101.073 96.9988
    endloop
  endfacet
  facet normal 0 0 1
    outer loop
      vertex 92.0066 99.9956 96.9988
      vertex 96.6647 101.073 96.9988
      vertex 97.0383 101.867 96.9988
    endloop
  endfacet
  facet normal 0 0 1
    outer loop
      vertex 92.0066 99.9956 96.9988
      vertex 97.0383 101.867 96.9988
      vertex 100.007 107.996 96.9988
    endloop
  endfacet
  facet normal 0 0 1
    outer loop
      vertex 100.007 107.996 96.9988
      vertex 97.0383 101.867 96.9988
      vertex 97.5975 102.543 96.9988
    endloop
  endfacet
  facet normal 0 0 1
    outer loop
      vertex 100.007 107.996 96.9988
      vertex 97.5975 102.543 96.9988
      vertex 98.3073 103.058 96.9988
    endloop
  endfacet
  facet normal 0 0 1
    outer loop
      vertex 100.007 107.996 96.9988
      vertex 98.3073 103.058 96.9988
      vertex 99.123 103.381 96.9988
    endloop
  endfacet
  facet normal 0 0 1
    outer loop
      vertex 100.007 107.996 96.9988
      vertex 99.123 103.381 96.9988
      vertex 99.9934 103.491 96.9988
    endloop
  endfacet
  facet normal 0.634392 0.773012 4.55051e-06
    outer loop
      vertex 105.65 105.662 92.9988
      vertex 104.439 106.657 5.00076
      vertex 104.438 106.657 92.9988
    endloop
  endfacet
  facet normal 0.634392 0.773012 4.55051e-06
    outer loop
      vertex 104.439 106.657 5.00076
      vertex 105.65 105.662 92.9988
      vertex 105.651 105.662 5.00076
    endloop
  endfacet
  facet normal 0.471399 0.88192 3.4224e-06
    outer loop
      vertex 104.438 106.657 92.9988
      vertex 103.056 107.396 5.00076
      vertex 103.055 107.396 92.9988
    endloop
  endfacet
  facet normal 0.471398 0.88192 3.44141e-06
    outer loop
      vertex 103.056 107.396 5.00076
      vertex 104.438 106.657 92.9988
      vertex 104.439 106.657 5.00076
    endloop
  endfacet
  facet normal 0.290284 0.95694 3.82189e-06
    outer loop
      vertex 103.055 107.396 92.9988
      vertex 101.554 107.852 5.00079
      vertex 101.554 107.851 92.9988
    endloop
  endfacet
  facet normal 0.290372 0.956914 2.1801e-06
    outer loop
      vertex 101.554 107.852 5.00079
      vertex 103.055 107.396 92.9988
      vertex 103.056 107.396 5.00076
    endloop
  endfacet
  facet normal 0.000215943 0.000215943 1
    outer loop
      vertex 92.0066 99.9956 92.9988
      vertex 99.2182 92.0773 92.999
      vertex 100.007 91.9956 92.9988
    endloop
  endfacet
  facet normal -0.00021233 -0.000174111 1
    outer loop
      vertex 99.2182 92.0773 92.999
      vertex 92.0066 99.9956 92.9988
      vertex 98.4327 92.1588 92.9988
    endloop
  endfacet
  facet normal 0 0 1
    outer loop
      vertex 98.4327 92.1588 92.9988
      vertex 92.0066 99.9956 92.9988
      vertex 98.0954 92.2611 92.9988
    endloop
  endfacet
  facet normal 0 0 1
    outer loop
      vertex 98.0954 92.2611 92.9988
      vertex 92.0066 99.9956 92.9988
      vertex 96.932 92.6141 92.9988
    endloop
  endfacet
  facet normal 0 0 1
    outer loop
      vertex 96.932 92.6141 92.9988
      vertex 92.0066 99.9956 92.9988
      vertex 95.5489 93.3533 92.9988
    endloop
  endfacet
  facet normal 0 0 1
    outer loop
      vertex 95.5489 93.3533 92.9988
      vertex 92.0066 99.9956 92.9988
      vertex 94.3366 94.3482 92.9988
    endloop
  endfacet
  facet normal 0 0 1
    outer loop
      vertex 94.3366 94.3482 92.9988
      vertex 92.0066 99.9956 92.9988
      vertex 93.3417 95.5605 92.9988
    endloop
  endfacet
  facet normal 0 0 1
    outer loop
      vertex 93.3417 95.5605 92.9988
      vertex 92.0066 99.9956 92.9988
      vertex 92.6024 96.9436 92.9988
    endloop
  endfacet
  facet normal -0.00300196 -0.000586084 0.999995
    outer loop
      vertex 92.6024 96.9436 92.9988
      vertex 92.0066 99.9956 92.9988
      vertex 92.0771 99.2179 92.9986
    endloop
  endfacet
  facet normal 0.00148366 0.000450064 0.999999
    outer loop
      vertex 92.6024 96.9436 92.9988
      vertex 92.0771 99.2179 92.9986
      vertex 92.1472 98.4444 92.9988
    endloop
  endfacet
  facet normal -0.881919 -0.471401 2.25297e-06
    outer loop
      vertex 92.6024 96.9432 5.00046
      vertex 93.3417 95.5605 92.9988
      vertex 92.6024 96.9436 92.9988
    endloop
  endfacet
  facet normal -0.881923 -0.471394 2.40585e-06
    outer loop
      vertex 93.3417 95.5605 92.9988
      vertex 92.6024 96.9432 5.00046
      vertex 93.3417 95.5601 5.00046
    endloop
  endfacet
  facet normal -0.29029 -0.956939 4.57344e-06
    outer loop
      vertex 98.4327 92.1584 5.00046
      vertex 98.0954 92.2611 92.9988
      vertex 98.0954 92.2607 5.00046
    endloop
  endfacet
  facet normal -0.290278 -0.956942 4.6238e-06
    outer loop
      vertex 98.0954 92.2611 92.9988
      vertex 98.4327 92.1584 5.00046
      vertex 98.4327 92.1588 92.9988
    endloop
  endfacet
  facet normal -0.77301 -0.634394 3.16599e-06
    outer loop
      vertex 93.3417 95.5601 5.00046
      vertex 94.3366 94.3482 92.9988
      vertex 93.3417 95.5605 92.9988
    endloop
  endfacet
  facet normal -0.77301 -0.634394 3.16599e-06
    outer loop
      vertex 94.3366 94.3482 92.9988
      vertex 93.3417 95.5601 5.00046
      vertex 94.3366 94.3478 5.00046
    endloop
  endfacet
  facet normal -0.634392 -0.773011 3.80504e-06
    outer loop
      vertex 95.5489 93.3529 5.00046
      vertex 94.3366 94.3482 92.9988
      vertex 94.3366 94.3478 5.00046
    endloop
  endfacet
  facet normal -0.634392 -0.773011 3.80504e-06
    outer loop
      vertex 94.3366 94.3482 92.9988
      vertex 95.5489 93.3529 5.00046
      vertex 95.5489 93.3533 92.9988
    endloop
  endfacet
  facet normal -0.290283 -0.956941 4.62393e-06
    outer loop
      vertex 98.0954 92.2607 5.00046
      vertex 96.932 92.6141 92.9988
      vertex 96.932 92.6136 5.00046
    endloop
  endfacet
  facet normal -0.290286 -0.95694 4.57356e-06
    outer loop
      vertex 96.932 92.6141 92.9988
      vertex 98.0954 92.2607 5.00046
      vertex 98.0954 92.2611 92.9988
    endloop
  endfacet
  facet normal -0.471399 -0.88192 4.29743e-06
    outer loop
      vertex 96.932 92.6136 5.00046
      vertex 95.5489 93.3533 92.9988
      vertex 95.5489 93.3529 5.00046
    endloop
  endfacet
  facet normal -0.471399 -0.88192 4.29743e-06
    outer loop
      vertex 95.5489 93.3533 92.9988
      vertex 96.932 92.6136 5.00046
      vertex 96.932 92.6141 92.9988
    endloop
  endfacet
  facet normal -0.95694 0.290285 -8.4936e-06
    outer loop
      vertex 92.6031 103.066 0.000610352
      vertex 92.1472 101.566 92.9988
      vertex 92.6024 103.067 92.9988
    endloop
  endfacet
  facet normal -0.95694 0.290285 -8.4936e-06
    outer loop
      vertex 92.1472 101.566 92.9988
      vertex 92.6031 103.066 0.000610352
      vertex 92.1479 101.565 0.000610352
    endloop
  endfacet
  facet normal -0.77301 0.634394 -8.60566e-06
    outer loop
      vertex 94.3373 105.662 0.000610352
      vertex 93.3417 104.45 92.9988
      vertex 94.3366 105.662 92.9988
    endloop
  endfacet
  facet normal -0.77301 0.634394 -8.60566e-06
    outer loop
      vertex 93.3417 104.45 92.9988
      vertex 94.3373 105.662 0.000610352
      vertex 93.3424 104.449 0.000610352
    endloop
  endfacet
  facet normal -0.471399 0.88192 -7.33257e-06
    outer loop
      vertex 96.932 107.396 92.9988
      vertex 95.5496 106.656 0.000610352
      vertex 95.5489 106.657 92.9988
    endloop
  endfacet
  facet normal -0.471395 0.881922 -7.41015e-06
    outer loop
      vertex 95.5496 106.656 0.000610352
      vertex 96.932 107.396 92.9988
      vertex 96.9327 107.396 0.000610352
    endloop
  endfacet
  facet normal -0.881919 0.471401 -8.71562e-06
    outer loop
      vertex 93.3424 104.449 0.000610352
      vertex 92.6024 103.067 92.9988
      vertex 93.3417 104.45 92.9988
    endloop
  endfacet
  facet normal -0.881919 0.471401 -8.72045e-06
    outer loop
      vertex 92.6024 103.067 92.9988
      vertex 93.3424 104.449 0.000610352
      vertex 92.6031 103.066 0.000610352
    endloop
  endfacet
  facet normal -0.290284 0.95694 -6.37131e-06
    outer loop
      vertex 98.4327 107.851 92.9988
      vertex 96.9327 107.396 0.000610352
      vertex 96.932 107.396 92.9988
    endloop
  endfacet
  facet normal -0.290284 0.95694 -6.37131e-06
    outer loop
      vertex 96.9327 107.396 0.000610352
      vertex 98.4327 107.851 92.9988
      vertex 98.4334 107.851 0.000610352
    endloop
  endfacet
  facet normal -0.634392 0.773012 -8.1646e-06
    outer loop
      vertex 95.5489 106.657 92.9988
      vertex 94.3373 105.662 0.000610352
      vertex 94.3366 105.662 92.9988
    endloop
  endfacet
  facet normal -0.634397 0.773008 -8.06086e-06
    outer loop
      vertex 94.3373 105.662 0.000610352
      vertex 95.5489 106.657 92.9988
      vertex 95.5496 106.656 0.000610352
    endloop
  endfacet
  facet normal 0.707107 -0.707107 0
    outer loop
      vertex 108.007 99.9956 92.9988
      vertex 100.007 91.9956 96.9988
      vertex 100.007 91.9956 92.9988
    endloop
  endfacet
  facet normal 0.707107 -0.707107 0
    outer loop
      vertex 100.007 91.9956 96.9988
      vertex 108.007 99.9956 92.9988
      vertex 108.007 99.9956 96.9988
    endloop
  endfacet
  facet normal 0.707107 0.707107 0
    outer loop
      vertex 108.007 99.9956 96.9988
      vertex 100.007 107.996 92.9988
      vertex 100.007 107.996 96.9988
    endloop
  endfacet
  facet normal 0.707107 0.707107 0
    outer loop
      vertex 100.007 107.996 92.9988
      vertex 108.007 99.9956 96.9988
      vertex 108.007 99.9956 92.9988
    endloop
  endfacet
  facet normal -0.707107 -0.707107 0
    outer loop
      vertex 92.0066 99.9956 92.9988
      vertex 100.007 91.9956 96.9988
      vertex 92.0066 99.9956 96.9988
    endloop
  endfacet
  facet normal -0.707107 -0.707107 0
    outer loop
      vertex 100.007 91.9956 96.9988
      vertex 92.0066 99.9956 92.9988
      vertex 100.007 91.9956 92.9988
    endloop
  endfacet
  facet normal -0.707107 0.707107 0
    outer loop
      vertex 100.007 107.996 92.9988
      vertex 92.0066 99.9956 96.9988
      vertex 100.007 107.996 96.9988
    endloop
  endfacet
  facet normal -0.707107 0.707107 0
    outer loop
      vertex 92.0066 99.9956 96.9988
      vertex 100.007 107.996 92.9988
      vertex 92.0066 99.9956 92.9988
    endloop
  endfacet
  facet normal 0.998027 0.0627854 -9.53723e-07
    outer loop
      vertex 96.5553 99.3354 0.000244141
      vertex 96.5004 100.211 96.9988
      vertex 96.5554 99.3355 96.9988
    endloop
  endfacet
  facet normal 0.998027 0.0627854 -9.53723e-07
    outer loop
      vertex 96.5004 100.211 96.9988
      vertex 96.5553 99.3354 0.000244141
      vertex 96.5003 100.211 0.000244141
    endloop
  endfacet
  facet normal 0.951058 0.309013 -9.55387e-07
    outer loop
      vertex 96.8264 98.5011 0.000244141
      vertex 96.5554 99.3355 96.9988
      vertex 96.8265 98.5011 96.9988
    endloop
  endfacet
  facet normal 0.951058 0.309013 -9.55387e-07
    outer loop
      vertex 96.5554 99.3355 96.9988
      vertex 96.8264 98.5011 0.000244141
      vertex 96.5553 99.3354 0.000244141
    endloop
  endfacet
  facet normal 0.844327 0.535828 -8.97019e-07
    outer loop
      vertex 97.2966 97.7603 0.000244141
      vertex 96.8265 98.5011 96.9988
      vertex 97.2966 97.7603 96.9988
    endloop
  endfacet
  facet normal 0.844327 0.535828 -8.97019e-07
    outer loop
      vertex 96.8265 98.5011 96.9988
      vertex 97.2966 97.7603 0.000244141
      vertex 96.8264 98.5011 0.000244141
    endloop
  endfacet
  facet normal 0.684548 0.728968 -7.8229e-07
    outer loop
      vertex 97.2966 97.7603 96.9988
      vertex 97.9361 97.1597 0.000244141
      vertex 97.2966 97.7603 0.000244141
    endloop
  endfacet
  facet normal 0.684547 0.728968 -7.85873e-07
    outer loop
      vertex 97.9361 97.1597 0.000244141
      vertex 97.2966 97.7603 96.9988
      vertex 97.9362 97.1597 96.9988
    endloop
  endfacet
  facet normal 0.481748 0.87631 -6.22708e-07
    outer loop
      vertex 97.9362 97.1597 96.9988
      vertex 98.7049 96.7371 0.000244141
      vertex 97.9361 97.1597 0.000244141
    endloop
  endfacet
  facet normal 0.481748 0.87631 -6.22708e-07
    outer loop
      vertex 98.7049 96.7371 0.000244141
      vertex 97.9362 97.1597 96.9988
      vertex 98.705 96.7371 96.9988
    endloop
  endfacet
  facet normal 0.24869 0.968583 -4.20425e-07
    outer loop
      vertex 98.705 96.7371 96.9988
      vertex 99.5547 96.5189 0.000244141
      vertex 98.7049 96.7371 0.000244141
    endloop
  endfacet
  facet normal 0.24869 0.968583 -4.20425e-07
    outer loop
      vertex 99.5547 96.5189 0.000244141
      vertex 98.705 96.7371 96.9988
      vertex 99.5548 96.5189 96.9988
    endloop
  endfacet
  facet normal 0 1 -1.91721e-07
    outer loop
      vertex 99.5548 96.5189 96.9988
      vertex 100.432 96.5189 0.000244141
      vertex 99.5547 96.5189 0.000244141
    endloop
  endfacet
  facet normal 0 1 -1.91721e-07
    outer loop
      vertex 100.432 96.5189 0.000244141
      vertex 99.5548 96.5189 96.9988
      vertex 100.432 96.5189 96.9988
    endloop
  endfacet
  facet normal -0.24869 0.968583 4.90297e-08
    outer loop
      vertex 100.432 96.5189 96.9988
      vertex 101.282 96.7371 0.000244141
      vertex 100.432 96.5189 0.000244141
    endloop
  endfacet
  facet normal -0.24869 0.968583 4.90297e-08
    outer loop
      vertex 101.282 96.7371 0.000244141
      vertex 100.432 96.5189 96.9988
      vertex 101.282 96.7371 96.9988
    endloop
  endfacet
  facet normal -0.481748 0.87631 2.86695e-07
    outer loop
      vertex 101.282 96.7371 96.9988
      vertex 102.051 97.1597 0.000244141
      vertex 101.282 96.7371 0.000244141
    endloop
  endfacet
  facet normal -0.481748 0.87631 2.86695e-07
    outer loop
      vertex 102.051 97.1597 0.000244141
      vertex 101.282 96.7371 96.9988
      vertex 102.051 97.1597 96.9988
    endloop
  endfacet
  facet normal -0.684548 0.728968 5.06357e-07
    outer loop
      vertex 102.051 97.1597 96.9988
      vertex 102.69 97.7603 0.000244141
      vertex 102.051 97.1597 0.000244141
    endloop
  endfacet
  facet normal -0.684547 0.728968 5.0994e-07
    outer loop
      vertex 102.69 97.7603 0.000244141
      vertex 102.051 97.1597 96.9988
      vertex 102.69 97.7603 96.9988
    endloop
  endfacet
  facet normal -0.844335 0.535816 6.96838e-07
    outer loop
      vertex 103.16 98.5011 0.000244141
      vertex 102.69 97.7603 96.9988
      vertex 103.16 98.5011 96.9988
    endloop
  endfacet
  facet normal -0.844335 0.535816 6.96838e-07
    outer loop
      vertex 102.69 97.7603 96.9988
      vertex 103.16 98.5011 0.000244141
      vertex 102.69 97.7603 0.000244141
    endloop
  endfacet
  facet normal -0.951053 0.309029 8.39929e-07
    outer loop
      vertex 103.431 99.3354 0.000244141
      vertex 103.16 98.5011 96.9988
      vertex 103.431 99.3355 96.9988
    endloop
  endfacet
  facet normal -0.951053 0.309029 8.39929e-07
    outer loop
      vertex 103.16 98.5011 96.9988
      vertex 103.431 99.3354 0.000244141
      vertex 103.16 98.5011 0.000244141
    endloop
  endfacet
  facet normal -0.998027 0.0627854 9.30266e-07
    outer loop
      vertex 103.486 100.211 0.000244141
      vertex 103.431 99.3355 96.9988
      vertex 103.487 100.211 96.9988
    endloop
  endfacet
  facet normal -0.998027 0.0627854 9.30266e-07
    outer loop
      vertex 103.431 99.3355 96.9988
      vertex 103.486 100.211 0.000244141
      vertex 103.431 99.3354 0.000244141
    endloop
  endfacet
  facet normal -0.982286 -0.187385 9.62142e-07
    outer loop
      vertex 103.322 101.073 0.000244141
      vertex 103.487 100.211 96.9988
      vertex 103.322 101.073 96.9988
    endloop
  endfacet
  facet normal -0.982286 -0.187385 9.62142e-07
    outer loop
      vertex 103.487 100.211 96.9988
      vertex 103.322 101.073 0.000244141
      vertex 103.486 100.211 0.000244141
    endloop
  endfacet
  facet normal -0.904828 -0.425778 9.33565e-07
    outer loop
      vertex 102.948 101.867 0.000244141
      vertex 103.322 101.073 96.9988
      vertex 102.949 101.867 96.9988
    endloop
  endfacet
  facet normal -0.904828 -0.425778 9.33565e-07
    outer loop
      vertex 103.322 101.073 96.9988
      vertex 102.948 101.867 0.000244141
      vertex 103.322 101.073 0.000244141
    endloop
  endfacet
  facet normal -0.770512 -0.637426 8.46327e-07
    outer loop
      vertex 102.389 102.543 0.000244141
      vertex 102.949 101.867 96.9988
      vertex 102.389 102.543 96.9988
    endloop
  endfacet
  facet normal -0.770512 -0.637426 8.46327e-07
    outer loop
      vertex 102.949 101.867 96.9988
      vertex 102.389 102.543 0.000244141
      vertex 102.948 101.867 0.000244141
    endloop
  endfacet
  facet normal -0.587795 -0.80901 7.06018e-07
    outer loop
      vertex 102.389 102.543 0.000244141
      vertex 101.68 103.058 96.9988
      vertex 101.679 103.058 0.000244141
    endloop
  endfacet
  facet normal -0.587795 -0.80901 7.06018e-07
    outer loop
      vertex 101.68 103.058 96.9988
      vertex 102.389 102.543 0.000244141
      vertex 102.389 102.543 96.9988
    endloop
  endfacet
  facet normal -0.368126 -0.929776 5.21105e-07
    outer loop
      vertex 101.679 103.058 0.000244141
      vertex 100.864 103.381 96.9988
      vertex 100.864 103.381 0.000244141
    endloop
  endfacet
  facet normal -0.368126 -0.929776 5.21105e-07
    outer loop
      vertex 100.864 103.381 96.9988
      vertex 101.679 103.058 0.000244141
      vertex 101.68 103.058 96.9988
    endloop
  endfacet
  facet normal -0.125328 -0.992115 3.03624e-07
    outer loop
      vertex 100.864 103.381 0.000244141
      vertex 99.9934 103.491 96.9988
      vertex 99.9933 103.491 0.000244141
    endloop
  endfacet
  facet normal -0.125328 -0.992115 3.03624e-07
    outer loop
      vertex 99.9934 103.491 96.9988
      vertex 100.864 103.381 0.000244141
      vertex 100.864 103.381 96.9988
    endloop
  endfacet
  facet normal 0.12533 -0.992115 6.6977e-08
    outer loop
      vertex 99.9933 103.491 0.000244141
      vertex 99.123 103.381 96.9988
      vertex 99.1229 103.381 0.000244141
    endloop
  endfacet
  facet normal 0.12533 -0.992115 6.6977e-08
    outer loop
      vertex 99.123 103.381 96.9988
      vertex 99.9933 103.491 0.000244141
      vertex 99.9934 103.491 96.9988
    endloop
  endfacet
  facet normal 0.36812 -0.929778 -1.73699e-07
    outer loop
      vertex 99.1229 103.381 0.000244141
      vertex 98.3073 103.058 96.9988
      vertex 98.3072 103.058 0.000244141
    endloop
  endfacet
  facet normal 0.36812 -0.929778 -1.73699e-07
    outer loop
      vertex 98.3073 103.058 96.9988
      vertex 99.1229 103.381 0.000244141
      vertex 99.123 103.381 96.9988
    endloop
  endfacet
  facet normal 0.587787 -0.809016 -4.03784e-07
    outer loop
      vertex 98.3072 103.058 0.000244141
      vertex 97.5975 102.543 96.9988
      vertex 97.5974 102.543 0.000244141
    endloop
  endfacet
  facet normal 0.587787 -0.809016 -4.03784e-07
    outer loop
      vertex 97.5975 102.543 96.9988
      vertex 98.3072 103.058 0.000244141
      vertex 98.3073 103.058 96.9988
    endloop
  endfacet
  facet normal 0.770512 -0.637426 -6.08178e-07
    outer loop
      vertex 97.0382 101.867 0.000244141
      vertex 97.5975 102.543 96.9988
      vertex 97.0383 101.867 96.9988
    endloop
  endfacet
  facet normal 0.770512 -0.637426 -6.08178e-07
    outer loop
      vertex 97.5975 102.543 96.9988
      vertex 97.0382 101.867 0.000244141
      vertex 97.5974 102.543 0.000244141
    endloop
  endfacet
  facet normal 0.904834 -0.425764 -7.74499e-07
    outer loop
      vertex 96.6647 101.073 0.000244141
      vertex 97.0383 101.867 96.9988
      vertex 96.6647 101.073 96.9988
    endloop
  endfacet
  facet normal 0.904834 -0.425764 -7.74499e-07
    outer loop
      vertex 97.0383 101.867 96.9988
      vertex 96.6647 101.073 0.000244141
      vertex 97.0382 101.867 0.000244141
    endloop
  endfacet
  facet normal 0.982286 -0.187385 -8.92133e-07
    outer loop
      vertex 96.5003 100.211 0.000244141
      vertex 96.6647 101.073 96.9988
      vertex 96.5004 100.211 96.9988
    endloop
  endfacet
  facet normal 0.982286 -0.187385 -8.92133e-07
    outer loop
      vertex 96.6647 101.073 96.9988
      vertex 96.5003 100.211 0.000244141
      vertex 96.6647 101.073 0.000244141
    endloop
  endfacet
  facet normal -3.82608e-05 -0.000766113 1
    outer loop
      vertex 99.1729 92.0855 5.00049
      vertex 91.9934 92.0059 5.00015
      vertex 99.9934 92.0047 5.00046
    endloop
  endfacet
  facet normal -4.61975e-05 -5.04671e-05 1
    outer loop
      vertex 91.9934 92.0059 5.00015
      vertex 99.1729 92.0855 5.00049
      vertex 98.4327 92.1584 5.00046
    endloop
  endfacet
  facet normal -4.39602e-05 -0.000144918 1
    outer loop
      vertex 91.9934 92.0059 5.00015
      vertex 98.4327 92.1584 5.00046
      vertex 96.932 92.6136 5.00046
    endloop
  endfacet
  facet normal -5.02299e-05 -9.3973e-05 1
    outer loop
      vertex 91.9934 92.0059 5.00015
      vertex 96.932 92.6136 5.00046
      vertex 95.5489 93.3529 5.00046
    endloop
  endfacet
  facet normal -5.87234e-05 -7.15549e-05 1
    outer loop
      vertex 91.9934 92.0059 5.00015
      vertex 95.5489 93.3529 5.00046
      vertex 94.3366 94.3478 5.00046
    endloop
  endfacet
  facet normal -7.15512e-05 -5.87206e-05 1
    outer loop
      vertex 91.9934 92.0059 5.00015
      vertex 94.3366 94.3478 5.00046
      vertex 93.3417 95.5601 5.00046
    endloop
  endfacet
  facet normal -9.39579e-05 -5.02211e-05 1
    outer loop
      vertex 91.9934 92.0059 5.00015
      vertex 93.3417 95.5601 5.00046
      vertex 92.6024 96.9432 5.00046
    endloop
  endfacet
  facet normal -0.00014486 -4.39429e-05 1
    outer loop
      vertex 91.9934 92.0059 5.00015
      vertex 92.6024 96.9432 5.00046
      vertex 92.1472 98.444 5.00046
    endloop
  endfacet
  facet normal -0.000387372 -3.81526e-05 1
    outer loop
      vertex 91.9934 92.0059 5.00015
      vertex 92.1472 98.444 5.00046
      vertex 91.9934 100.005 5.00046
    endloop
  endfacet
  facet normal 0 0 1
    outer loop
      vertex 96.932 92.6136 5.00046
      vertex 98.4327 92.1584 5.00046
      vertex 98.0954 92.2607 5.00046
    endloop
  endfacet
  facet normal -0.000148563 -1 -5.20844e-05
    outer loop
      vertex 91.994 92.0061 0
      vertex 99.9934 92.0047 5.00046
      vertex 91.9934 92.0059 5.00015
    endloop
  endfacet
  facet normal -1.56414e-05 -1 -0.000264725
    outer loop
      vertex 99.9934 92.0047 5.00046
      vertex 91.994 92.0061 0
      vertex 107.994 92.0059 0.000305176
    endloop
  endfacet
  facet normal 0.000149808 -1 -4.5866e-09
    outer loop
      vertex 99.9934 92.0047 5.00046
      vertex 107.994 92.0059 0.000305176
      vertex 107.994 92.0059 5.00021
    endloop
  endfacet
  facet normal 9.71249e-06 3.78277e-05 -1
    outer loop
      vertex 91.994 92.0061 0
      vertex 98.7049 96.7371 0.000244141
      vertex 99.5547 96.5189 0.000244141
    endloop
  endfacet
  facet normal 1.75518e-05 2.67074e-05 -1
    outer loop
      vertex 98.7049 96.7371 0.000244141
      vertex 91.994 92.0061 0
      vertex 91.9939 100.005 0.000213623
    endloop
  endfacet
  facet normal 3.97914e-05 7.23813e-05 -1
    outer loop
      vertex 98.7049 96.7371 0.000244141
      vertex 91.9939 100.005 0.000213623
      vertex 97.9361 97.1597 0.000244141
    endloop
  endfacet
  facet normal 1.04781e-05 1.1158e-05 -1
    outer loop
      vertex 97.9361 97.1597 0.000244141
      vertex 91.9939 100.005 0.000213623
      vertex 97.2966 97.7603 0.000244141
    endloop
  endfacet
  facet normal 7.86888e-06 4.99377e-06 -1
    outer loop
      vertex 97.2966 97.7603 0.000244141
      vertex 91.9939 100.005 0.000213623
      vertex 96.8264 98.5011 0.000244141
    endloop
  endfacet
  facet normal 7.02525e-06 2.28261e-06 -1
    outer loop
      vertex 96.8264 98.5011 0.000244141
      vertex 91.9939 100.005 0.000213623
      vertex 96.5553 99.3354 0.000244141
    endloop
  endfacet
  facet normal 6.75262e-06 4.24804e-07 -1
    outer loop
      vertex 96.5553 99.3354 0.000244141
      vertex 91.9939 100.005 0.000213623
      vertex 96.5003 100.211 0.000244141
    endloop
  endfacet
  facet normal -4.88393e-06 0.000254698 -1
    outer loop
      vertex 96.5003 100.211 0.000244141
      vertex 91.9939 100.005 0.000213623
      vertex 92.1479 101.565 0.000610352
    endloop
  endfacet
  facet normal -7.94252e-05 1.51515e-05 -1
    outer loop
      vertex 96.5003 100.211 0.000244141
      vertex 92.1479 101.565 0.000610352
      vertex 96.6647 101.073 0.000244141
    endloop
  endfacet
  facet normal -7.71201e-05 3.62883e-05 -1
    outer loop
      vertex 96.6647 101.073 0.000244141
      vertex 92.1479 101.565 0.000610352
      vertex 97.0382 101.867 0.000244141
    endloop
  endfacet
  facet normal -7.63107e-05 2.31486e-05 -1
    outer loop
      vertex 97.0382 101.867 0.000244141
      vertex 92.1479 101.565 0.000610352
      vertex 92.6031 103.066 0.000610352
    endloop
  endfacet
  facet normal -6.74745e-05 5.58201e-05 -1
    outer loop
      vertex 97.0382 101.867 0.000244141
      vertex 92.6031 103.066 0.000610352
      vertex 97.5974 102.543 0.000244141
    endloop
  endfacet
  facet normal -6.40807e-05 8.81991e-05 -1
    outer loop
      vertex 97.5974 102.543 0.000244141
      vertex 92.6031 103.066 0.000610352
      vertex 98.3072 103.058 0.000244141
    endloop
  endfacet
  facet normal -6.39803e-05 0.000161598 -1
    outer loop
      vertex 98.3072 103.058 0.000244141
      vertex 92.6031 103.066 0.000610352
      vertex 99.1229 103.381 0.000244141
    endloop
  endfacet
  facet normal -5.76585e-05 3.08195e-05 -1
    outer loop
      vertex 99.1229 103.381 0.000244141
      vertex 92.6031 103.066 0.000610352
      vertex 93.3424 104.449 0.000610352
    endloop
  endfacet
  facet normal -2.57273e-05 0.000203658 -1
    outer loop
      vertex 99.1229 103.381 0.000244141
      vertex 93.3424 104.449 0.000610352
      vertex 99.9933 103.491 0.000244141
    endloop
  endfacet
  facet normal 1.90737e-05 -7.6304e-06 -1
    outer loop
      vertex 91.994 92.0061 0
      vertex 107.994 100.005 0.000244141
      vertex 107.994 92.0059 0.000305176
    endloop
  endfacet
  facet normal -0.000568478 0.00116765 -0.999999
    outer loop
      vertex 107.994 100.005 0.000244141
      vertex 91.994 92.0061 0
      vertex 101.282 96.7371 0.000244141
    endloop
  endfacet
  facet normal -2.67171e-05 0.000104056 -1
    outer loop
      vertex 101.282 96.7371 0.000244141
      vertex 91.994 92.0061 0
      vertex 100.432 96.5189 0.000244141
    endloop
  endfacet
  facet normal 0 5.41001e-05 -1
    outer loop
      vertex 100.432 96.5189 0.000244141
      vertex 91.994 92.0061 0
      vertex 99.5547 96.5189 0.000244141
    endloop
  endfacet
  facet normal 0 0 -1
    outer loop
      vertex 107.994 100.005 0.000244141
      vertex 101.282 96.7371 0.000244141
      vertex 102.051 97.1597 0.000244141
    endloop
  endfacet
  facet normal 0 0 -1
    outer loop
      vertex 107.994 100.005 0.000244141
      vertex 102.051 97.1597 0.000244141
      vertex 102.69 97.7603 0.000244141
    endloop
  endfacet
  facet normal 0 0 -1
    outer loop
      vertex 107.994 100.005 0.000244141
      vertex 102.69 97.7603 0.000244141
      vertex 103.16 98.5011 0.000244141
    endloop
  endfacet
  facet normal 0 0 -1
    outer loop
      vertex 107.994 100.005 0.000244141
      vertex 103.16 98.5011 0.000244141
      vertex 103.431 99.3354 0.000244141
    endloop
  endfacet
  facet normal 0 0 -1
    outer loop
      vertex 107.994 100.005 0.000244141
      vertex 103.431 99.3354 0.000244141
      vertex 103.486 100.211 0.000244141
    endloop
  endfacet
  facet normal 1.39646e-06 3.05208e-05 -1
    outer loop
      vertex 107.994 100.005 0.000244141
      vertex 103.486 100.211 0.000244141
      vertex 107.994 108.004 0.000488281
    endloop
  endfacet
  facet normal 4.07328e-05 7.77038e-06 -1
    outer loop
      vertex 107.994 108.004 0.000488281
      vertex 103.486 100.211 0.000244141
      vertex 103.322 101.073 0.000244141
    endloop
  endfacet
  facet normal 3.07752e-05 1.44817e-05 -1
    outer loop
      vertex 107.994 108.004 0.000488281
      vertex 103.322 101.073 0.000244141
      vertex 102.948 101.867 0.000244141
    endloop
  endfacet
  facet normal 2.41191e-05 1.99532e-05 -1
    outer loop
      vertex 107.994 108.004 0.000488281
      vertex 102.948 101.867 0.000244141
      vertex 102.389 102.543 0.000244141
    endloop
  endfacet
  facet normal 1.8607e-05 2.56096e-05 -1
    outer loop
      vertex 107.994 108.004 0.000488281
      vertex 102.389 102.543 0.000244141
      vertex 101.679 103.058 0.000244141
    endloop
  endfacet
  facet normal 1.29826e-05 3.27902e-05 -1
    outer loop
      vertex 107.994 108.004 0.000488281
      vertex 101.679 103.058 0.000244141
      vertex 100.864 103.381 0.000244141
    endloop
  endfacet
  facet normal 5.58374e-06 4.42019e-05 -1
    outer loop
      vertex 107.994 108.004 0.000488281
      vertex 100.864 103.381 0.000244141
      vertex 99.9933 103.491 0.000244141
    endloop
  endfacet
  facet normal -3.7654e-05 0.000120854 -1
    outer loop
      vertex 107.994 108.004 0.000488281
      vertex 99.9933 103.491 0.000244141
      vertex 93.3424 104.449 0.000610352
    endloop
  endfacet
  facet normal -1.04033e-05 8.53774e-06 -1
    outer loop
      vertex 107.994 108.004 0.000488281
      vertex 93.3424 104.449 0.000610352
      vertex 94.3373 105.662 0.000610352
    endloop
  endfacet
  facet normal -1.13007e-05 1.37698e-05 -1
    outer loop
      vertex 107.994 108.004 0.000488281
      vertex 94.3373 105.662 0.000610352
      vertex 95.5496 106.656 0.000610352
    endloop
  endfacet
  facet normal -1.23019e-05 2.30153e-05 -1
    outer loop
      vertex 107.994 108.004 0.000488281
      vertex 95.5496 106.656 0.000610352
      vertex 96.9327 107.396 0.000610352
    endloop
  endfacet
  facet normal -1.34799e-05 4.44374e-05 -1
    outer loop
      vertex 107.994 108.004 0.000488281
      vertex 96.9327 107.396 0.000610352
      vertex 98.4334 107.851 0.000610352
    endloop
  endfacet
  facet normal -2.2934e-05 0.000635162 -1
    outer loop
      vertex 107.994 108.004 0.000488281
      vertex 98.4334 107.851 0.000610352
      vertex 99.9956 108.003 0.000671387
    endloop
  endfacet
  facet normal -6.29598e-05 1 -5.7973e-05
    outer loop
      vertex 99.9959 108.004 5.00119
      vertex 107.994 108.004 0.000488281
      vertex 99.9956 108.003 0.000671387
    endloop
  endfacet
  facet normal -8.44255e-05 1 -9.2303e-05
    outer loop
      vertex 107.994 108.004 0.000488281
      vertex 99.9959 108.004 5.00119
      vertex 107.994 108.004 5.0007
    endloop
  endfacet
  facet normal 0.940041 1.80876e-05 0.34106
    outer loop
      vertex 107.994 100.004 5.00046
      vertex 107.994 101.605 5.00079
      vertex 107.994 100.236 5.00082
    endloop
  endfacet
  facet normal 0.916606 3.53386e-06 0.399792
    outer loop
      vertex 107.994 101.605 5.00079
      vertex 107.994 100.004 5.00046
      vertex 107.994 108.004 5.0007
    endloop
  endfacet
  facet normal 1 1.71691e-05 -0.000103757
    outer loop
      vertex 107.994 108.004 5.0007
      vertex 107.994 100.004 5.00046
      vertex 107.994 108.004 0.000488281
    endloop
  endfacet
  facet normal 1 2.28935e-05 -9.45982e-05
    outer loop
      vertex 107.994 108.004 0.000488281
      vertex 107.994 100.004 5.00046
      vertex 107.994 100.005 0.000244141
    endloop
  endfacet
  facet normal -0.95694 -0.290285 1.38736e-06
    outer loop
      vertex 92.1472 98.444 5.00046
      vertex 92.6024 96.9436 92.9988
      vertex 92.1472 98.4444 92.9988
    endloop
  endfacet
  facet normal -0.95694 -0.290285 1.38736e-06
    outer loop
      vertex 92.6024 96.9436 92.9988
      vertex 92.1472 98.444 5.00046
      vertex 92.6024 96.9432 5.00046
    endloop
  endfacet
  facet normal 0.000215943 0.000215943 1
    outer loop
      vertex 92.0066 99.9956 92.9988
      vertex 99.2182 92.0773 92.999
      vertex 100.007 91.9956 92.9988
    endloop
  endfacet
  facet normal -0.00021233 -0.000174111 1
    outer loop
      vertex 99.2182 92.0773 92.999
      vertex 92.0066 99.9956 92.9988
      vertex 98.4327 92.1588 92.9988
    endloop
  endfacet
  facet normal 0 0 1
    outer loop
      vertex 98.4327 92.1588 92.9988
      vertex 92.0066 99.9956 92.9988
      vertex 98.0954 92.2611 92.9988
    endloop
  endfacet
  facet normal 0 0 1
    outer loop
      vertex 98.0954 92.2611 92.9988
      vertex 92.0066 99.9956 92.9988
      vertex 96.932 92.6141 92.9988
    endloop
  endfacet
  facet normal 0 0 1
    outer loop
      vertex 96.932 92.6141 92.9988
      vertex 92.0066 99.9956 92.9988
      vertex 95.5489 93.3533 92.9988
    endloop
  endfacet
  facet normal 0 0 1
    outer loop
      vertex 95.5489 93.3533 92.9988
      vertex 92.0066 99.9956 92.9988
      vertex 94.3366 94.3482 92.9988
    endloop
  endfacet
  facet normal 0 0 1
    outer loop
      vertex 94.3366 94.3482 92.9988
      vertex 92.0066 99.9956 92.9988
      vertex 93.3417 95.5605 92.9988
    endloop
  endfacet
  facet normal 0 0 1
    outer loop
      vertex 93.3417 95.5605 92.9988
      vertex 92.0066 99.9956 92.9988
      vertex 92.6024 96.9436 92.9988
    endloop
  endfacet
  facet normal -0.00300196 -0.000586084 0.999995
    outer loop
      vertex 92.6024 96.9436 92.9988
      vertex 92.0066 99.9956 92.9988
      vertex 92.0771 99.2179 92.9986
    endloop
  endfacet
  facet normal 0.00148366 0.000450064 0.999999
    outer loop
      vertex 92.6024 96.9436 92.9988
      vertex 92.0771 99.2179 92.9986
      vertex 92.1472 98.4444 92.9988
    endloop
  endfacet
  facet normal -0.0980172 -0.995185 4.77327e-06
    outer loop
      vertex 99.1729 92.0855 5.00049
      vertex 98.4327 92.1588 92.9988
      vertex 98.4327 92.1584 5.00046
    endloop
  endfacet
  facet normal -0.103178 -0.994663 -3.90771e-05
    outer loop
      vertex 98.4327 92.1588 92.9988
      vertex 99.1729 92.0855 5.00049
      vertex 99.2182 92.0773 92.999
    endloop
  endfacet
  facet normal -0.0980163 -0.995185 -4.17785e-05
    outer loop
      vertex 99.2182 92.0773 92.999
      vertex 99.1729 92.0855 5.00049
      vertex 99.9934 92.0047 5.00046
    endloop
  endfacet
  facet normal -0.103175 -0.994663 -8.76563e-05
    outer loop
      vertex 99.2182 92.0773 92.999
      vertex 99.9934 92.0047 5.00046
      vertex 100.007 91.9956 92.9988
    endloop
  endfacet
  facet normal -0.000634816 2.22935e-05 1
    outer loop
      vertex 107.994 101.605 5.00079
      vertex 107.917 100.785 5.00076
      vertex 107.994 100.236 5.00082
    endloop
  endfacet
  facet normal -0.000193724 -1.90801e-05 1
    outer loop
      vertex 107.917 100.785 5.00076
      vertex 107.994 101.605 5.00079
      vertex 107.84 101.566 5.00076
    endloop
  endfacet
  facet normal -0.000184401 -5.59373e-05 1
    outer loop
      vertex 107.84 101.566 5.00076
      vertex 107.994 101.605 5.00079
      vertex 107.385 103.067 5.00076
    endloop
  endfacet
  facet normal -1.57722e-05 1.43058e-05 1
    outer loop
      vertex 107.385 103.067 5.00076
      vertex 107.994 101.605 5.00079
      vertex 107.994 108.004 5.0007
    endloop
  endfacet
  facet normal 1.879e-05 1.00434e-05 1
    outer loop
      vertex 107.385 103.067 5.00076
      vertex 107.994 108.004 5.0007
      vertex 106.646 104.45 5.00076
    endloop
  endfacet
  facet normal 1.43088e-05 1.1743e-05 1
    outer loop
      vertex 106.646 104.45 5.00076
      vertex 107.994 108.004 5.0007
      vertex 105.651 105.662 5.00076
    endloop
  endfacet
  facet normal 1.17433e-05 1.43093e-05 1
    outer loop
      vertex 105.651 105.662 5.00076
      vertex 107.994 108.004 5.0007
      vertex 104.439 106.657 5.00076
    endloop
  endfacet
  facet normal 1.00444e-05 1.87916e-05 1
    outer loop
      vertex 104.439 106.657 5.00076
      vertex 107.994 108.004 5.0007
      vertex 103.056 107.396 5.00076
    endloop
  endfacet
  facet normal 1.46604e-05 -1.86845e-05 1
    outer loop
      vertex 103.056 107.396 5.00076
      vertex 107.994 108.004 5.0007
      vertex 101.554 107.852 5.00079
    endloop
  endfacet
  facet normal 6.12165e-05 -0.00198095 0.999998
    outer loop
      vertex 101.554 107.852 5.00079
      vertex 107.994 108.004 5.0007
      vertex 99.9959 108.004 5.00119
    endloop
  endfacet
  facet normal 0.77301 0.634394 5.47845e-06
    outer loop
      vertex 106.646 104.45 5.00076
      vertex 105.65 105.662 92.9988
      vertex 106.645 104.45 92.9988
    endloop
  endfacet
  facet normal 0.77301 0.634393 5.48533e-06
    outer loop
      vertex 105.65 105.662 92.9988
      vertex 106.646 104.45 5.00076
      vertex 105.651 105.662 5.00076
    endloop
  endfacet
  facet normal 0.881923 0.471394 6.20384e-06
    outer loop
      vertex 107.385 103.067 5.00076
      vertex 106.645 104.45 92.9988
      vertex 107.384 103.067 92.9988
    endloop
  endfacet
  facet normal 0.881923 0.471394 6.20384e-06
    outer loop
      vertex 106.645 104.45 92.9988
      vertex 107.385 103.067 5.00076
      vertex 106.646 104.45 5.00076
    endloop
  endfacet
  facet normal 0.95694 0.290285 6.69079e-06
    outer loop
      vertex 107.84 101.566 5.00076
      vertex 107.384 103.067 92.9988
      vertex 107.84 101.566 92.9988
    endloop
  endfacet
  facet normal 0.95694 0.290285 6.69079e-06
    outer loop
      vertex 107.384 103.067 92.9988
      vertex 107.84 101.566 5.00076
      vertex 107.385 103.067 5.00076
    endloop
  endfacet
  facet normal 0 0 1
    outer loop
      vertex 100.007 107.996 92.9988
      vertex 92.1472 101.566 92.9988
      vertex 92.0066 99.9956 92.9988
    endloop
  endfacet
  facet normal 0 0 1
    outer loop
      vertex 92.1472 101.566 92.9988
      vertex 100.007 107.996 92.9988
      vertex 92.6024 103.067 92.9988
    endloop
  endfacet
  facet normal 0 0 1
    outer loop
      vertex 92.6024 103.067 92.9988
      vertex 100.007 107.996 92.9988
      vertex 93.3417 104.45 92.9988
    endloop
  endfacet
  facet normal 0 0 1
    outer loop
      vertex 93.3417 104.45 92.9988
      vertex 100.007 107.996 92.9988
      vertex 94.3366 105.662 92.9988
    endloop
  endfacet
  facet normal 0 0 1
    outer loop
      vertex 94.3366 105.662 92.9988
      vertex 100.007 107.996 92.9988
      vertex 95.5489 106.657 92.9988
    endloop
  endfacet
  facet normal 0 0 1
    outer loop
      vertex 95.5489 106.657 92.9988
      vertex 100.007 107.996 92.9988
      vertex 96.932 107.396 92.9988
    endloop
  endfacet
  facet normal 0 0 1
    outer loop
      vertex 96.932 107.396 92.9988
      vertex 100.007 107.996 92.9988
      vertex 98.4327 107.851 92.9988
    endloop
  endfacet
  facet normal -0.091224 0.995779 0.0101288
    outer loop
      vertex 98.4327 107.851 92.9988
      vertex 100.007 107.996 92.9988
      vertex 99.2096 107.923 92.9986
    endloop
  endfacet
  facet normal -0.000402091 -0.000402091 1
    outer loop
      vertex 107.994 100.236 92.9989
      vertex 100.007 107.996 92.9988
      vertex 108.007 99.9956 92.9988
    endloop
  endfacet
  facet normal -0.000329738 -0.000327615 1
    outer loop
      vertex 100.007 107.996 92.9988
      vertex 107.994 100.236 92.9989
      vertex 107.924 100.772 92.9991
    endloop
  endfacet
  facet normal 0.000276551 0.000336914 1
    outer loop
      vertex 100.007 107.996 92.9988
      vertex 107.924 100.772 92.9991
      vertex 107.84 101.566 92.9988
    endloop
  endfacet
  facet normal 0 0 1
    outer loop
      vertex 100.007 107.996 92.9988
      vertex 107.84 101.566 92.9988
      vertex 107.384 103.067 92.9988
    endloop
  endfacet
  facet normal 0 0 1
    outer loop
      vertex 100.007 107.996 92.9988
      vertex 107.384 103.067 92.9988
      vertex 106.645 104.45 92.9988
    endloop
  endfacet
  facet normal 0 0 1
    outer loop
      vertex 100.007 107.996 92.9988
      vertex 106.645 104.45 92.9988
      vertex 105.65 105.662 92.9988
    endloop
  endfacet
  facet normal 0 0 1
    outer loop
      vertex 100.007 107.996 92.9988
      vertex 105.65 105.662 92.9988
      vertex 104.438 106.657 92.9988
    endloop
  endfacet
  facet normal 0 0 1
    outer loop
      vertex 100.007 107.996 92.9988
      vertex 104.438 106.657 92.9988
      vertex 103.055 107.396 92.9988
    endloop
  endfacet
  facet normal 0 0 1
    outer loop
      vertex 100.007 107.996 92.9988
      vertex 103.055 107.396 92.9988
      vertex 101.554 107.851 92.9988
    endloop
  endfacet
  facet normal 0 0 1
    outer loop
      vertex 101.554 92.1588 92.9988
      vertex 108.007 99.9956 92.9988
      vertex 100.007 91.9956 92.9988
    endloop
  endfacet
  facet normal 0 0 1
    outer loop
      vertex 108.007 99.9956 92.9988
      vertex 101.554 92.1588 92.9988
      vertex 103.055 92.6141 92.9988
    endloop
  endfacet
  facet normal 0 0 1
    outer loop
      vertex 108.007 99.9956 92.9988
      vertex 103.055 92.6141 92.9988
      vertex 104.438 93.3533 92.9988
    endloop
  endfacet
  facet normal 0 0 1
    outer loop
      vertex 108.007 99.9956 92.9988
      vertex 104.438 93.3533 92.9988
      vertex 105.65 94.3482 92.9988
    endloop
  endfacet
  facet normal 0 0 1
    outer loop
      vertex 108.007 99.9956 92.9988
      vertex 105.65 94.3482 92.9988
      vertex 106.645 95.5605 92.9988
    endloop
  endfacet
  facet normal 0 0 1
    outer loop
      vertex 108.007 99.9956 92.9988
      vertex 106.645 95.5605 92.9988
      vertex 107.384 96.9436 92.9988
    endloop
  endfacet
  facet normal -0.00367951 0.000750008 0.999993
    outer loop
      vertex 108.007 99.9956 92.9988
      vertex 107.384 96.9436 92.9988
      vertex 107.923 99.2202 92.9991
    endloop
  endfacet
  facet normal 0.00180804 -0.000548463 0.999998
    outer loop
      vertex 107.923 99.2202 92.9991
      vertex 107.384 96.9436 92.9988
      vertex 107.84 98.4444 92.9988
    endloop
  endfacet
  facet normal -0.000402091 -0.000402091 1
    outer loop
      vertex 107.994 100.236 92.9989
      vertex 100.007 107.996 92.9988
      vertex 108.007 99.9956 92.9988
    endloop
  endfacet
  facet normal -0.000329738 -0.000327615 1
    outer loop
      vertex 100.007 107.996 92.9988
      vertex 107.994 100.236 92.9989
      vertex 107.924 100.772 92.9991
    endloop
  endfacet
  facet normal 0.000276551 0.000336914 1
    outer loop
      vertex 100.007 107.996 92.9988
      vertex 107.924 100.772 92.9991
      vertex 107.84 101.566 92.9988
    endloop
  endfacet
  facet normal 0 0 1
    outer loop
      vertex 100.007 107.996 92.9988
      vertex 107.84 101.566 92.9988
      vertex 107.384 103.067 92.9988
    endloop
  endfacet
  facet normal 0 0 1
    outer loop
      vertex 100.007 107.996 92.9988
      vertex 107.384 103.067 92.9988
      vertex 106.645 104.45 92.9988
    endloop
  endfacet
  facet normal 0 0 1
    outer loop
      vertex 100.007 107.996 92.9988
      vertex 106.645 104.45 92.9988
      vertex 105.65 105.662 92.9988
    endloop
  endfacet
  facet normal 0 0 1
    outer loop
      vertex 100.007 107.996 92.9988
      vertex 105.65 105.662 92.9988
      vertex 104.438 106.657 92.9988
    endloop
  endfacet
  facet normal 0 0 1
    outer loop
      vertex 100.007 107.996 92.9988
      vertex 104.438 106.657 92.9988
      vertex 103.055 107.396 92.9988
    endloop
  endfacet
  facet normal 0 0 1
    outer loop
      vertex 100.007 107.996 92.9988
      vertex 103.055 107.396 92.9988
      vertex 101.554 107.851 92.9988
    endloop
  endfacet
  facet normal 0.994401 0.105674 -6.16728e-05
    outer loop
      vertex 107.917 100.785 5.00076
      vertex 107.84 101.566 92.9988
      vertex 107.924 100.772 92.9991
    endloop
  endfacet
  facet normal 0.995185 0.0980167 6.92063e-06
    outer loop
      vertex 107.84 101.566 92.9988
      vertex 107.917 100.785 5.00076
      vertex 107.84 101.566 5.00076
    endloop
  endfacet
  facet normal 0.991663 0.128857 -5.78901e-05
    outer loop
      vertex 107.994 100.236 92.9989
      vertex 107.917 100.785 5.00076
      vertex 107.924 100.772 92.9991
    endloop
  endfacet
  facet normal 0.99035 0.13859 4.01976e-06
    outer loop
      vertex 107.917 100.785 5.00076
      vertex 107.994 100.236 92.9989
      vertex 107.994 100.236 5.00082
    endloop
  endfacet
  facet normal 0.0971371 0.995271 8.10049e-05
    outer loop
      vertex 100.007 107.996 92.9988
      vertex 101.554 107.852 5.00079
      vertex 99.9959 108.004 5.00119
    endloop
  endfacet
  facet normal 0.0927617 0.995688 3.35959e-06
    outer loop
      vertex 101.554 107.852 5.00079
      vertex 100.007 107.996 92.9988
      vertex 101.554 107.851 92.9988
    endloop
  endfacet
  facet normal -0.0912314 0.99583 -5.03887e-06
    outer loop
      vertex 99.2096 107.923 92.9986
      vertex 98.4334 107.851 0.000610352
      vertex 98.4327 107.851 92.9988
    endloop
  endfacet
  facet normal -0.0971599 0.995269 4.48743e-05
    outer loop
      vertex 98.4334 107.851 0.000610352
      vertex 99.2096 107.923 92.9986
      vertex 99.9956 108.003 0.000671387
    endloop
  endfacet
  facet normal -0.108272 0.994121 -5.00376e-05
    outer loop
      vertex 99.9956 108.003 0.000671387
      vertex 99.2096 107.923 92.9986
      vertex 99.9959 108.004 5.00119
    endloop
  endfacet
  facet normal -0.091226 0.99583 0.000103855
    outer loop
      vertex 99.9959 108.004 5.00119
      vertex 99.2096 107.923 92.9986
      vertex 100.007 107.996 92.9988
    endloop
  endfacet
  facet normal -0.996016 0.089179 -7.90793e-06
    outer loop
      vertex 92.1479 101.565 0.000610352
      vertex 92.0066 99.9956 92.9988
      vertex 92.1472 101.566 92.9988
    endloop
  endfacet
  facet normal -0.995091 0.0989623 0.000158643
    outer loop
      vertex 92.0066 99.9956 92.9988
      vertex 92.1479 101.565 0.000610352
      vertex 91.9934 100.005 5.00046
    endloop
  endfacet
  facet normal -0.995167 0.0981982 -8.22227e-05
    outer loop
      vertex 91.9934 100.005 5.00046
      vertex 92.1479 101.565 0.000610352
      vertex 91.9939 100.005 0.000213623
    endloop
  endfacet
  facet normal -0.995916 -0.0902827 0.000139161
    outer loop
      vertex 91.9934 100.005 5.00046
      vertex 92.0771 99.2179 92.9986
      vertex 92.0066 99.9956 92.9988
    endloop
  endfacet
  facet normal -0.995919 -0.0902508 4.31342e-07
    outer loop
      vertex 92.0771 99.2179 92.9986
      vertex 92.1472 98.444 5.00046
      vertex 92.1472 98.4444 92.9988
    endloop
  endfacet
  facet normal -0.995185 -0.0980167 6.93192e-05
    outer loop
      vertex 92.1472 98.444 5.00046
      vertex 92.0771 99.2179 92.9986
      vertex 91.9934 100.005 5.00046
    endloop
  endfacet
  facet normal -1 3.25995e-09 -8.5445e-05
    outer loop
      vertex 91.9939 100.005 0.000213623
      vertex 91.9934 92.0059 5.00015
      vertex 91.9934 100.005 5.00046
    endloop
  endfacet
  facet normal -1 -1.14432e-05 -0.000103757
    outer loop
      vertex 91.9934 92.0059 5.00015
      vertex 91.9939 100.005 0.000213623
      vertex 91.994 92.0061 0
    endloop
  endfacet
  facet normal 0.998577 0.0533368 3.90242e-06
    outer loop
      vertex 108.007 99.9956 92.9988
      vertex 107.994 100.236 5.00082
      vertex 107.994 100.236 92.9989
    endloop
  endfacet
  facet normal 1 0.000592339 -0.000140567
    outer loop
      vertex 107.994 100.236 5.00082
      vertex 108.007 99.9956 92.9988
      vertex 107.994 100.004 5.00046
    endloop
  endfacet
  facet normal 1 -4.00592e-05 -9.46044e-05
    outer loop
      vertex 107.994 92.0059 5.00021
      vertex 107.994 100.005 0.000244141
      vertex 107.994 100.004 5.00046
    endloop
  endfacet
  facet normal 1 -2.32866e-10 -3.05181e-05
    outer loop
      vertex 107.994 100.005 0.000244141
      vertex 107.994 92.0059 5.00021
      vertex 107.994 92.0059 0.000305176
    endloop
  endfacet
  facet normal 0.994265 -0.106939 -0.00020865
    outer loop
      vertex 107.84 98.4444 92.9988
      vertex 108.007 99.9956 92.9988
      vertex 107.923 99.2202 92.9991
    endloop
  endfacet
  facet normal 0.994266 -0.106939 -3.66681e-05
    outer loop
      vertex 108.007 99.9956 92.9988
      vertex 107.84 98.4444 92.9988
      vertex 107.836 98.4445 5.00055
    endloop
  endfacet
  facet normal 0.994928 -0.100586 -0.000149931
    outer loop
      vertex 108.007 99.9956 92.9988
      vertex 107.836 98.4445 5.00055
      vertex 107.994 100.004 5.00046
    endloop
  endfacet
  facet normal 0.471399 -0.88192 2.54834e-06
    outer loop
      vertex 103.055 92.6139 5.0004
      vertex 104.438 93.3533 92.9988
      vertex 103.055 92.6141 92.9988
    endloop
  endfacet
  facet normal 0.471395 -0.881922 2.63247e-06
    outer loop
      vertex 104.438 93.3533 92.9988
      vertex 103.055 92.6139 5.0004
      vertex 104.438 93.3532 5.0004
    endloop
  endfacet
  facet normal 0.634392 -0.773011 2.80603e-06
    outer loop
      vertex 104.438 93.3532 5.0004
      vertex 105.65 94.3482 92.9988
      vertex 104.438 93.3533 92.9988
    endloop
  endfacet
  facet normal 0.634388 -0.773015 2.90337e-06
    outer loop
      vertex 105.65 94.3482 92.9988
      vertex 104.438 93.3532 5.0004
      vertex 105.65 94.3481 5.00043
    endloop
  endfacet
  facet normal 0.77301 -0.634394 2.90788e-06
    outer loop
      vertex 105.65 94.3481 5.00043
      vertex 106.645 95.5605 92.9988
      vertex 105.65 94.3482 92.9988
    endloop
  endfacet
  facet normal 0.773003 -0.634402 3.10039e-06
    outer loop
      vertex 106.645 95.5605 92.9988
      vertex 105.65 94.3481 5.00043
      vertex 106.645 95.5603 5.00046
    endloop
  endfacet
  facet normal 0.95694 -0.290285 2.23583e-06
    outer loop
      vertex 107.385 96.9434 5.00049
      vertex 107.84 98.4444 92.9988
      vertex 107.384 96.9436 92.9988
    endloop
  endfacet
  facet normal 0.957553 -0.288257 -3.55188e-05
    outer loop
      vertex 107.84 98.4444 92.9988
      vertex 107.385 96.9434 5.00049
      vertex 107.836 98.4445 5.00055
    endloop
  endfacet
  facet normal 0.290284 -0.95694 2.20326e-06
    outer loop
      vertex 101.554 92.1587 5.00043
      vertex 103.055 92.6141 92.9988
      vertex 101.554 92.1588 92.9988
    endloop
  endfacet
  facet normal 0.290279 -0.956942 2.30481e-06
    outer loop
      vertex 103.055 92.6141 92.9988
      vertex 101.554 92.1587 5.00043
      vertex 103.055 92.6139 5.0004
    endloop
  endfacet
  facet normal 0.0981819 -0.995168 -0.000117735
    outer loop
      vertex 101.554 92.1587 5.00043
      vertex 100.007 91.9956 92.9988
      vertex 99.9934 92.0047 5.00046
    endloop
  endfacet
  facet normal 0.104906 -0.994482 1.81196e-06
    outer loop
      vertex 100.007 91.9956 92.9988
      vertex 101.554 92.1587 5.00043
      vertex 101.554 92.1588 92.9988
    endloop
  endfacet
  facet normal 0.881923 -0.471394 2.94368e-06
    outer loop
      vertex 106.645 95.5603 5.00046
      vertex 107.384 96.9436 92.9988
      vertex 106.645 95.5605 92.9988
    endloop
  endfacet
  facet normal 0.881932 -0.471376 2.58194e-06
    outer loop
      vertex 107.384 96.9436 92.9988
      vertex 106.645 95.5603 5.00046
      vertex 107.385 96.9434 5.00049
    endloop
  endfacet
  facet normal 2.6479e-05 -7.02246e-05 1
    outer loop
      vertex 101.554 92.1587 5.00043
      vertex 107.994 100.236 5.00082
      vertex 99.9934 92.0047 5.00046
    endloop
  endfacet
  facet normal 4.64722e-05 -8.61637e-05 1
    outer loop
      vertex 107.994 100.236 5.00082
      vertex 101.554 92.1587 5.00043
      vertex 103.055 92.6139 5.0004
    endloop
  endfacet
  facet normal 4.58342e-05 -8.57504e-05 1
    outer loop
      vertex 107.994 100.236 5.00082
      vertex 103.055 92.6139 5.0004
      vertex 104.438 93.3532 5.0004
    endloop
  endfacet
  facet normal 4.47312e-05 -8.51805e-05 1
    outer loop
      vertex 107.994 100.236 5.00082
      vertex 104.438 93.3532 5.0004
      vertex 105.65 94.3481 5.00043
    endloop
  endfacet
  facet normal 9.98447e-05 -0.000107116 1
    outer loop
      vertex 107.994 100.236 5.00082
      vertex 105.65 94.3481 5.00043
      vertex 106.645 95.5603 5.00046
    endloop
  endfacet
  facet normal 0.000228623 -0.000144259 1
    outer loop
      vertex 107.994 100.236 5.00082
      vertex 106.645 95.5603 5.00046
      vertex 107.385 96.9434 5.00049
    endloop
  endfacet
  facet normal 0.000528518 -0.000199764 1
    outer loop
      vertex 107.994 100.236 5.00082
      vertex 107.385 96.9434 5.00049
      vertex 107.836 98.4445 5.00055
    endloop
  endfacet
  facet normal 0.0161023 -0.00156924 0.999869
    outer loop
      vertex 107.994 100.236 5.00082
      vertex 107.836 98.4445 5.00055
      vertex 107.994 100.004 5.00046
    endloop
  endfacet
  facet normal 3.05326e-05 -0.000111312 1
    outer loop
      vertex 107.994 92.0059 5.00021
      vertex 101.554 92.1587 5.00043
      vertex 99.9934 92.0047 5.00046
    endloop
  endfacet
  facet normal 3.22425e-05 -3.92535e-05 1
    outer loop
      vertex 101.554 92.1587 5.00043
      vertex 107.994 92.0059 5.00021
      vertex 103.055 92.6139 5.0004
    endloop
  endfacet
  facet normal 3.01343e-05 -5.63776e-05 1
    outer loop
      vertex 103.055 92.6139 5.0004
      vertex 107.994 92.0059 5.00021
      vertex 104.438 93.3532 5.0004
    endloop
  endfacet
  facet normal 2.72786e-05 -6.39142e-05 1
    outer loop
      vertex 104.438 93.3532 5.0004
      vertex 107.994 92.0059 5.00021
      vertex 105.65 94.3481 5.00043
    endloop
  endfacet
  facet normal 3.62576e-05 -5.49305e-05 1
    outer loop
      vertex 105.65 94.3481 5.00043
      vertex 107.994 92.0059 5.00021
      vertex 106.645 95.5603 5.00046
    endloop
  endfacet
  facet normal 5.10154e-05 -4.93317e-05 1
    outer loop
      vertex 106.645 95.5603 5.00046
      vertex 107.994 92.0059 5.00021
      vertex 107.385 96.9434 5.00049
    endloop
  endfacet
  facet normal 3.52604e-05 -5.12758e-05 1
    outer loop
      vertex 107.385 96.9434 5.00049
      vertex 107.994 92.0059 5.00021
      vertex 107.836 98.4445 5.00055
    endloop
  endfacet
  facet normal 0.000882818 -3.05589e-05 1
    outer loop
      vertex 107.836 98.4445 5.00055
      vertex 107.994 92.0059 5.00021
      vertex 107.994 100.004 5.00046
    endloop
  endfacet
endsolid Tube Stand Riser.stl
